<?xml version="1.0" standalone="no"?>
<!DOCTYPE svg PUBLIC "-//W3C//DTD SVG 1.1//EN" "http://www.w3.org/Graphics/SVG/1.1/DTD/svg11.dtd" >
<svg xmlns="http://www.w3.org/2000/svg">
<metadata></metadata>
<defs>
<font id="billabongregular" horiz-adv-x="739" >
<font-face units-per-em="2048" ascent="1638" descent="-410" />
<missing-glyph horiz-adv-x="419" />
<glyph horiz-adv-x="2048" />
<glyph horiz-adv-x="2048" />
<glyph unicode="&#xd;" horiz-adv-x="419" />
<glyph unicode=" "  horiz-adv-x="419" />
<glyph unicode="&#x09;" horiz-adv-x="419" />
<glyph unicode="&#xa0;" horiz-adv-x="419" />
<glyph unicode="!" horiz-adv-x="606" d="M143 66q0 2 7.5 6t7.5 10q0 10 -13 12q33 49 85.5 71.5t86.5 22.5q14 0 35 -6t42.5 -15t41 -20.5t29.5 -21.5q6 -6 7 -13.5t1 -14.5t3 -14t13 -13q-12 -33 -64 -59.5t-132 -26.5q-27 0 -54.5 8t-48 20.5t-34 26.5t-13.5 27zM158 1253q0 31 10 46.5t27 19.5q6 -4 16 -10 t45 -11q90 -8 135 -17t45 -56q0 -33 -9 -68t-21.5 -87t-21.5 -132t-9 -203q0 -8 1 -35.5t1 -59.5t1 -59.5t1 -37.5l18 -248q0 -27 -10 -34t-25 -7q-8 0 -34.5 5t-55 16.5t-52 27.5t-23.5 39q0 117 2 209t2 166q0 92 -1 157.5t-3 113.5t-6.5 84t-10.5 67q-4 27 -13 59.5 t-9 54.5z" />
<glyph unicode="&#x22;" horiz-adv-x="823" d="M143 831v381q0 53 4.5 84t15.5 48.5t32.5 22.5t54.5 5h4q20 0 49 -14.5t29 -57.5v-16q2 -31 -8.5 -56.5t-14.5 -58.5l-37 -354q-4 -33 -26.5 -44t-44.5 -11q-20 0 -39 12t-19 59zM492 831v381q0 53 4 84t15 48.5t32.5 22.5t54.5 5h4q20 0 49 -14.5t29 -57.5v-16 q2 -31 -8 -56.5t-15 -58.5l-36 -354q-4 -33 -26 -44t-46 -11q-20 0 -38.5 12t-18.5 59z" />
<glyph unicode="#" horiz-adv-x="1265" d="M23 504v2q0 25 10 45t49 20h6q41 -2 80 -2h80h47q16 66 31.5 127.5t29.5 112.5h-139q-51 0 -90 18.5t-39 69.5v2q0 25 10.5 45.5t48.5 20.5h7q41 -2 79.5 -2h79.5h80q25 88 44.5 174t23.5 206q0 29 12 39.5t39 10.5q41 0 81 -21.5t50 -64.5q-20 -160 -68 -344h277 q25 86 43 172t23 204q0 29 12 39.5t39 10.5q41 0 81 -21.5t50 -64.5q-10 -78 -26.5 -162t-39.5 -176h140q33 -2 44 -33t11 -60q0 -25 -11.5 -43t-48.5 -18h-174l-61 -240h174q33 -2 44 -32.5t11 -59.5q0 -25 -11 -43t-48 -18h-209q-20 -92 -36.5 -186.5t-16.5 -165.5 q8 -14 10 -26.5t2 -27.5q0 -23 -10 -36t-39 -13t-54.5 11.5t-46 30t-31.5 41t-11 42.5q0 51 15 138t38 192h-277q-23 -92 -35 -184.5t-18 -163.5q8 -12 10 -26.5t2 -27.5q0 -23 -10 -36t-39 -13t-55.5 11.5t-46 30t-30.5 41t-11 42.5q0 51 15.5 138t37.5 186h-106 q-51 0 -90 18.5t-39 69.5zM475 569h277q16 68 32.5 128.5t28.5 113.5h-274q-16 -59 -31.5 -119.5t-32.5 -122.5z" />
<glyph unicode="$" horiz-adv-x="1015" d="M27 858q0 74 35.5 134.5t97 104.5t143.5 69.5t172 27.5q-2 86 -6 135t-12 72l-8 24q20 8 59 14.5t61 6.5q47 0 66.5 -22.5t19.5 -71.5q0 -41 -6 -77t-8 -81q70 -6 130 -16.5t104.5 -31t70 -55t25.5 -90.5v-4q0 -47 -12.5 -78.5t-22.5 -48.5q-4 2 -7 4.5t-7 4.5 q-16 10 -39 18q-59 27 -117.5 41t-130.5 23q-4 -53 -7 -94.5t-5 -79t-4.5 -77.5t-4.5 -92q104 -37 173 -72.5t111 -71.5t58.5 -71.5t16.5 -70.5q0 -27 -11.5 -41.5t-27.5 -25.5t-35.5 -22.5t-36.5 -35.5q-18 -27 -47 -43.5t-62.5 -25.5t-69.5 -12t-69 -3q0 -53 6.5 -96 t14.5 -72q25 -25 24 -43q0 -16 -22.5 -26.5t-54.5 -10.5q-51 0 -79 7t-41 22.5t-15.5 39t-2.5 56.5v21.5t1 34t3.5 37t4.5 30.5q-88 12 -154 21.5t-111 23.5t-67.5 37.5t-22.5 62.5q0 10 1 29.5t6.5 38t15.5 33t31 14.5q10 0 18 -12.5t37 -22.5q55 -20 118.5 -36.5 t135.5 -26.5q4 66 6 116t4 91l-43 14q-68 23 -139.5 50.5t-130 67.5t-95 96t-36.5 138zM195 868q0 -25 8 -44t27.5 -36.5t54 -36t90.5 -42.5l104 -41v63.5t-1 65t-1 76.5v98q-135 -2 -208.5 -26.5t-73.5 -76.5zM610 279q10 -2 23.5 -2.5t25.5 -0.5q23 0 54.5 1.5t60.5 5.5 t49.5 11t20.5 21q0 16 -23.5 35t-58.5 36t-76 33.5t-76 29.5v-170z" />
<glyph unicode="%" horiz-adv-x="1644" d="M39 942q0 49 10 121t39 136.5t79 110.5t128 46q37 0 79 -5t82 -16.5t74.5 -29t59.5 -41.5q25 -25 46 -64t35.5 -82t22.5 -85t8 -75v-84q0 -43 -17 -97t-49 -101t-77 -79t-100 -32l-172 15q-76 16 -124 54t-76 88t-38 107.5t-10 112.5zM203 954q0 -35 6 -86t23.5 -97 t47 -79t78.5 -33h60q49 0 76.5 33t41 78t17.5 89t4 67q0 29 -3 70.5t-12.5 82.5t-22.5 77t-36 54t-52.5 25.5t-57.5 7.5q-57 0 -91 -29.5t-51.5 -73.5t-22.5 -94.5t-5 -91.5zM399 31v6q0 25 28 86t73 143t99 176.5t107.5 183.5t99.5 163.5t73 119.5q31 51 59.5 98.5t56 96.5 t54 104t53.5 123q10 29 25.5 39t37.5 10q25 0 51.5 -13t30.5 -42q2 -2 2 -12q0 -14 -2 -19q-53 -113 -126.5 -241.5t-157.5 -267t-170 -282t-164 -284.5q-10 -18 -20.5 -40.5t-19.5 -46t-16.5 -42t-11.5 -29.5q-2 -33 -14 -63.5t-45 -36.5l-13 -2q-29 0 -55 22.5t-35 49.5z M909 350q0 49 10.5 121t39 136.5t78.5 110.5t128 46q37 0 79 -5t82 -16.5t75 -29t59 -41.5q25 -25 46.5 -64t35.5 -82t22.5 -85t8.5 -74v-84q0 -43 -17.5 -97.5t-49 -101.5t-77 -79t-100.5 -32l-172 15q-76 16 -124 54t-75.5 88t-38 107.5t-10.5 112.5zM1073 362 q0 -35 6 -86t23.5 -97t47.5 -78.5t79 -32.5h59q49 0 77 32.5t41 77.5t17 89t4 67q0 29 -3 70.5t-12 82.5t-22.5 77t-35.5 54q-23 18 -52.5 25.5t-58.5 7.5q-57 0 -91 -29.5t-51.5 -73.5t-22.5 -94.5t-5 -91.5z" />
<glyph unicode="&#x26;" horiz-adv-x="1013" d="M55 307q0 47 34 91t83 79t106.5 57.5t106.5 24.5q-25 8 -57.5 11t-63.5 18.5t-56.5 53.5t-37.5 116q-12 29 -30.5 58.5t-18.5 64.5q0 49 28.5 88t69.5 68.5t87 51t83 35.5q59 23 118.5 34t84.5 11q37 0 80 -11t81 -33.5t62.5 -59.5t24.5 -88q0 -16 -14.5 -59.5t-38 -89.5 t-52 -80.5t-59.5 -34.5q-18 0 -33.5 8t-15.5 31q0 41 19.5 56t44 23.5t44 17.5t19.5 40q0 35 -13.5 59.5t-34 40t-46 23.5t-48.5 8q-33 0 -92 -11.5t-117.5 -37t-100.5 -67.5t-42 -101t25.5 -97t68.5 -59.5t99.5 -30t117.5 -8.5q57 0 101.5 7.5t58.5 7.5q10 0 16.5 -16.5 t10.5 -37t5 -40t1 -23.5q0 -39 -27 -39q-4 0 -11 8t-24 8q-59 0 -139 -13t-152.5 -45t-122.5 -83t-50 -127q0 -51 35.5 -81t80.5 -43t83 -16t40 -3h-8q106 0 179 49t119 121.5t66.5 156.5t20.5 154v57q0 12 -2 27.5t-6 21.5q10 8 15 9.5t13 1.5q45 0 63.5 -37t18.5 -68v-17 t-2 -58.5t-5 -133.5t-9 -241q0 -8 8.5 -19.5t12.5 -23.5q-6 -25 -45 -33t-74 -8q-20 0 -35.5 14t-38.5 14q-18 0 -44 -12t-64.5 -27.5t-93 -27.5t-132.5 -12q-117 0 -197.5 56t-132.5 167q-10 20 -29.5 41.5t-19.5 62.5z" />
<glyph unicode="'" horiz-adv-x="475" d="M143 831v381q0 53 4.5 84t15.5 48.5t32.5 22.5t54.5 5h4q20 0 49 -14.5t29 -57.5v-16q2 -31 -8.5 -56.5t-14.5 -58.5l-37 -354q-4 -33 -26.5 -44t-44.5 -11q-20 0 -39 12t-19 59z" />
<glyph unicode="(" horiz-adv-x="589" d="M143 354q0 240 50.5 491t111.5 486q4 2 14.5 4t22.5 3t22.5 2t12.5 1q16 0 44 -8t53.5 -20.5t45 -28t19.5 -29.5q0 -12 -13 -22q-33 -18 -49 -47t-22 -51q-41 -178 -63.5 -345t-22.5 -327q0 -147 19.5 -278.5t60.5 -247.5q4 -12 18 -31t14 -23q0 -8 -15 -15t-34 -13 q-23 -8 -49 -13q-61 0 -114.5 21.5t-100.5 75.5q-2 2 -6 32.5t-8 85t-7.5 130t-3.5 167.5z" />
<glyph unicode=")" horiz-adv-x="589" d="M51 -57q0 12 12 22q33 18 50.5 47t21.5 51q41 178 63.5 345t22.5 327q0 147 -19.5 278.5t-60.5 248.5q-4 12 -18 30.5t-14 22.5q0 8 15 15t34 13q23 8 49 13q61 0 114.5 -21.5t100.5 -74.5q2 -2 6 -33t8 -85.5t7 -130t3 -167.5q0 -117 -13 -241t-36.5 -249t-52.5 -247.5 t-59 -239.5q-4 -2 -14.5 -4t-22.5 -3t-22.5 -2t-12.5 -1q-16 0 -44 8t-53.5 20.5t-45 28t-19.5 29.5z" />
<glyph unicode="*" horiz-adv-x="806" d="M96 981q0 29 18.5 47.5t49.5 18.5q57 -23 107.5 -42.5t105.5 -37.5q-4 59 -6 118.5t-2 118.5q4 18 22.5 27.5t38.5 9.5t38.5 -10t23.5 -31q-4 -63 -5.5 -117.5t-1.5 -115.5q53 23 109.5 42t110.5 38q29 0 47 -19.5t18 -44.5q0 -29 -29 -47q-59 -16 -116.5 -31.5 t-110.5 -32.5q2 -2 3 -4t3 -4q16 -18 42 -48t48.5 -58.5t39 -54t16.5 -37.5q0 -27 -19.5 -44.5t-48.5 -17.5q-25 0 -60.5 46t-107.5 159q-14 -23 -34.5 -58.5t-43 -68.5t-45 -56.5t-41.5 -23.5q-29 0 -49 18.5t-20 43.5q0 2 4 18l2 2q41 47 75.5 92t71.5 92q-37 10 -81 20.5 t-81.5 23t-64.5 29.5t-27 40z" />
<glyph unicode="+" horiz-adv-x="1341" d="M31 645q0 23 13 41.5t62 18.5q41 0 79 -1.5t79 -1.5h334q0 66 -1 130.5t-1 123.5v179q0 53 17.5 93t64.5 40q25 0 44 -11.5t19 -58.5q0 -41 -1 -80t-1 -80v-336q129 0 254 1.5t250 1.5q39 -4 52.5 -31t13.5 -51q0 -23 -13.5 -39.5t-56.5 -16.5h-500q0 -129 1 -254t1 -254 q0 -35 -30.5 -47t-53.5 -12q-25 0 -42 12.5t-17 50.5v504q-66 0 -129 -1t-123 -1h-176q-55 0 -97 16.5t-42 63.5z" />
<glyph unicode="," horiz-adv-x="366" d="M61 80q0 8 3.5 12t7.5 17q6 29 23.5 47t39 29.5t44 16.5t38.5 5q25 0 50.5 -9.5t48 -26.5t37 -42.5t14.5 -56.5q0 -39 -24 -71t-56.5 -53.5t-69.5 -32.5t-61 -11q-8 0 -17.5 3t-13.5 13q12 0 29.5 4t33 11.5t25.5 19.5t10 31q0 12 -25.5 19t-55 15.5t-55.5 21.5t-26 38z " />
<glyph unicode="-" horiz-adv-x="741" d="M123 496q0 29 12 46t47 17h6q18 -2 24.5 -4t15 -3t25.5 -1h56q92 0 149.5 3t108.5 13l9 -10q8 -10 17 -25.5t17 -34t8 -36.5q0 -29 -16 -56.5t-72 -27.5h-12q-35 0 -88 5t-149 5h-33q-47 0 -86 31t-39 78z" />
<glyph unicode="." horiz-adv-x="399" d="M61 68v10q0 25 21.5 45t51.5 34.5t61.5 21.5t52.5 7q18 0 43.5 -10t50.5 -27.5t42 -38t17 -40.5q0 -12 -23.5 -27.5t-54 -29t-59 -21.5t-41.5 -8q-45 0 -81 19.5t-74 35.5q6 6 6 16q0 8 -13 13z" />
<glyph unicode="/" horiz-adv-x="937" d="M66 -27q0 27 29.5 98.5t76.5 170t105.5 210t113.5 216t102.5 191.5t73.5 132q29 49 65 108.5t66.5 117t51 107.5t20.5 79v8q0 6 15.5 14.5t36 15.5t40 13t27.5 6q6 2 18 2q29 0 55.5 -17.5t26.5 -49.5q0 -10 -2 -19q-55 -113 -139 -264t-178.5 -316t-188.5 -331 t-172 -307q-10 -18 -20 -41t-19.5 -46.5t-16.5 -42t-11 -28.5q-2 -33 -8.5 -57.5t-38.5 -30.5q-6 -2 -19 -2q-33 0 -68.5 18.5t-41.5 40.5v4z" />
<glyph unicode="0" horiz-adv-x="1024" d="M55 594q0 53 6.5 122.5t21.5 143.5t39.5 145.5t63.5 128t93.5 91.5t126.5 35q12 0 32.5 -4.5t43 -9.5l45 -10t36.5 -9q43 -8 77 -15.5t64.5 -17.5t59.5 -29.5t59 -52.5q35 -39 63.5 -101.5t49 -133t32 -139t11.5 -120.5v-135q0 -59 -14.5 -129.5t-42 -136t-70.5 -119 t-100 -78.5q-18 -10 -51 -21t-54 -11h-112q-29 0 -68 8t-68 16q-53 14 -99 30.5t-87 53.5q-47 43 -78 103.5t-48 128t-24.5 136t-7.5 130.5zM238 614q0 -61 10 -148t38.5 -167t80 -136.5t133.5 -56.5h86q47 0 86 28t67.5 69t47 89t24.5 87q8 47 11 92t3 92q0 49 -5 119 t-19.5 140.5t-38 133t-60.5 97.5t-86 46t-96 11q-94 0 -150.5 -51t-85 -126t-37.5 -161t-9 -158z" />
<glyph unicode="1" horiz-adv-x="501" d="M141 -31v867q0 168 7.5 282.5t29.5 184.5q10 23 41 22q12 0 30.5 -11t38 -26.5t37 -33t27.5 -29.5q6 -8 8 -20.5t2 -22.5q-2 -16 -11 -63.5t-9 -94.5v-786q0 -94 7 -161t30 -118q-8 -10 -34 -18.5t-60 -8.5h-47h-14q-15 0 -33.5 3.5t-34 10.5t-15.5 23z" />
<glyph unicode="2" horiz-adv-x="966" d="M16 129q0 10 7.5 33.5t17.5 49.5t20.5 48.5t18.5 30.5q33 33 67.5 62.5t67.5 58.5q37 33 89 79t109.5 101t115 116.5t102.5 126t72.5 128t27.5 120.5q0 68 -41 102t-104 34q-92 -2 -144.5 -33t-81 -75t-43 -94t-32 -94t-46 -73t-87.5 -29q-45 0 -63.5 24.5t-18.5 65.5 q0 80 43 156t112.5 135.5t157.5 95t178 35.5q39 0 97.5 -30.5t113.5 -79.5t94 -112t39 -124q0 -66 -46 -144.5t-115.5 -158.5t-150.5 -156.5t-150.5 -143.5t-115.5 -116t-46 -73q0 -12 28.5 -16.5t40.5 -4.5h334q43 0 70.5 -3t45 -17.5t24.5 -43t7 -81.5q0 -23 -10 -23 q-4 0 -17 3t-32 3q-29 0 -49.5 -1t-37.5 -1t-35.5 -1t-43.5 -1q-88 -2 -186 -6t-187 -4q-33 0 -70.5 4t-70.5 18.5t-54.5 40t-21.5 68.5z" />
<glyph unicode="3" horiz-adv-x="966" d="M14 227q0 37 23.5 56.5t50.5 19.5q66 0 95.5 -25.5t54.5 -66.5q14 -23 17 -37t30 -35q14 -10 39.5 -17t54.5 -12.5t55.5 -7.5t44.5 -2q41 0 89 7.5t91 27t72 53t29 84.5q0 55 -35 94.5t-88 63t-116.5 33.5t-121.5 10q-49 0 -78.5 -4t-46.5 -10q-12 12 -14 38.5t-2 45.5v6 q0 6 2 26.5t6 42t9.5 39t13.5 17.5l28 -2q55 0 134 26.5t151 71.5t122 104.5t50 122.5q0 49 -19.5 80t-50 48.5t-68.5 23.5t-77 6q-59 0 -101 -11t-72 -34t-49.5 -57.5t-33.5 -83.5q-6 -18 -15 -40t-20 -38q-6 -8 -22.5 -21.5t-36 -26t-36.5 -21.5t-28 -9q-18 0 -34.5 20.5 t-28.5 47t-19.5 55.5t-7.5 43q0 57 46 114.5t117 103.5t155 74.5t159 28.5q111 0 198 -46t144 -140q14 -25 26.5 -43t21 -35.5t12.5 -38t4 -51.5q0 -61 -23.5 -114.5t-61.5 -97.5t-86 -80t-99 -64q49 -14 96 -37t84 -54.5t60.5 -75.5t23.5 -99q0 -100 -39 -163t-102.5 -97.5 t-142.5 -48t-156 -13.5q-25 0 -49.5 1t-53.5 3q-45 4 -108.5 20.5t-123 45t-101.5 67.5t-42 88z" />
<glyph unicode="4" horiz-adv-x="987" d="M53 410q0 25 4 47t21 49q72 123 168 258t219 295q31 41 52.5 73.5t41 56t39.5 37t51 13.5q20 0 35.5 -11t28 -27.5t21.5 -36t18 -36.5q10 -20 26.5 -37.5t31.5 -35t26.5 -40t11.5 -57.5q-10 -47 -13.5 -135t-3.5 -192v-221l97 -7q27 0 43 -7t16 -36q0 -37 -15.5 -58 t-40 -32.5t-53 -15.5t-55.5 -8q-2 -4 -3 -13.5t-2 -39t-1 -87v-157.5q0 -16 -8 -18.5t-18 -2.5q-31 0 -62 11.5t-55.5 28t-40 36t-15.5 33.5v207h-276q-94 0 -150.5 1t-87 15t-41 49t-10.5 101zM240 455q0 -18 12 -29.5t27.5 -15.5t32 -5.5t24.5 -1.5h272q0 6 1 17.5t3 34 t4 58.5t2 93l17 305q0 66 -5 88.5t-28 22.5q-12 0 -45 -37t-73 -94t-83 -126t-78.5 -132.5t-59 -111.5t-23.5 -66z" />
<glyph unicode="5" horiz-adv-x="966" d="M16 203q0 43 27 64.5t61 21.5q25 0 45.5 -13.5t41 -33t39 -42t36.5 -40.5q47 -45 93.5 -54.5t89.5 -9.5q57 0 113 28t101.5 72t73 99t27.5 111q0 74 -45 109.5t-103 35.5q-27 0 -67.5 -6t-78.5 -20.5t-64.5 -40t-26.5 -64.5q0 -4 -8.5 -4h-16.5q-49 0 -66.5 4t-37.5 8 q-18 4 -47 25.5t-29 66.5q2 94 6 167t7 137.5t5.5 129t2.5 142.5q0 25 -14.5 57.5t-37.5 67.5q39 8 95.5 13t121 7t133 3t132.5 1q59 0 104 -4t75 -16.5t44 -35t14 -61.5q0 -4 -1 -27.5t-3 -27.5q-4 2 -46 4t-99 2q-43 0 -88 -1t-86 -4t-74 -8t-51 -11q-6 -2 -10.5 -23.5 t-6.5 -53.5t-3 -72t-1 -77v-53.5t1 -59t3 -48t4 -19.5q27 6 52 13q23 4 44 9t35 5q35 2 44.5 2h13.5q72 0 138.5 -35t117.5 -85t81.5 -108.5t30.5 -107.5q0 -37 -10 -71.5t-26 -67.5q-31 -61 -82.5 -102.5t-114.5 -67t-135 -35.5t-141 -10q-61 0 -136 11t-141 35.5 t-111 65.5t-45 103z" />
<glyph unicode="6" horiz-adv-x="966" d="M100 522q0 86 14.5 183.5t44 190.5t75 178t108.5 149q35 35 76 62.5t92 27.5q33 0 74 -17.5t71 -27.5q72 -23 122 -50.5t81 -66.5t45.5 -93t14.5 -132q0 -29 -7 -60q-8 -20 -28.5 -35.5t-53.5 -15.5q-43 0 -78.5 50t-35.5 124v33q0 31 -8.5 59.5t-25.5 51t-42 37 t-55 14.5q-70 0 -121 -60.5t-83 -146.5t-47.5 -180.5t-15.5 -161.5q55 29 125 49.5t129 20.5q53 0 89 -9.5t64 -26t50.5 -40t46.5 -51.5q16 -20 38 -38t40.5 -40.5t30.5 -55.5t12 -84q0 -43 -13.5 -95t-38 -101t-58 -90t-74.5 -62q-53 -25 -114.5 -36t-119.5 -11 q-16 0 -30.5 1t-30.5 1q-66 0 -122 32t-100 82t-75 110.5t-45 117.5q-12 53 -16.5 106.5t-4.5 106.5zM309 371q0 -27 9.5 -73t34 -89t69.5 -75t117 -32q53 0 95 28t70.5 73t45 99.5t16.5 105.5q0 82 -50 128t-149 46q-72 0 -144.5 -39t-109.5 -101q-4 -4 -4 -17v-30v-24z " />
<glyph unicode="7" horiz-adv-x="870" d="M-90 1511q6 0 6 -8q-4 0 -2 -1t-2 -5q0 2 -1 5t-1 9zM20 1200q4 4 20.5 10.5t63.5 10.5q37 2 96.5 5t129 6t144.5 5t140 2q20 0 50 -25.5t58 -62.5t47 -79t19 -73q-47 -123 -88 -235.5t-75 -216.5q-31 -88 -60.5 -177t-52.5 -166t-37 -134.5t-14 -85.5q0 -20 6 -28.5 t6 -12.5q0 -23 -19.5 -27t-21.5 -4q-12 0 -38.5 6t-53.5 18.5t-47.5 29t-20.5 36.5q0 4 1 6t1 4l275 1000q0 29 -41 37t-92 12l-303 24q-16 0 -31.5 13.5t-28 32t-21.5 38t-12 31.5z" />
<glyph unicode="8" horiz-adv-x="995" d="M51 932q0 74 51.5 136t126 106.5t157.5 70t146 25.5q74 0 151 -34t138.5 -86t101.5 -115t40 -122q0 -80 -30 -141t-70 -107.5t-80 -78t-62 -56.5q20 -18 55 -55t69 -79t59.5 -83t25.5 -67q0 -74 -45 -126t-107.5 -84t-128 -47.5t-106.5 -15.5q-27 0 -45.5 3.5t-40 6.5 t-49 6t-72.5 3q-145 0 -207.5 73.5t-62.5 186.5q0 47 24.5 90t58 80t71.5 68.5t65 58.5q-104 94 -169 194.5t-65 188.5zM231 893q0 -35 28 -81t69 -88t87 -70.5t81 -28.5q57 0 109 36.5t93 91t65.5 118t24.5 114.5q0 72 -50 104.5t-111 32.5q-43 0 -110.5 -16t-131 -46 t-109 -72t-45.5 -95zM242 221q0 -35 26.5 -59.5t69.5 -40t96 -22.5t105 -7q29 0 65.5 3t69.5 14.5t56.5 34t23.5 61.5q0 41 -24.5 85t-61.5 83t-81 63.5t-83 24.5q-41 0 -87 -20.5t-85 -54.5t-64.5 -77t-25.5 -88z" />
<glyph unicode="9" horiz-adv-x="966" d="M55 756q0 74 17.5 156.5t55.5 154.5t99.5 119t149.5 47q45 0 84 -18.5t82 -28.5q59 -14 125.5 -24.5t119.5 -51.5q35 -25 57.5 -85t35 -132t17.5 -140.5t5 -109.5q0 -141 -14.5 -264t-60.5 -214t-132 -142.5t-231 -51.5q-39 0 -100.5 10.5t-120 35t-100.5 64.5t-42 97 q0 41 25 63.5t63 22.5q49 0 71 -28.5t41.5 -63.5t53 -63.5t107.5 -28.5q133 0 183 80t50 233v10q0 12 -4 13q-53 -33 -110.5 -66t-116.5 -33h-37q-35 0 -59.5 9.5t-43 20.5t-35 23.5t-34.5 18.5q-37 14 -74 34.5t-64.5 59.5t-45 104.5t-17.5 168.5zM195 -262l2 -6h-2v6z M254 758q0 -57 10 -115.5t32.5 -104.5t57.5 -75t84 -29h13q41 0 71.5 24.5t59 53.5t56.5 53.5t58 24.5l2 45q0 88 -5 173t-27.5 151.5t-68.5 107.5t-128 41q-98 0 -156.5 -93t-58.5 -243v-14z" />
<glyph unicode=":" horiz-adv-x="415" d="M63 719q0 18 21.5 33.5t53.5 27t68 16.5t62 5q12 0 35 -9.5t45.5 -22.5t40 -30.5t19.5 -33.5q-2 -14 -24 -31t-51.5 -30t-61 -22.5t-54.5 -9.5q-18 4 -45 8.5t-51.5 13.5t-41 28.5t-16.5 56.5zM68 78q0 20 21.5 37.5t50 31t59 20.5t51.5 7q49 0 92 -25.5t72 -60.5 q2 0 2 -7v-9q0 -14 -25.5 -28.5t-58.5 -26t-66 -18.5t-45 -7q-14 0 -40.5 6t-51.5 16.5t-43 26.5t-18 37z" />
<glyph unicode=";" horiz-adv-x="413" d="M61 692q0 23 20.5 43.5t49.5 35.5t59.5 25.5t51.5 10.5q41 0 73.5 -18.5t65.5 -40.5q16 -10 16 -24.5t17 -16.5v-13q0 -14 -23.5 -30.5t-54.5 -29.5t-61.5 -22.5t-47.5 -9.5q-10 0 -36.5 5t-54 13.5t-48 19.5t-20.5 22q0 4 1 6t1 6t-4.5 9t-4.5 9zM76 68q0 57 52 86.5 t114 29.5q57 0 105 -31.5t48 -103.5q0 -4 -5 -20.5t-7 -20.5q-10 -35 -32.5 -59.5t-51.5 -39.5t-62.5 -21.5t-66.5 -6.5q-12 0 -24.5 2t-20.5 13q2 14 20 14q8 0 15.5 -2t17.5 -2q29 0 56.5 16.5t27.5 46.5q0 14 -12 25l-37 2q-16 0 -39.5 4t-45.5 11t-37 21.5t-15 35.5z " />
<glyph unicode="&#x3e;" horiz-adv-x="1024" />
<glyph unicode="?" horiz-adv-x="1013" d="M82 922q0 88 55.5 167.5t137 141t176 97.5t174.5 36q68 0 131 -39t112.5 -95t80 -120t34.5 -115q2 -12 2 -23v-24q0 -70 -22.5 -121t-58.5 -92t-81 -73.5t-90 -67.5t-85 -74t-66 -90q-14 -31 -14.5 -61.5t-6.5 -54t-29.5 -38t-85.5 -14.5q-8 0 -23 1t-29.5 4t-27 9.5 t-16.5 16.5q10 14 15.5 39.5t8.5 54.5t7 57.5t12 49.5q20 53 60.5 102t87.5 94t96 89t90 89t66.5 92.5t25.5 98.5q0 80 -49 121t-121 41q-100 0 -155.5 -33t-85 -83t-44 -107.5t-33 -107.5t-50 -83t-95.5 -33q-29 0 -49 14.5t-32.5 36t-17.5 47t-5 50.5zM291 41 q0 12 12 28.5t30.5 31t37 24.5t30.5 10q4 0 6.5 -2t6.5 -2q18 0 35.5 8t37.5 8q43 0 89.5 -27.5t66.5 -68.5l2 -4q0 -14 -13.5 -33.5t-32.5 -36t-39.5 -28.5t-35.5 -12q-14 0 -27.5 -1.5t-25.5 -1.5q-25 0 -56.5 8.5t-59 23t-46 33.5t-18.5 42z" />
<glyph unicode="@" horiz-adv-x="1601" d="M96 387q0 190 67.5 335.5t174 245t238 149.5t255.5 50q123 0 245 -34.5t218.5 -109.5t156.5 -195.5t60 -292.5q0 -80 -15 -169.5t-52 -164t-99.5 -123.5t-158.5 -49q-94 0 -146.5 51t-56.5 129q-14 -33 -34.5 -74t-49.5 -75.5t-66.5 -58.5t-87.5 -24q-12 0 -22 5.5 t-20.5 10.5t-22.5 10t-31 5q-53 0 -87 26.5t-54.5 68.5t-27.5 92.5t-7 97.5q0 33 6 89t21.5 120.5t39 132t58.5 122t82 89.5t108 35q47 0 68 -10.5t36 -22.5t35.5 -22.5t69.5 -10.5q37 -14 58.5 -36.5t34 -49.5t15.5 -55.5t3 -55.5q0 -16 -1 -32.5t-1 -32.5q0 -6 10 -8 t23.5 -5t24 -12.5t10.5 -31.5v-11q-29 -51 -40.5 -94t-11.5 -106q0 -27 4 -57.5t15.5 -55.5t30 -41t47.5 -16q41 0 74.5 29.5t57 83t37 128t13.5 162.5q0 96 -27.5 193.5t-92 175.5t-171 128t-264.5 50q-125 0 -218 -36t-161 -94t-112 -132t-70.5 -147.5t-36.5 -142.5 t-10 -118q0 -82 24.5 -182t85 -188t164.5 -147.5t264 -59.5q115 0 186.5 16t115.5 39t66.5 44.5t37.5 31.5q14 -6 22 -12.5t8 -20.5q0 -20 -24.5 -52t-81.5 -61.5t-150.5 -51t-232.5 -21.5q-92 0 -201.5 36.5t-204 115.5t-158 204t-63.5 301zM625 307q0 -31 3 -72.5 t12 -78.5t26.5 -62.5t46.5 -25.5q51 0 88 43t62.5 106.5t41 137t23.5 134.5q4 31 22.5 41.5t18.5 14.5l2 16q0 23 -4 56.5t-18.5 65.5t-38 54.5t-64.5 22.5q-70 0 -113 -54.5t-67.5 -129t-32.5 -150.5t-8 -119z" />
<glyph unicode="A" horiz-adv-x="1005" d="M-205 113q0 25 16.5 44t41.5 19q41 0 53 -27.5t23 -61.5t37 -61.5t93 -27.5q49 0 91.5 24.5t77 63.5t60 86t42.5 92q18 53 24 73.5t11 31.5q0 4 -7 4q-53 -6 -91 -9.5t-70 -3.5q-43 0 -72 5.5t-29 37.5q0 18 17.5 29.5t50.5 17.5t77 8.5t99 6.5q23 2 39 3t18 7 q18 57 35 116.5t33 119.5q27 104 47 228t20 243q0 20 -1 33.5t-1 19.5q10 4 26.5 4t33.5 4q16 4 39.5 13.5t54.5 9.5q10 0 33.5 -5.5t48.5 -14.5t44 -20.5t19 -23.5v-325q0 -162 16.5 -312.5t39 -268.5t48.5 -193t46 -85q-12 -12 -51 -30.5t-107 -18.5q-45 0 -74.5 20.5 t-29.5 96.5q-4 82 -10.5 154.5t-14.5 146.5q-53 -2 -116.5 -2t-110.5 -4q-25 -90 -59.5 -172t-87 -145.5t-125 -100.5t-173.5 -37q-39 0 -78.5 9.5t-72.5 31t-53.5 57t-20.5 89.5zM487 471h193q-4 45 -11 106.5t-17.5 125t-20.5 123t-21 98.5q-6 -16 -17 -55.5t-25.5 -88.5 t-28 -102t-25.5 -98t-19.5 -75t-7.5 -34z" />
<glyph unicode="B" horiz-adv-x="1116" d="M-205 809q0 80 47 145.5t123 115.5t173.5 86t199.5 59.5t199.5 35t173.5 11.5h16q92 -2 173 -36t134 -102q4 -4 5 -6t3 -4q27 -31 41.5 -48t21.5 -32.5t9 -31.5t2 -41q0 -57 -31.5 -126t-84 -132.5t-118 -115.5t-130.5 -77q55 -16 103 -40t95 -62q12 -10 27.5 -38 t29 -59.5t21.5 -62.5t8 -49q0 -57 -48 -101.5t-109.5 -72t-120 -42t-80.5 -14.5h-133q-20 0 -62.5 17.5t-86.5 41t-78.5 46t-43.5 32.5q6 12 10.5 54.5t6.5 105t3 139t1 156.5t-1 144.5t-1 121t-1 108.5t-1 107q0 49 9 67.5t7 18.5q-33 0 -100.5 -24.5t-134 -61 t-116.5 -80.5t-50 -83q0 -47 10 -78t10 -35q0 -35 -14 -58.5t-45 -23.5q-25 0 -39 17.5t-21.5 39t-9.5 42t-2 26.5zM434 1151q4 -6 11.5 -12t13.5 -19.5t10 -39t4 -70.5v-404q0 -16 9.5 -21t66.5 -5q51 0 121.5 35.5t134 95t108.5 135t45 155.5q0 90 -88 122t-258 32h-67 h-54.5t-56.5 -4zM473 233q0 -20 4 -45.5t16.5 -49t34 -40t56.5 -16.5l41 4q23 0 62.5 11.5t79.5 34t69.5 56t29.5 76.5q0 31 -30.5 66t-71.5 65.5t-80 50t-57 19.5q-47 0 -92.5 -6t-49.5 -10q-2 -2 -4 -22.5t-4 -52.5t-3 -69t-1 -72z" />
<glyph unicode="C" horiz-adv-x="901" d="M53 543q0 154 28 287t75 232t111.5 156.5t138.5 57.5h43q37 0 62.5 -10.5t49 -25.5t48 -32.5t61.5 -33.5q61 -27 81.5 -97.5t20.5 -150.5q0 -29 -1 -59.5t-11 -56.5t-32.5 -44t-65.5 -23q-59 0 -82 41t-23 88q0 27 4 65t4 77q0 51 -15 90t-63 39q-76 0 -124 -54.5 t-75.5 -138.5t-38.5 -186t-11 -199q0 -98 5 -181t25.5 -148.5t59.5 -113.5t108 -79q29 -12 64 -12q51 0 97 23.5t81 62.5t55.5 89t20.5 103t19.5 94t64.5 41q33 0 43 -20.5t11 -46.5q0 -47 -11 -78q-14 -55 -46 -114.5t-79 -112.5q-70 -80 -154 -106.5t-151 -26.5 q-203 0 -300.5 155.5t-97.5 448.5z" />
<glyph unicode="D" horiz-adv-x="1263" d="M-205 872q0 98 72 179.5t187.5 139.5t258 90t283.5 32q86 0 172 -15.5t163 -51.5t138 -92t98 -138q33 -66 45.5 -140.5t12.5 -152.5q0 -123 -29 -248q-18 -90 -65.5 -184t-113 -170t-145 -124t-165.5 -48h-5q-53 0 -104 25.5t-121 54.5q-8 4 -31.5 9t-49 15t-47 27.5 t-27.5 46.5v737q0 59 -6.5 110.5t-30.5 74.5h18q45 0 93 14t79 14q20 0 31.5 -9t11.5 -34v-891q39 -12 58.5 -23t33 -19.5t25.5 -13.5t37 -5q96 0 164.5 53t113.5 143.5t66.5 208t21.5 244.5q0 100 -23.5 186.5t-79.5 151t-151.5 102t-240.5 39.5h-15q-289 0 -429 -79.5 t-140 -215.5q0 -27 9 -45t19.5 -36.5t20.5 -39t12 -51.5q-2 -4 -15 -24.5t-21 -22.5q-4 -2 -19 -2q-23 0 -52.5 13.5t-56 37t-44 56.5t-17.5 71z" />
<glyph unicode="E" horiz-adv-x="1046" d="M0 354q18 63 57 100.5t85 61t96.5 37.5t89.5 33q-66 29 -119 76t-90 100t-57.5 105.5t-20.5 90.5q0 80 60.5 138.5t147.5 97.5t184 58.5t171 19.5h84h10q10 0 31 -1t42.5 -2t38.5 -4t19 -8q18 -18 41 -41.5t43.5 -51t36 -57.5t17.5 -58q0 -25 -6.5 -46.5t-24.5 -41.5 q-10 33 -32.5 54t-52.5 33.5t-60.5 17.5t-57.5 5h-129q-37 0 -103.5 -6t-132 -25.5t-113.5 -55.5t-48 -95q0 -66 33.5 -114t96 -79.5t149.5 -47t192 -15.5q4 0 25.5 5t25.5 15q23 -14 43.5 -59t20.5 -84q0 -16 -2.5 -32.5t-12.5 -26.5q-66 2 -101.5 3t-76.5 1 q-45 0 -100.5 -3t-108.5 -17.5t-100 -45.5t-78 -84q-10 -16 -12 -29.5t-2 -29.5q6 -61 46 -96t92 -53.5t107.5 -22.5t92.5 -4q33 0 68.5 1t68.5 7t59.5 17t42.5 32q55 63 89 89t69 26q41 0 61.5 -15.5t20.5 -36.5q0 -16 -3 -28t-20 -29q-51 -57 -117.5 -91t-137 -52.5 t-140.5 -23.5t-129 -5q-33 0 -78 2t-92 16.5t-93 43t-83 81.5q-20 29 -42 64t-40 68.5t-29.5 65.5t-11.5 52z" />
<glyph unicode="F" horiz-adv-x="942" d="M-92 1016q0 61 24.5 101t109.5 63.5t250 31.5t445 9q61 0 93 6t42 6t32 -31t57 -102q0 -10 -25 -15.5t-53 -25.5q-45 -31 -72 -94.5t-40 -142.5t-16 -163t-3 -157q0 -4 36.5 -5t83 -6.5t89.5 -17.5t53 -37q2 -4 2 -9v-7q0 -18 -35 -28.5t-79 -16.5t-88 -9.5t-62 -7.5 q-14 -121 -29.5 -200.5t-56.5 -126.5t-118 -66.5t-216 -19.5q-51 0 -107.5 18.5t-103.5 54t-79 89t-32 122.5q0 33 13.5 49.5t33.5 16.5q55 0 79 -43t30 -86q4 -29 17.5 -57.5t37 -51t58 -36t83.5 -13.5q53 0 89 38t57.5 90t30 106.5t8.5 87.5v20t-2 21q0 4 -31 10t-67.5 11 t-68.5 8t-36 3q-35 -2 -44 -10t-22 -8q-14 0 -14 18q0 55 46 77t108 22h149q6 0 7 31.5t3.5 82t6.5 111.5t14 122.5t28.5 116t49.5 87.5q-43 8 -110.5 18t-146.5 18.5t-161 14.5t-154 6q-12 0 -33.5 -2t-41 -11.5t-33.5 -26.5t-14 -50q0 -39 34.5 -72t76.5 -67.5t77 -76.5 t35 -104q0 -23 -11.5 -45t-39.5 -22q-33 0 -75 41t-80 100.5t-63.5 125t-25.5 116.5z" />
<glyph unicode="G" horiz-adv-x="995" d="M117 612v33t2 33q8 137 51 247.5t104.5 188.5t134 120t140.5 42h22q43 0 73 -12.5t55.5 -28.5t50 -34.5t57.5 -31.5q27 -8 42 -25.5t23.5 -41t11.5 -49t3 -47.5v-23q-2 -37 -8.5 -69.5t-19.5 -58.5t-36.5 -41t-60.5 -15q-35 0 -55.5 19.5t-20.5 47.5q0 4 2 20.5t5 40 t5 49t2 50.5q0 70 -29.5 96.5t-76.5 26.5q-70 0 -123 -40t-88 -111.5t-53.5 -173t-18.5 -222.5q0 -287 187 -350q14 -4 30.5 -8t32.5 -4q51 0 84 20.5t51.5 51t25.5 67.5t7 70q0 88 26.5 125.5t88.5 37.5q16 0 32.5 -5t30.5 -11q8 -4 16.5 -8t16.5 -8q-14 -25 -24.5 -46.5 t-18.5 -48t-12 -59.5t-4 -76q0 -37 7 -68.5t16 -64.5t16.5 -67.5t7.5 -77.5q0 -63 -21.5 -126t-71 -112t-132 -79.5t-205.5 -30.5q-49 0 -104.5 8t-100.5 27.5t-75 52t-30 84.5q0 39 22.5 64.5t63.5 25.5q27 0 58 -13q0 -86 50 -118.5t118 -32.5q92 0 144 29.5t80 72.5 t35 93.5t7 88.5v138q-66 -68 -128.5 -90.5t-125.5 -22.5q-92 0 -166 35t-125 98.5t-77.5 152.5t-26.5 195z" />
<glyph unicode="H" horiz-adv-x="1171" d="M-57 510q0 29 21.5 51.5t51 41t62.5 30.5t55 18v174v130.5t2 96.5t4 76.5t6 69.5l-8 62q0 23 18.5 24.5t34.5 1.5q29 0 61 -8t59.5 -25.5t47 -43t21.5 -60.5q-35 0 -43 -27.5t-8 -58.5v-385q2 -4 2 -8t4 -4q106 -4 230 -41t267 -140v701q0 23 -6 47t-28 35q0 29 19.5 34 t47.5 5q29 0 58.5 -3.5t56.5 -14.5t43 -29.5t16 -49.5q0 -16 -10 -43v-727q16 -12 43 -12q12 0 24.5 8t18.5 8q4 0 4 -2q12 -8 12 -22q0 -25 -28.5 -48.5t-73.5 -29.5v-307q0 -12 4 -18.5t8 -10.5t8.5 -10t4.5 -16v-11q-8 -16 -31 -22t-45 -6q-45 0 -70.5 27.5t-40 68.5 t-20.5 89t-11.5 89t-12.5 68.5t-25 27.5h-283q-37 0 -90 2t-96 6v-301q0 -29 12 -42t12 -33q0 -10 -22.5 -14.5t-34.5 -4.5q-55 0 -110.5 31t-67.5 84q0 35 8 90t8 111v114q-33 6 -66.5 19.5t-61.5 33t-45 45t-17 58.5zM29 479q0 -12 11 -22.5t28.5 -17.5t35 -10t29.5 -3 v119q-8 0 -26.5 -6.5t-35 -15.5t-29.5 -20t-13 -24zM328 393q80 -12 170 -12q59 0 130 4t124 14q-43 45 -96.5 74t-111 46.5t-112.5 25.5t-102 12q-2 -55 -2 -88v-76z" />
<glyph unicode="I" horiz-adv-x="901" d="M-72 250q0 45 11.5 87t33 73.5t52 51t69.5 19.5q37 0 47.5 -19.5t10.5 -39.5q0 -45 -18.5 -75t-40 -52.5t-40 -45t-18.5 -54.5q0 -98 65.5 -141.5t163.5 -43.5q86 0 149.5 35t105.5 88t62.5 115.5t20.5 118.5l-31 -2q-74 0 -128 33.5t-90 85t-53 110.5t-17 111v71 q0 39 10 91.5t28.5 108.5t45 110.5t57.5 97.5t65.5 69.5t71.5 26.5q14 0 33 -6l143 -10q14 -2 27.5 -10.5t13.5 -28.5q-2 -2 -5 -10.5t-3 -28.5q0 -29 8 -56v-677q0 -104 -20.5 -200.5t-70.5 -171.5t-137 -119t-222 -44h-27q-117 0 -189.5 32t-113.5 81t-55.5 107.5 t-14.5 111.5zM408 791q0 -27 4 -77t19 -99.5t43 -86t75 -36.5q4 0 23.5 2t29.5 6v479q4 16 8 30.5t4 32.5q0 27 -13 48.5t-48 21.5q-45 0 -73.5 -37t-44 -88t-21.5 -106.5t-6 -89.5z" />
<glyph unicode="J" horiz-adv-x="772" d="M-186 -408q0 41 20.5 98.5t50 116t61 109.5t54.5 82q74 100 124 156.5t88 92.5t70.5 60.5t71.5 61.5q0 6 -26.5 29.5t-58 76.5t-58.5 141.5t-27 221.5q0 86 19.5 166.5t54.5 143t82 99.5t102 37l148 10q23 0 33 -15t10 -38l-6 -76q0 -55 9 -111.5t9 -84.5v-520 q78 -20 86 -68v-12q0 -29 -25.5 -43.5t-58.5 -14.5q-4 -141 -26.5 -281.5t-63.5 -281.5q-18 -63 -55 -153.5t-93.5 -174.5t-133 -143t-175.5 -59q-18 0 -45.5 6t-46.5 22q-37 33 -71.5 76t-62.5 89t-44 93t-16 88zM-27 -434q0 -63 33 -109.5t105 -46.5q61 0 110 57.5 t87 143.5t64.5 189.5t44 194.5t26 157.5t8.5 80.5v5q0 8 -2.5 14t-14.5 6q-33 0 -80 -36t-98 -95t-102.5 -134t-91 -152t-64.5 -149.5t-25 -125.5zM303 825q0 -94 14.5 -167.5t36 -126t45 -80t43.5 -27.5q10 0 11 14v529l6 94v11q0 38 -27 38q-20 0 -42.5 -14.5t-42 -47 t-32 -88t-12.5 -135.5z" />
<glyph unicode="K" horiz-adv-x="841" d="M72 -27v1121q0 37 1 72.5t8 63t21.5 45t40.5 17.5q16 0 43 -9t51.5 -22.5t42 -27.5t17.5 -25q0 -4 -5 -7t-11.5 -11t-11.5 -22.5t-5 -43.5v-458q59 53 181 185t284 318q16 16 29.5 39t27 43.5t28.5 34.5t36 14q14 0 38.5 -8t48.5 -22.5t41 -32.5t17 -39q0 -16 -8 -24 q-18 8 -31 8q-23 0 -61.5 -26t-82.5 -63.5t-91 -83.5t-86 -87t-67.5 -72t-37.5 -39q-23 -25 -53.5 -60.5t-58 -69.5t-47 -58.5t-19.5 -26.5h2q4 0 21.5 2t42.5 2q33 0 72.5 -7t77.5 -29.5t68 -65.5t42 -117q10 -63 20.5 -144t22.5 -152t29.5 -120t42.5 -49q4 0 18 10.5 t27 10.5q16 0 18 -27q0 -29 -6 -47.5t-43 -18.5q-98 0 -156.5 27t-90.5 80t-42 133t-12 186q0 41 -4 84t-18.5 77t-41 55.5t-73.5 21.5q-72 0 -88.5 -29.5t-16.5 -83.5q0 -121 1 -194.5t4 -117.5t10.5 -66.5t21.5 -41.5l-2 -2q-8 -4 -42 -19t-81 -15q-25 0 -56.5 7t-47.5 27 z" />
<glyph unicode="L" horiz-adv-x="1052" d="M-74 -45q0 55 41 87t93.5 48t103.5 20.5t72 4.5q43 0 82.5 -4.5t50.5 -4.5q6 0 6 3q4 20 5 46.5t1 55.5v57q0 16 -2 25q-20 0 -71.5 7t-104.5 27.5t-94 57.5t-41 96q0 8 4 25.5t12 17.5q4 0 29.5 -20.5t60.5 -32.5q55 -20 110.5 -25.5t84.5 -5.5q14 0 14 21v389 q0 53 2 110.5t14.5 113.5t38 110.5t72.5 101.5q12 10 25.5 12t23.5 2h12q27 0 43.5 -4t34 -11t39 -14t57.5 -14q70 -10 117 -42.5t77 -85t42 -122t12 -153.5q0 -88 -27.5 -178t-82 -166t-135 -132t-187.5 -79v-84v-59v-43.5t-4 -38.5q115 -35 193.5 -72t134 -67.5t92.5 -50 t67 -19.5q20 10 34 28.5t24 36.5q22 -10 22 -59q0 -22 -12 -32.5t-27.5 -15.5t-32 -6t-26.5 -1q-72 0 -147.5 17t-143 40t-122 42t-85.5 24q-4 0 -21.5 -26t-51.5 -48q-47 -29 -110.5 -38t-123.5 -9q-29 0 -79 7t-98 23.5t-83 43t-35 63.5zM4 -33q0 -23 19.5 -36t48 -22 t61.5 -12t60 -3q18 0 42.5 4t47 14t41 27.5t26.5 42.5q-31 12 -90 25t-117 13q-2 0 -24.5 -2t-48 -8t-46 -16t-20.5 -27zM563 451q86 18 140.5 70t86 120t44 138.5t12.5 125.5q0 16 -4 61.5t-20.5 92.5t-47.5 83t-84 36q-47 0 -72.5 -38t-38 -86t-14.5 -94.5t-2 -64.5v-444z " />
<glyph unicode="M" horiz-adv-x="1542" d="M-92 717q0 76 21.5 174t71.5 185t130 147.5t197 60.5q35 0 64.5 -17.5t54 -45t42 -60.5t25.5 -61q23 -63 34 -156.5t16 -195t6 -204t3 -188.5q10 51 21.5 96.5t24 92.5t25.5 100t30 121q16 74 37.5 158t44.5 151q4 18 30.5 22.5t34.5 4.5q16 0 42 -11.5t49.5 -27.5 t41 -37.5t16.5 -42.5v-350q0 -39 1.5 -96.5t2.5 -109.5t4 -89t7 -37q12 0 29.5 72.5t40 181.5t49 234.5t57.5 234.5t66 181.5t71 72.5q23 0 49.5 -26.5t49 -60.5t37 -67.5t14.5 -46.5q0 -8 -10.5 -42t-21.5 -111.5t-21.5 -209.5t-10.5 -335q0 -41 7 -98.5t21.5 -109.5 t38.5 -89t56 -37q16 0 28.5 7t25.5 30q4 -4 4 -14q0 -59 -42 -81t-102 -22q-59 0 -99 42t-63.5 135.5t-34 244t-10.5 365.5q0 8 -6 10q-2 -2 -14 -44t-27.5 -105.5t-34 -142.5t-33 -153.5t-24.5 -140t-10 -102.5q0 -16 7 -24.5t7 -12.5q0 -10 -11 -18.5t-26.5 -14.5t-29 -9 t-19.5 -3q-16 0 -41.5 6t-51.5 19.5t-49.5 34t-35.5 50.5q-8 23 -13 72t-7 108.5t-3 125t-1 120.5q0 68 -2.5 119t-12.5 51q-4 0 -12 -19.5t-17.5 -44t-16.5 -48t-9 -33.5q-43 -168 -57.5 -292t-14.5 -228q0 -20 1 -28.5t3 -11.5t4 -5t5 -13q-18 -10 -53.5 -14t-69.5 -4 q-4 0 -25.5 3t-45.5 11.5t-43 20.5t-19 31q0 16 1 63t2 111.5t2 141.5t2 154.5t2 150.5t1 126q0 16 -1 50t-5 78t-13.5 90t-25 84t-39 62.5t-58.5 24.5q-68 0 -119 -52t-83.5 -127t-49 -157t-16.5 -141q0 -18 3 -57t14.5 -77t35 -67.5t62.5 -29.5q4 0 24.5 2t26.5 2t19.5 -2 t27.5 -6.5t25.5 -13.5t11.5 -25q0 -18 -12.5 -29.5t-29.5 -18t-32.5 -8.5t-21.5 -2q-82 0 -131 41t-76 98.5t-36 120t-9 107.5z" />
<glyph unicode="N" horiz-adv-x="1161" d="M-92 739q0 98 25.5 198.5t73.5 183.5t115.5 135.5t149.5 52.5q41 0 80 -21.5t73 -56.5t60.5 -77t44.5 -85q16 -35 26.5 -83t17 -100t9.5 -105.5t5 -96.5q2 -27 4 -70t3 -91t1 -96v-87q12 45 42 142.5t63.5 214t65.5 235.5t50 205q8 33 29.5 39t36.5 6q37 0 74.5 -27 t68.5 -62.5t50.5 -71.5t19.5 -54q-20 -10 -34.5 -64.5t-24 -140.5t-14.5 -197.5t-5 -234.5q0 -39 2 -92.5t13 -100.5t36 -79.5t70 -32.5q4 0 10 3t18 5q4 -13 4 -15q0 -18 -9 -30.5t-22.5 -19.5t-28.5 -11t-26 -4q-88 0 -136 49t-71.5 122t-28.5 157t-5 153q0 20 2 72.5 t3 109t3 101.5t2 53q0 27 -10 27q-12 -18 -31.5 -69.5t-42 -121t-46.5 -149.5t-42 -156t-29.5 -139.5t-11.5 -102.5q0 -20 9 -36.5t9 -20.5q2 -6 -9 -10t-25 -8q-16 -4 -35 -4h-15q-41 0 -64.5 8t-49.5 28q-35 29 -51.5 62t-16.5 86q0 35 3 98.5t8.5 135t8.5 141t3 116.5 q0 152 -8.5 256.5t-27 169t-46 94t-64.5 29.5q-74 0 -123 -50t-78.5 -121.5t-42 -152.5t-12.5 -143q0 -14 2 -55t11.5 -84t29 -76t52.5 -33l36 3q8 0 26.5 -3.5t37 -11.5t33 -21.5t14.5 -33.5q0 -12 -13.5 -19.5t-29.5 -11.5t-31.5 -6t-19.5 -2q-66 0 -114 28.5t-78.5 78 t-46 114t-15.5 135.5z" />
<glyph unicode="O" horiz-adv-x="1097" d="M53 545q0 57 7.5 125.5t29 143.5t58 151.5t98.5 146.5q35 74 91 111t126 37q23 0 42 -6.5t43.5 -14.5t56.5 -15t77 -12q92 -6 159.5 -69.5t112.5 -158.5t67.5 -209.5t22.5 -227.5q0 -129 -32.5 -234.5t-96 -181.5t-156.5 -117t-214 -41q-127 0 -220.5 50.5t-153.5 132.5 t-89 183t-29 206zM240 559q0 -76 11 -158t47 -151.5t102.5 -114.5t174.5 -45q102 0 163 53.5t94.5 129t44 162t10.5 149.5q0 35 -5 90t-18.5 116.5t-36 124t-57.5 112.5t-82 82t-110 32q-47 0 -79 -20.5t-51.5 -52.5t-27.5 -71t-8 -75q0 -51 18.5 -98.5t51 -82t77.5 -55 t96 -20.5q37 0 70 18t47 41q4 -23 11.5 -39t7.5 -27q0 -27 -26 -43t-58.5 -25t-64.5 -12.5t-46 -3.5q-43 0 -92 15.5t-95.5 45.5t-82 75t-52.5 104q-23 -66 -28.5 -132.5t-5.5 -123.5z" />
<glyph unicode="P" horiz-adv-x="1157" d="M-205 934q0 63 44 118.5t115 100.5t161 82t182 61.5t177 38t147 13.5q72 0 142.5 -9.5t139.5 -44.5q74 -37 114 -102.5t58.5 -131t21.5 -116.5t3 -61q0 -113 -38 -218.5t-103.5 -187.5t-152.5 -132t-185 -50q-25 0 -49.5 13.5t-51.5 29.5l-10 6q-4 -49 -9 -119.5 t-5 -156.5v-24.5t1 -19t1 -16.5v-22q0 -23 11 -45.5t11 -26.5q0 -18 -24.5 -21.5t-30.5 -3.5q-53 0 -83 16.5t-44 70t-17.5 154.5t-3.5 269q0 141 6.5 272.5t15.5 239t18.5 186.5t15.5 117q-25 -4 -65 -17t-85 -31.5t-92 -43t-85 -51.5t-61.5 -54.5t-23.5 -53.5l35 -115 q0 -16 -6 -42t-35 -26q-41 0 -70.5 15.5t-49 39t-30 50t-10.5 49.5zM420 1225q68 -16 96.5 -45t26.5 -52l-23 -579q0 -72 12.5 -106.5t69.5 -34.5q55 0 117.5 60t115 147t87 184.5t34.5 171.5q0 96 -44 150.5t-108.5 81t-136 31.5t-128.5 5q-12 0 -42 -3t-77 -11z" />
<glyph unicode="Q" horiz-adv-x="1095" d="M41 766q0 70 21.5 157t68.5 163.5t120 129t177 52.5q29 0 48.5 -5.5t39 -11.5t39.5 -13t49 -11q18 -2 43 -5t48.5 -8.5t43 -9.5t31.5 -10q72 -20 125 -65.5t90 -106.5t55.5 -135t18.5 -154q0 -154 -56.5 -267.5t-136.5 -193t-170 -130t-157 -76.5q49 -18 110.5 -49 t131 -70t143 -83t147.5 -89q92 -55 164 -83t143 -28q41 0 80 21.5t39 56.5q0 37 -13.5 49t-19.5 23q0 16 11.5 33.5t40.5 17.5t54 -26.5t25 -76.5q0 -33 -18 -70.5t-57 -70.5t-99.5 -55.5t-144.5 -22.5q-92 0 -175 28t-158 72t-143.5 98t-133 106.5t-123 96.5t-115.5 68 q-37 -12 -100.5 -28.5t-122.5 -16.5q-25 0 -50.5 4t-46 14.5t-34 29t-13.5 44.5q0 41 42 68t112 27q41 0 103.5 -11.5t125.5 -36.5l43 21q72 35 136.5 90t113.5 131t78 172t29 215q0 115 -22.5 193t-64.5 127t-99.5 70.5t-129.5 21.5q-98 0 -158.5 -43t-94 -110.5 t-46 -149.5t-12.5 -160q0 -47 10.5 -100.5t33 -97.5t59 -73.5t88.5 -29.5q35 0 61.5 14.5t43.5 37t25.5 49t8.5 51.5q0 53 -16.5 78.5t-35 40t-35 24.5t-16.5 33t14.5 42t55.5 19q18 0 43 -12t46.5 -39t36.5 -68t15 -98q0 -43 -17 -86t-50 -77t-79 -54.5t-103 -20.5 q-109 0 -179.5 40t-111.5 103.5t-57.5 144.5t-16.5 161zM162 55q0 -6 2 -8q4 -8 18.5 -14t30.5 -6q23 0 62.5 6t68.5 16q-35 12 -69.5 19.5t-53.5 7.5q-27 0 -43 -6.5t-16 -14.5z" />
<glyph unicode="R" horiz-adv-x="1140" d="M-164 903q0 37 23.5 71t57.5 63.5t72 53t66 39.5q201 109 368 150t312 41q92 0 167 -46t128 -107.5t82 -124t29 -95.5q0 -80 -34 -155.5t-88 -137t-124 -103.5t-141 -54q47 -16 95 -38t85 -73q20 -29 31.5 -76t16.5 -100t8 -106.5t9.5 -96.5t17.5 -69.5t32 -26.5 q23 0 35 9t26 32q2 -6 3 -11t1 -14q0 -43 -42 -73.5t-111 -30.5q-68 0 -108 31.5t-50 109.5q-18 145 -26.5 237.5t-23 143.5t-41 69.5t-79.5 18.5q-10 0 -31.5 -2t-21.5 -10q-4 -18 -4.5 -86t-0.5 -154v-229q0 -8 3.5 -26.5t27.5 -26.5q-12 -12 -38.5 -19.5t-54.5 -10.5 t-52.5 -3h-34.5q-20 0 -32.5 11t-19.5 37t-9.5 68t-2.5 105v147.5t2.5 185.5t7.5 203.5t13 202t22.5 180.5t34.5 138q-4 4 -10 13t-10 9h-14q-47 0 -118 -21.5t-136.5 -54t-112.5 -72.5t-47 -77q0 -8 3 -30.5t6 -46t6 -45t3 -29.5q0 -20 -4 -40t-24 -20q-35 0 -61.5 18.5 t-46 46t-30 57.5t-10.5 50zM575 614q0 -29 9.5 -37t50.5 -8q68 0 130 44t109.5 107.5t76 135.5t28.5 127q0 104 -81 157.5t-210 53.5h-19.5t-52.5 -2q-18 -2 -29.5 -25.5t-11.5 -76.5v-476z" />
<glyph unicode="S" horiz-adv-x="1009" d="M90 90q0 61 42 96t122 52q-4 -12 -17.5 -42t-13.5 -81q0 -57 37 -92t88 -53.5t105.5 -23.5t89.5 -5q23 0 62.5 8t78.5 24.5t66.5 44t27.5 66.5q0 31 -19.5 64.5t-52 69.5t-75.5 73t-92 74q-72 55 -141.5 112.5t-125 118.5t-90.5 128t-35 140q0 113 42 192t109 128 t146.5 71.5t155.5 22.5q57 0 119.5 -9t115 -26.5t86 -45.5t33.5 -64q0 -29 -19.5 -54.5t-19.5 -56.5q0 -20 -8 -32.5t-20.5 -18.5t-24.5 -8t-20 -2q-33 0 -48.5 33.5t-37 73.5t-63.5 74t-130 34q-53 0 -94 -23t-68.5 -57.5t-41 -76.5t-13.5 -83q0 -66 23.5 -120t66.5 -102 t102.5 -94.5t129.5 -97.5q59 -43 115.5 -88t100.5 -96t70.5 -109.5t26.5 -126.5q0 -76 -42 -125t-105.5 -78.5t-140.5 -41t-148 -11.5q-72 0 -152 12.5t-147.5 42t-111.5 76t-44 113.5z" />
<glyph unicode="T" horiz-adv-x="884" d="M-92 932q0 299 422 299q29 0 66.5 -2t78.5 -3t83 -3t75 -2q78 0 125 13t51 13h2q9 -1 21 -19q14 -20 28 -44q17 -29 33 -66q0 -18 -9.5 -23t-19.5 -5q-53 -2 -82.5 -37t-44 -92.5t-17.5 -133t-3 -159.5v-66q-2 -117 -14.5 -235.5t-56.5 -214t-131 -154.5t-241 -59 q-63 0 -122.5 18t-104.5 54t-71.5 86t-26.5 114q0 18 12 44t45 26t53.5 -18.5t37 -47.5t31.5 -61.5t35.5 -61.5t52.5 -47t79 -18q25 0 55.5 7t59 24.5t51 48t31.5 75.5q18 102 23 215t18.5 229.5t46 231.5t108.5 221q-23 0 -54.5 1t-62 1t-56.5 1t-38 1q-88 0 -173 11.5 t-189 11.5q-59 0 -99.5 -37t-40.5 -100q0 -37 15.5 -57.5t38 -36t49 -26.5t49.5 -28.5t38 -45t15 -73.5q0 -18 -10 -36.5t-39 -18.5q-45 0 -86 24.5t-71.5 65.5t-48 92.5t-17.5 102.5z" />
<glyph unicode="U" horiz-adv-x="1150" d="M-92 651q0 33 9 95.5t28.5 138.5t49.5 154.5t68.5 143t89 105.5t111.5 41q43 0 77 -22.5t62 -44.5q49 -37 81 -88.5t48.5 -125t22.5 -172t6 -231.5q0 -37 -3 -86t-6 -101t-6 -107.5t-3 -104.5q0 -18 1 -56t8 -76t21.5 -67t40.5 -29q14 0 26.5 13.5t23 32t17.5 37t11 28.5 q82 199 103.5 402.5t21.5 418.5q0 27 -7 51.5t-7 49.5q0 10 12 19t29.5 16.5t34 11.5t24.5 4q12 0 33.5 -7.5t45.5 -18.5t45.5 -23.5t31.5 -22.5q-18 -10 -29 -29q-8 -18 -16 -86.5t-15.5 -171t-11.5 -230.5t-4 -263q0 -16 3 -55t10.5 -78t21.5 -69t35 -30q8 0 16 13.5 t17.5 29t20.5 27.5t23 12q-2 -4 -4 -18t-2 -27q0 -8 2 -21.5t2 -17.5q0 -16 -17 -38.5t-71 -22.5q-74 0 -115.5 31.5t-63 77t-28 91.5t-8.5 74q-12 -25 -33.5 -79t-49 -109t-58.5 -97t-61 -42q-80 0 -133.5 32.5t-85 84t-45 114t-13.5 121.5q0 10 2 54t5 112.5t9.5 160 t14.5 195.5q0 4 1 24.5t1 45t1 45t1 24.5q0 25 -2 74t-12.5 98.5t-30 86t-53.5 36.5q-49 0 -97.5 -59t-86.5 -145t-61.5 -182.5t-23.5 -170.5q0 -29 4.5 -65.5t16.5 -69.5t34.5 -55.5t61.5 -22.5q27 0 41 13.5t25.5 31t20.5 30.5t26 13q20 0 31.5 -22.5t11.5 -40.5 q0 -49 -37 -66.5t-78 -17.5q-129 0 -196.5 75.5t-67.5 194.5z" />
<glyph unicode="V" horiz-adv-x="1103" d="M-59 727q0 66 16 160t55 181t104.5 148.5t164.5 61.5q80 0 138 -55.5t98 -129t61.5 -145t29.5 -106.5q20 -78 40 -170t37 -184.5t31.5 -177.5t24.5 -148q29 117 59.5 248t65.5 265t77 266t93 251q18 41 30.5 57.5t18.5 16.5q16 0 33 -11.5t29 -27t20.5 -31.5t8.5 -27v-4 q-2 -4 -17.5 -21.5t-30.5 -45.5q-18 -39 -44.5 -101.5t-55.5 -141.5t-57.5 -169t-51 -186.5t-37 -192.5t-14.5 -186q0 -66 9.5 -108t31.5 -66q-18 -14 -74.5 -21.5t-105.5 -7.5q-8 0 -40 3t-69.5 16.5t-73.5 39t-52 70.5q16 6 20 48t4 81q0 47 -6 118t-18.5 152.5t-27.5 171 t-34.5 172t-40 155.5t-41.5 122q-10 27 -33.5 50.5t-62.5 23.5q-51 0 -92 -34t-70 -91.5t-43 -131t-14 -153.5q0 -12 1 -42t9 -61.5t23.5 -56t42.5 -24.5l75 4q10 0 31 -7t43.5 -19.5t38.5 -31t16 -40.5q0 -16 -16 -28.5t-36.5 -20t-40 -11.5t-25.5 -4q-74 0 -123 34t-79 85 t-42 110.5t-12 108.5z" />
<glyph unicode="W" horiz-adv-x="1329" d="M-92 670q0 51 10 117.5t31.5 134t53.5 133t75 117t97 82t118 30.5q6 0 29.5 -7t27.5 -9q55 -23 94 -80.5t65 -135t41 -171t23.5 -186.5t10.5 -181t2 -156q0 -20 1 -38.5t1 -34.5q86 236 116.5 384t30.5 199l-4 33q4 2 11.5 5t11.5 3q14 0 39.5 -8t52 -19.5t48 -24.5 t28.5 -26q12 -18 15 -32.5t7 -46.5v-9q20 -274 53 -424.5t60 -150.5h2q14 12 21 72.5t13.5 158t13.5 227.5t19 281q16 199 28.5 290t41.5 91q16 0 40 -10t45.5 -24.5t37.5 -30t16 -27.5l-2 -6q-14 -35 -27.5 -92.5t-21.5 -106.5q-8 -59 -20.5 -162.5t-22.5 -225.5 t-18.5 -250t-8.5 -238q0 -43 3.5 -58.5t13.5 -36.5q-16 -18 -40 -27t-47.5 -13.5t-45 -5.5t-33.5 -1q-51 0 -99 32t-81 118q-18 47 -31.5 126t-25 156.5t-19.5 138t-16 70.5q-25 -51 -48.5 -138t-42 -177t-29.5 -169t-11 -114q0 -27 8 -28q-12 -12 -52 -22.5t-65 -10.5h-8 q-29 4 -54.5 15.5t-44.5 21.5q-25 14 -36 26q2 29 2 60v63v240q0 55 -1 124.5t-2 130t-2 101.5t-1 43q-4 39 -6.5 100.5t-13.5 120t-36.5 101.5t-79.5 43q-29 0 -52 -14.5t-46 -30.5q-43 -35 -74.5 -91.5t-51 -121t-29 -130t-9.5 -120.5q0 -18 3 -48t11.5 -58.5t22.5 -50 t39 -21.5l53 8q12 0 28.5 -6t32 -16.5t25.5 -22.5t10 -27q0 -10 -10 -18t-24.5 -13.5t-28.5 -7.5t-25 -2q-70 0 -115.5 27t-73.5 71t-38 101t-10 117z" />
<glyph unicode="X" horiz-adv-x="993" d="M54 95q14 28 36.5 71t55 97t71.5 116q55 84 88 133t50.5 75.5t23.5 36t6 13.5q0 2 -22.5 40t-55.5 94t-72.5 123t-72.5 128t-55.5 109.5t-22.5 66.5q0 6 8 25q6 10 17.5 24.5t23.5 27.5t25.5 23.5t23.5 12.5q27 -63 66 -139t82 -150t83 -137.5t66 -100.5q16 25 38 56.5 t43.5 62.5t43 60.5t35.5 50.5q12 16 37.5 53t59.5 75t71 66.5t70 28.5q23 0 54.5 -18.5t45.5 -34.5q-23 -4 -45.5 -33t-44.5 -61q-27 -39 -70 -105.5t-87 -137.5t-81 -132.5t-53 -89.5q18 -37 50 -93.5t69 -119t75.5 -124t72.5 -111.5t59.5 -83t35.5 -35q4 -2 15 -2 q29 0 43 25q0 -2 2 -2l4 2v-2q-2 -18 -3 -28.5t-1 -19.5t-1 -20.5t-3 -29.5q-6 -10 -20.5 -18.5t-31 -13.5t-28.5 -8t-16 -3h-11q-45 0 -84 28.5t-72.5 69.5t-62.5 88t-51 84q-23 35 -39 62.5t-31.5 54t-32 54.5t-38.5 64q-29 -43 -75 -114.5t-90 -143t-76 -128t-32 -68.5 q0 -4 5 -9.5t10 -9.5q-8 -10 -37 -10q-37 0 -69 14.5t-54.5 33t-34.5 33.5q-10 13 -10 16z" />
<glyph unicode="Y" horiz-adv-x="1105" d="M-92 664q0 63 13 141t39 157.5t62.5 156.5t85 136.5t107.5 95t127 35.5q53 0 82 -27.5t59 -62.5q12 -10 34 -27.5t32 -27.5q14 -14 23.5 -52t14.5 -81t7 -84t2 -63q0 -90 -10.5 -182.5t-23.5 -184.5t-23.5 -185.5t-10.5 -185.5q0 -18 2 -50t9.5 -63.5t21.5 -54t41 -22.5 q25 0 49.5 40t47 104.5t44 143t38 156.5t28.5 145.5t18 108.5q10 66 15.5 132.5t5.5 144.5q0 25 -2 47t-2 41q0 12 20.5 16t36.5 4q10 0 35 -4t51.5 -12t47 -17.5t20.5 -19.5q0 -37 -11 -74q-16 -123 -26 -232.5t-10 -219.5q0 -76 9 -193t9 -246q0 -88 -8 -171t-30.5 -148.5 t-61.5 -107.5t-103 -48q-41 -4 -91 -6t-91 -2q-35 0 -82 10t-89 34t-70.5 58.5t-28.5 83.5q0 10 7 27.5t21 17.5q41 0 61.5 -26.5t41 -59t52.5 -59.5t95 -27q59 0 94 30t54.5 80t25.5 114.5t6 132.5q0 66 -3 128t-3 115q0 23 1 43.5t3 36.5q-16 -57 -34.5 -128.5t-47 -135 t-70.5 -106.5t-104 -43q-57 0 -101 25.5t-72.5 68.5t-43 97t-14.5 110q0 98 10 198.5t22.5 202.5t23 205.5t10.5 210.5q0 25 -2.5 58.5t-11.5 65t-27.5 54.5t-51.5 23t-60.5 -20.5t-49.5 -43.5q-92 -94 -144.5 -226t-52.5 -280q0 -25 3 -56.5t14.5 -60t32 -49t53.5 -20.5 q18 0 30.5 11t22.5 24.5t21.5 24.5t25.5 11q23 0 39 -30.5t16 -48.5q0 -29 -14 -44.5t-34.5 -22.5t-44.5 -8t-44 -1q-18 0 -50 11t-48 22q-66 35 -93.5 87t-27.5 124z" />
<glyph unicode="Z" horiz-adv-x="798" d="M-557 1554v5h10v-5h-10zM12 135q0 4 46 67.5t116 159t152 209t151.5 218t115.5 187.5t46 116q0 16 -11.5 23t-58.5 7q-23 0 -50 -1t-68 -3l-279 -12q-68 0 -91.5 37t-27.5 100q166 16 329 23.5t329 13.5q18 0 37.5 -29.5t36 -68.5t26.5 -78t10 -57q0 -23 -11 -45.5 t-36.5 -59.5t-67.5 -95.5t-106 -154.5q-66 -100 -122 -189t-98 -160t-65.5 -118t-23.5 -65q0 -12 24.5 -16.5t57.5 -4.5q20 0 56 1t76 3t80 3t68 1q55 0 85 -21.5t30 -80.5q0 -2 -1 -19.5t-5 -17.5h-27q-35 -2 -80 -2h-115.5t-178 -1t-267.5 -5q-10 6 -24.5 23.5t-26.5 39 t-21.5 41t-9.5 31.5z" />
<glyph unicode="[" horiz-adv-x="649" d="M57 -98q0 35 33 61q-6 53 -10 85t-7 65.5t-5 82t-2 134.5q0 98 8 188t18 179t18.5 180.5t8.5 191.5q0 41 -1 69.5t-3 57.5t-6.5 60.5t-10.5 74.5q-25 25 -24 62q0 29 19.5 49t58.5 22l471 -20q10 -2 16 -14.5t11 -26.5t7 -26.5t2 -16.5q0 -12 -7 -22.5t-25 -12.5 l-326 -18q2 -25 2 -50.5v-50.5l-84 -1188v-38q37 0 99.5 -4.5t122 -15.5t103.5 -30.5t44 -50.5q0 -29 -23.5 -37t-64.5 -8h-144q-39 0 -73.5 -4t-63.5 -16h-10t-18.5 -1t-19.5 -1h-11q-43 0 -73 28.5t-30 61.5z" />
<glyph unicode="\" horiz-adv-x="1024" d="M129 1315q0 6 9 17t21.5 23.5t25 23t18.5 12.5q0 4 20.5 10t40.5 6q59 0 103 -43q47 -104 98 -246.5t103.5 -298t104.5 -313.5t101 -291q14 -39 34.5 -69.5t39 -55t31 -43t12.5 -35.5q0 -20 -28.5 -30.5t-74.5 -10.5q-27 0 -49 5.5t-34 17.5q-23 18 -57 81.5t-73.5 153.5 t-81.5 193.5t-79 202t-67 179.5t-44 124q-12 37 -32.5 101.5t-44 127t-48 108.5t-47.5 46z" />
<glyph unicode="]" horiz-adv-x="761" d="M57 -74q0 12 7.5 22.5t25.5 12.5l326 19q-2 25 -2 50v50l84 1188v39q-37 0 -99.5 4t-122 15t-103.5 30.5t-44 50.5q0 29 23.5 37t64.5 8h143q39 0 74 4.5t64 16.5h10t18.5 1t19.5 1h11q43 0 72.5 -29t29.5 -62q0 -35 -32 -61q6 -51 11 -83t8 -65.5t4 -83t1 -135.5 q0 -98 -8 -188t-18.5 -179t-18.5 -180.5t-8 -191.5q0 -39 1 -68.5t3 -58.5t6 -60.5t10 -74.5q25 -25 25 -61q0 -29 -19.5 -49.5t-58.5 -22.5l-471 20q-8 2 -15 14.5t-12.5 27t-7.5 26.5t-2 16z" />
<glyph unicode="^" horiz-adv-x="884" d="M63 950q0 27 35 51q49 37 84 63t63.5 46t56.5 40.5t63 47.5q53 41 102 41q20 0 40.5 -6t29.5 -19q6 -4 14 -24.5t37 -38.5q41 -39 79 -74t67.5 -64.5t48 -51t18.5 -33.5q0 -14 -11.5 -22.5t-23.5 -8.5q-18 0 -47 16q-88 59 -138.5 92t-76 48.5t-33.5 18.5t-12 3 q-16 0 -30.5 -7t-35.5 -17l-229 -121q-12 -8 -27.5 -14.5t-30.5 -6.5q-16 0 -29.5 9.5t-13.5 31.5z" />
<glyph unicode="_" horiz-adv-x="1024" d="M-25 -395q0 20 10.5 36.5t49.5 16.5h6q41 -2 80 -2h80l987 2q33 -2 44 -27.5t11 -48.5q0 -20 -11 -34.5t-48 -14.5h-13h-76.5h-155.5t-205.5 -1t-226.5 -1h-219.5h-183.5q-51 0 -90 15.5t-39 56.5v2z" />
<glyph unicode="`" horiz-adv-x="643" d="M111 1094q4 6 4 18v8q0 49 13 78t28 29q8 0 35.5 -17.5t64.5 -45t78 -60.5t74.5 -62.5t56 -53t22.5 -34.5l5 -45q0 -31 -23 -30q-12 0 -24 14.5t-35 24.5q-29 16 -74 53t-117 78q-14 8 -41.5 21t-42.5 17z" />
<glyph unicode="a" horiz-adv-x="743" d="M27 276q0 123 13 234t44 196t80 135t119 50q41 0 62.5 -7t39.5 -16.5t39.5 -19.5t60.5 -17q43 -25 61 -59q17 -34 22 -72q4 -28 4 -56q0 -12 -1 -24q-1 -10 -1 -21q0 -31 5 -62q0 -2 9.5 -6.5t21.5 -9.5t21.5 -14t9.5 -24v-8q-20 -53 -24.5 -94t-4.5 -98q0 -29 3 -63 t10.5 -63.5t21.5 -49t37 -19.5q25 0 44 24.5t32.5 56.5t22.5 64.5t12 49.5q4 25 20 24q10 0 19.5 -11t9.5 -40v-15.5t-2 -17.5q-4 -29 -20.5 -67.5t-42 -74.5t-59.5 -60.5t-75 -24.5q-61 0 -107.5 47t-56.5 133q-12 -33 -28.5 -76t-41 -79.5t-56.5 -62.5t-75 -26 q-12 0 -18 2.5t-13 5.5t-16.5 5t-25.5 2q-49 0 -83 31.5t-54.5 81t-29.5 107.5t-9 109zM172 291q0 -33 3 -79t11.5 -87t23.5 -69.5t40 -28.5q59 0 91 46t48.5 114.5t23.5 147.5t13 144q4 35 18.5 44t14.5 14v18q0 23 -4 53.5t-14.5 57t-31 45t-55.5 18.5q-57 0 -93 -52 t-56.5 -123t-26.5 -145.5t-6 -117.5z" />
<glyph unicode="b" horiz-adv-x="679" d="M78 262q0 147 4 405.5t8 665.5q0 20 -4 24.5t-4 8.5q0 12 23.5 16t29.5 4t33 -4t54.5 -12t50 -21.5t22.5 -31.5l-4 -13q-4 -12 -10.5 -29.5t-11.5 -32.5t-5 -21q-10 -78 -15 -134.5t-8 -119t-7 -144.5t-9 -213q10 20 19.5 52t24 63t36 53.5t57.5 22.5q16 0 46 -12.5 t47 -16.5q57 -12 91 -64.5t52 -121t23.5 -140t5.5 -122.5q0 -55 -9.5 -118t-37 -115t-77.5 -87t-132 -35q-74 0 -108 11.5t-56 25.5l-11 -5l-22 -11t-23.5 -11.5t-17.5 -5.5q-14 0 -25.5 10.5t-17.5 42t-9 88t-3 148.5zM219 186q0 -23 1 -48t5 -48q25 -10 37 -17t20.5 -12.5 t17.5 -7.5t24 -2q53 0 83.5 42t46 96.5t19.5 107.5t4 76q0 6 -1 32.5t-4 61.5t-9 75t-17.5 72.5t-28 54t-40.5 21.5q-33 0 -61.5 -57.5t-50 -138t-34 -166.5t-12.5 -142z" />
<glyph unicode="c" horiz-adv-x="618" d="M39 334q0 82 21.5 172t86.5 164q57 66 134 104.5t157 38.5q39 0 71 -11t36 -28q4 -23 5 -56.5t1 -88.5q0 -47 -7 -69.5t-30 -22.5q-25 2 -35 25.5t-20 51t-26.5 51t-53.5 25.5q-53 0 -88 -41t-54.5 -96t-26.5 -110.5t-7 -86.5q0 -119 35.5 -203.5t128.5 -93.5l22 -2 q63 0 102 32t63 70t37 69.5t27 31.5h7q26 -2 26 -33q0 -16 -10 -43q-49 -117 -126 -169t-181 -52h-19.5t-19.5 2q-51 6 -98 32t-82 72t-55.5 112.5t-20.5 152.5z" />
<glyph unicode="d" horiz-adv-x="768" d="M23 293v35q0 12 6 53t19 95t32.5 113.5t47.5 109t63.5 82t80.5 32.5q49 0 95.5 -16.5t66.5 -24.5q2 37 3 90t2 105.5t1 97.5v68q0 53 -2 91t-7 64.5t-11 43t-14 28.5q35 10 68.5 14t62.5 4q47 0 72.5 -7t25.5 -36q0 -12 -6 -71.5t-12.5 -154.5t-12.5 -220t-6 -266v-207 q0 -57 2 -109.5t9 -92.5t21.5 -63.5t41.5 -23.5q59 0 89 68.5t48 216.5q2 16 8 28.5t27 12.5q18 1 23 -23q4 -17 4 -34q0 -7 -1 -13l-2 -33q-4 -45 -17 -102.5t-39 -108.5t-68 -86t-101 -35q-88 0 -128 41t-66 127l-3 -10q-8 -33 -19 -71.5t-30.5 -70.5t-48.5 -53.5 t-74 -21.5q-31 0 -60.5 11.5t-61.5 27.5q-47 25 -74 65.5t-39 83.5t-14 83t-2 63zM184 217q0 -25 2 -57.5t10.5 -61t22.5 -49t39 -20.5q27 0 49.5 30.5t41 79.5t33.5 110.5t26.5 122t17.5 115t8 86.5l2 74q0 6 -9 14.5t-22.5 16.5t-28 14t-24.5 6q-41 0 -72.5 -50 t-53 -123.5t-32 -157.5t-10.5 -150z" />
<glyph unicode="e" horiz-adv-x="552" d="M23 317q0 72 16 158t51 161t88 125t129 50q37 0 70 -15.5t57.5 -40t38.5 -57t16 -67.5l3 -29q0 -49 -16.5 -107.5t-47.5 -108.5t-76 -84t-102 -34q-10 0 -25.5 2t-29.5 6v-59q0 -14 9 -40.5t27.5 -52.5t48 -45.5t72.5 -19.5q59 0 97 23.5t63 60.5t38 83t21 89 q6 29 12.5 39.5t20.5 10.5q31 0 31 -35v-15q0 -51 -18.5 -114.5t-57.5 -117.5t-99.5 -91t-144.5 -37q-80 0 -135 28.5t-91 78t-51 116t-15 139.5zM209 395q0 -18 3 -29.5t21 -11.5h11q41 0 69.5 31t46 74t25.5 88t8 74v12q0 16 -9 34.5t-34 18.5q-37 0 -63.5 -39t-44 -89 t-25.5 -96t-8 -61v-6z" />
<glyph unicode="f" horiz-adv-x="507" d="M-18 397q0 25 11 41.5t29.5 26.5t42 17t46.5 14q8 45 28.5 123.5t41 171t35.5 185.5t15 165q0 37 -5 65.5t-25 59.5q18 10 48 17t68 7q14 0 34 -5t37.5 -16.5t29.5 -26.5t12 -36q0 -53 -18.5 -110.5t-34.5 -128.5q-8 -37 -18.5 -75t-25 -88t-32.5 -120t-45 -174 q25 4 45.5 8t47 10.5t61.5 16.5t90 26q-10 -29 -32 -63.5t-56 -67.5q23 -25 37 -61.5t21 -79.5t9 -87t2 -85q0 -10 -3 -62.5t-12 -123t-24.5 -149.5t-39 -145.5t-55.5 -110.5t-77 -44q-18 0 -42.5 9.5t-48 22.5t-44 31.5t-31.5 36.5q-18 35 -28 120t-10 233q0 80 6 168 t14 198q-14 4 -31.5 10.5t-34 15.5t-27.5 24.5t-11 35.5zM201 -188q0 -4 1 -34t4 -65t12 -63.5t24 -28.5q25 0 45 32t34.5 80t25.5 105.5t17.5 106.5t9.5 83.5t3 39.5v129q0 4 -2 32.5t-8.5 61.5t-16.5 59.5t-26 26.5q-4 0 -18.5 -5t-31.5 -14l-41 -20q-12 -80 -19 -203 t-13 -323z" />
<glyph unicode="g" horiz-adv-x="720" d="M35 303q0 96 11 198.5t40 187.5t77 139.5t122 54.5q8 0 21 -6.5t28.5 -13.5l31 -14t23.5 -9q41 -8 76 -20.5t59.5 -32t39 -51t14.5 -79.5q0 -33 -5.5 -59.5t-5.5 -67.5q0 -16 12.5 -22t28 -10t27.5 -9.5t12 -21.5q0 -4 -9 -19.5t-11 -19.5q-6 -16 -10.5 -52t-6.5 -78 t-3 -86t-1 -79v-71t2 -72h8q4 0 8.5 1t6.5 1q18 0 50 -11t32 -34q0 -20 -18.5 -28.5t-35.5 -8.5l-41 4q-10 0 -10 -12l-2 -25q2 -55 2 -139v-162q0 -82 -5 -161t-23.5 -141t-52 -100t-93.5 -38q-51 0 -107.5 5t-102.5 25.5t-75.5 60.5t-29.5 107q0 68 15.5 138.5t44 137 t68.5 127t87 107.5q25 25 54.5 50.5t51.5 42.5v2q4 43 6.5 86t2.5 88q-10 -18 -24.5 -50t-34 -61t-44 -50.5t-55.5 -21.5q-16 0 -28.5 6.5t-35.5 6.5q-57 4 -95 30.5t-59.5 73.5t-29.5 111.5t-8 144.5zM166 307q0 -43 3 -89t10 -83t22.5 -61.5t40.5 -24.5q43 0 75.5 37 t54 91t33 112.5t13.5 101.5q2 59 6 81t8 28q12 16 15.5 39t3.5 41q0 23 -4.5 51t-14.5 54t-29.5 43t-48.5 17q-39 0 -72.5 -30.5t-59 -87t-41 -137t-15.5 -183.5zM215 -625q0 -20 4 -44.5t13.5 -46t26.5 -36t42 -14.5q43 0 70.5 36t43 85t20.5 100t5 82v18.5t1 47.5t1 97.5 v166.5q-47 -33 -89 -92.5t-72.5 -129t-48 -141t-17.5 -129.5z" />
<glyph unicode="h" horiz-adv-x="710" d="M59 35q0 4 7.5 18.5t7.5 57.5v1177q0 29 -7.5 39t-7.5 25q0 8 14.5 13t33 8t38 4t31.5 1q53 0 109 -22q-10 -55 -19.5 -146.5t-17.5 -188.5t-12.5 -186.5t-4.5 -138.5v-15t-1 -47t-2 -118t-3 -225q0 2 9.5 39t23.5 92t33.5 118.5t41 118t44 90t43.5 35.5q23 0 62.5 -9 t49.5 -32q8 -25 17.5 -35t16.5 -16t12.5 -12t5.5 -18q-2 -6 -9.5 -41t-14.5 -87.5t-13 -115t-6 -123.5q0 -82 14 -141.5t55 -59.5t68 24.5t44 61.5t26.5 79t15.5 75q10 43 31 43q23 0 32 -16.5t9 -43.5l-2 -26q-2 -29 -17.5 -81t-45.5 -102.5t-76 -88t-111 -37.5 q-63 0 -101.5 36.5t-57.5 101t-24.5 155t-5.5 196.5v46t2 48q-25 -45 -49 -113.5t-43.5 -146.5t-32 -158.5t-14.5 -152.5q-20 -4 -44 -10.5t-54 -6.5q-12 0 -28.5 2.5t-33 8.5t-28 17t-11.5 30z" />
<glyph unicode="i" horiz-adv-x="417" d="M18 1036q0 10 15.5 18.5t35 16.5t37 12t23.5 4q41 0 81 -20t64 -76q4 -6 15.5 -21.5t11.5 -21.5q0 -14 -14.5 -23.5t-31.5 -13.5t-33.5 -6t-20.5 -2q-43 0 -85 24.5t-77 78.5q-4 6 -12.5 16t-8.5 14zM45 723q0 8 10.5 13t22.5 7t24 2h11q6 0 28.5 -1t47 -7t44 -19 t19.5 -38q2 -6 -7 -22.5t-18 -57.5q-2 -16 -4 -29.5t-4 -30t-4 -40t-4 -60.5v-123q0 -33 2 -66.5t9 -61t23.5 -45t43.5 -17.5q39 0 61.5 22.5t34.5 38.5q23 31 35 77t22 95l4 21q6 31 37 31t31 -43v-11l-4 -30q-6 -49 -22.5 -102.5t-46 -99.5t-74.5 -76t-111 -30 q-51 0 -104 35q-53 37 -73 96.5t-20 114.5q0 16 2 49t2 80v226q0 16 -1 34.5t-5 34.5q-2 8 -7 18.5t-5 14.5z" />
<glyph unicode="j" horiz-adv-x="483" d="M-127 -391q0 74 22.5 155.5t63.5 160.5t99.5 150.5t131.5 125.5v477q-2 12 -3 27.5t-1 19.5q0 49 54 49q4 0 27.5 -3t49 -9t47 -15.5t21.5 -21.5q0 -6 -7 -16.5t-11 -18.5q-12 -29 -15.5 -72t-3.5 -96v-188v-58.5t2 -23.5l29 4q6 0 18.5 -3t25.5 -8t23.5 -13.5 t10.5 -18.5q0 -12 -9.5 -19.5t-21.5 -11.5t-22.5 -6t-14.5 -2l-37 4v-407q0 -12 -1 -44t-6 -73t-16.5 -84t-32 -79t-51 -59.5t-75.5 -23.5q-2 0 -17.5 2t-34 4t-34.5 4t-23 2q-109 12 -148.5 63.5t-39.5 125.5zM-31 -352q0 -16 2 -40t11.5 -45.5t28 -38t48.5 -16.5 q31 0 53.5 24t37 61.5t22.5 84t11 91.5t4 85t1 64v215q-49 -43 -90 -105.5t-69.5 -129t-44 -133t-15.5 -117.5zM121 1057q0 10 15.5 18t34.5 16.5t36.5 12.5t23.5 4q41 0 81 -20.5t65 -75.5q4 -6 15 -21.5t11 -21.5q0 -14 -14 -23.5t-31.5 -13.5t-34 -6t-20.5 -2 q-43 0 -85 24.5t-77 77.5q-4 6 -12 16.5t-8 14.5z" />
<glyph unicode="k" horiz-adv-x="626" d="M45 1346q0 14 19.5 24t74.5 10q35 0 60.5 -5t42.5 -13q23 -8 32 -21q-12 -51 -21 -137t-15.5 -185t-9.5 -198.5t-3 -179.5q8 18 25.5 59t42 81t57.5 71t74 31q47 0 72.5 -28t37 -65.5t13.5 -77.5t2 -67q0 -41 -16.5 -92t-46 -100.5t-70.5 -90t-88 -61.5 q33 -10 62.5 -32.5t51.5 -63.5q10 -16 16.5 -37t14.5 -39t20.5 -30.5t34.5 -12.5q31 0 52.5 30.5t37 83t26.5 122t22 145.5q4 29 14 38t20 9q35 0 35 -47q0 -16 -6 -66.5t-16 -119.5q-8 -39 -21.5 -90.5t-36 -96.5t-56.5 -76.5t-83 -31.5t-81 18.5t-51 47t-32.5 61t-28 61.5 t-35 47.5t-55.5 18.5h-26v-123q0 -31 5 -75t13 -79q-10 -4 -34.5 -7t-34.5 -3q-61 0 -81 12t-20 70v1239q0 29 -5 46t-5 26zM213 354q0 -8 4 -13t25 -5q37 0 68.5 19.5t56 52t41 74.5t20.5 85q2 16 3 36t1 42q0 41 -7 73t-30 32q-35 0 -67.5 -37t-58 -93.5t-41 -127 t-15.5 -138.5z" />
<glyph unicode="l" horiz-adv-x="409" d="M31 604q0 45 3 100.5t7 116t10 120.5t12 116q6 39 14.5 84t17.5 86t21.5 73.5t26.5 47.5q16 16 44 21t51 5q47 0 75.5 -24.5t44 -66.5t20.5 -96t5 -116q0 -94 -6 -203.5t-25.5 -220t-55.5 -215t-95 -190.5q2 -29 7 -67t15 -70.5t26.5 -55t43.5 -22.5q25 0 39 11 t25.5 25.5t22.5 25.5t30 11q20 0 27 -12.5t7 -28.5q0 -25 -17 -43t-43 -32.5t-53.5 -21.5t-45.5 -7q-35 0 -77 7t-71 30q-33 27 -54.5 85t-32.5 139t-15 180.5t-4 207.5zM182 464q0 -38 4 -67q68 162 86.5 313.5t18.5 311.5q0 20 -1 49t-6 56.5t-13.5 47t-22.5 19.5 q-20 0 -32.5 -57.5t-20 -150.5t-10.5 -211t-3 -238v-73z" />
<glyph unicode="m" horiz-adv-x="1062" d="M59 272q0 76 3.5 176.5t7.5 235.5q0 18 -2 48t-2 34q0 16 13 19t19 3q14 0 34 -3t39 -7t35.5 -9t22.5 -9v-494q10 41 23.5 95.5t31 107.5t38 98t43.5 66q8 6 30.5 9t36.5 3q10 0 25.5 -3t30 -9t25.5 -15.5t13 -21.5v-332v-18q0 -12 4 -13q4 0 23.5 55.5t46.5 131.5 t57.5 155.5t55.5 126.5q4 8 27.5 9.5t41.5 1.5q14 0 39 -9.5t48.5 -25.5t41 -36.5t17.5 -43.5q0 -4 -12.5 -23.5t-16.5 -39.5q-14 -57 -19.5 -112.5t-5.5 -141.5q0 -37 3.5 -74t10.5 -66.5t19.5 -48t32.5 -18.5q29 0 51.5 19.5t39 52t28.5 76.5t20 91q10 49 37 49 q16 0 21.5 -8t5.5 -37q0 -16 -2 -22q-2 -27 -17.5 -83t-43 -112.5t-68.5 -98.5t-94 -42q-63 0 -104.5 29.5t-64 80t-31.5 116t-9 137.5v14l12 168q-29 -55 -53.5 -116.5t-36.5 -96.5q-2 -10 -11.5 -43t-20.5 -73t-19.5 -79t-8.5 -63q0 -10 -18 -18.5t-47 -8.5 q-45 0 -71.5 12.5t-40 40t-16.5 72.5t-3 109v153q0 16 -1 32.5t-7 20.5q-10 -4 -25.5 -53t-29 -119.5t-23.5 -148.5t-10 -139q0 -23 -24 -27t-52 -4q-8 0 -27.5 3t-39 7t-36 11.5t-20.5 17.5q-10 27 -15.5 88t-5.5 190z" />
<glyph unicode="n" horiz-adv-x="624" d="M23 158l26 608q0 27 29 27q10 0 28.5 -3.5t39 -9.5t35 -15t14.5 -22v-415q2 2 6 16q14 37 34.5 91t45 103.5t52 84t56.5 34.5q37 0 56.5 -17t29.5 -44t12 -57.5t2 -59.5q0 -20 -4 -67t-4 -142q0 -53 10.5 -96t40.5 -43q23 0 41.5 20.5t34 51t25.5 65.5t12 66q2 39 31 39 q18 0 24.5 -12.5t6.5 -28.5v-4q-2 -41 -15.5 -92.5t-39 -96.5t-66.5 -75.5t-101 -30.5q-92 0 -117.5 66.5t-25.5 197.5l4 149q-31 -43 -50.5 -95t-33.5 -108.5t-23.5 -112.5t-19.5 -107q-4 -12 -31.5 -16.5t-40.5 -4.5q-37 0 -60.5 4t-35.5 19.5t-18 47t-10 85.5z" />
<glyph unicode="o" horiz-adv-x="669" d="M18 324q0 74 15.5 149.5t38 145t51.5 125t55 85.5q27 29 59.5 40.5t59.5 11.5q33 0 65.5 -16.5t63.5 -41t60.5 -56.5t56.5 -62q20 -23 30.5 -73t16.5 -102q4 -29 6 -61.5t2 -67.5q31 25 49.5 52.5t29.5 52t18.5 46.5t15.5 34q8 14 28 14q10 0 14.5 -12.5t4.5 -20.5 q-2 -63 -27.5 -113.5t-54.5 -86.5q-16 -23 -35.5 -41.5t-40.5 -34.5q-2 -35 -3 -48.5t-3 -21.5q-4 -31 -20.5 -78t-46 -92t-71.5 -76.5t-98 -31.5q-18 0 -41.5 4t-48 11t-47 16.5t-39.5 19.5q-51 29 -83.5 67.5t-50 82.5t-24 90.5t-6.5 89.5zM178 207q0 -23 6 -47.5 t19.5 -45t38 -33.5t61.5 -13q45 0 77 17t51.5 44t28.5 57.5t9 55.5q-25 -16 -68 -24.5t-71 -8.5q-55 0 -85 8t-65 33zM199 481q0 -82 32.5 -119.5t112.5 -37.5q59 0 97 18t38 29v39q0 8 -1 36.5t-4 67.5t-10 81t-20.5 77t-34 58.5t-51.5 23.5t-59.5 -24.5t-51 -63.5 t-35.5 -88.5t-13 -96.5z" />
<glyph unicode="p" horiz-adv-x="659" d="M35 897q0 4 11 10t25.5 12.5t28 10.5t15.5 4q35 0 54 -22.5t19 -88.5v-284q12 29 23.5 76t33 93t56.5 79.5t90 33.5q66 0 108 -44t67.5 -106.5t35.5 -133t10 -125.5v-19q0 -86 -15 -162.5t-46 -133t-78 -90.5t-108 -34q-55 0 -94.5 21.5t-39.5 75.5q0 23 15.5 35t27.5 12 q16 0 23.5 -9.5t14.5 -20.5t16.5 -20.5t29.5 -9.5q35 0 54.5 33t30 82t13.5 106.5t3 106.5v94q0 29 -2 69t-10.5 75.5t-26 61.5t-45.5 26q-43 0 -75 -62.5t-52.5 -158t-29.5 -211t-9 -222.5v-182q2 -41 4 -71.5t5 -57.5t8 -52.5t14 -58.5q2 -6 15 -11t13 -19 q0 -16 -11 -25.5t-28.5 -14.5t-38 -6t-36.5 -1h-29q-25 0 -49.5 7t-24.5 38v1200q0 41 -8 65q-2 8 -4 15.5t-4 13.5z" />
<glyph unicode="q" horiz-adv-x="673" d="M31 373q0 8 2 46t12 90t28.5 109.5t50.5 105.5t80 80t115 32q41 0 78 -9.5t86 -31.5v2q2 6 6.5 19t8.5 25.5t9 22.5t7 10q6 0 21.5 -5t33 -14t29.5 -20.5t12 -23.5q0 -4 -8 -7t-10 -9q-6 -12 -8 -31t-2 -23t9 -11t20.5 -21.5t20.5 -34.5t9 -51q0 -23 -23 -23l-34 8 q-27 0 -33 -38t-6 -85v-706q2 -14 3 -36t2 -45.5t3 -46t8 -36.5q4 -10 15.5 -7t11.5 -11q0 -12 -14.5 -20.5t-32 -11.5t-33.5 -4t-21 -1l-14 -2q-35 0 -54.5 8t-28.5 18t-11 22.5t-2 22.5q0 2 1 10.5t3 18.5t3 20.5t3 16.5v276l8 158q0 16 -2 21q-8 -16 -15 -45t-20.5 -58 t-34 -50.5t-53.5 -21.5q-18 0 -50 16.5t-54 22.5q-49 12 -76 53.5t-40 95.5t-16 110.5t-3 99.5zM172 367q0 -12 1 -56.5t9 -92.5t25.5 -86t48.5 -38q16 0 21.5 8.5t15.5 20.5q8 8 22.5 50t30.5 102.5t33.5 128t31 128t22.5 102.5t9 50q0 12 -15 26.5t-34.5 26t-40 18.5 t-30.5 7q-55 0 -86 -53.5t-45.5 -122t-16.5 -133t-2 -86.5z" />
<glyph unicode="r" horiz-adv-x="518" d="M-4 205q0 8 4 24q16 72 20.5 119t6.5 84v14q0 10 1 24.5t1 35.5v53v47.5t-4 52.5l-7 121q0 12 10.5 22.5t27 18.5t35 12.5t32.5 4.5q35 0 35 -45v-11l-2 -45v-12q0 -14 6 -17t24 -8h7q16 -2 53 -4t73.5 -8t64.5 -19.5t28 -37.5q0 -8 -4.5 -23.5t-10.5 -31t-10 -27.5 t-4 -17q-37 -141 -37 -294q0 -12 2 -45t8 -68t18.5 -61.5t31.5 -26.5q31 0 55 38t42.5 88t30 101t15.5 76q4 23 13 28t18 5q28 0 28 -35q0 -6 -1 -24t-3 -25q0 -14 -9 -68.5t-32.5 -115t-63.5 -107.5t-102 -47q-66 0 -104.5 46t-59 110.5t-26.5 135t-6 117.5q0 53 6 107.5 t8 107.5q0 16 -16.5 20.5t-30.5 4.5q-25 0 -31 -6t-8 -14l-8 -66q-8 -66 -17.5 -126t-20.5 -106t-26.5 -74t-36.5 -28h-2q-8 0 -15 4t-7 21z" />
<glyph unicode="s" horiz-adv-x="552" d="M20 119q0 23 17.5 32t34.5 9q23 0 44 -16.5t44.5 -35t52.5 -35t66 -16.5q16 0 43.5 11.5t27.5 40.5t-23.5 55t-59.5 55t-76.5 59.5t-76.5 66.5t-59.5 79t-23.5 94q0 72 46 121t108.5 77.5t128 41t102.5 12.5q35 0 69.5 -14.5t34.5 -55.5q0 -12 -5 -35.5t-16.5 -46 t-29.5 -40t-47 -17.5q-8 0 -16.5 7t-18.5 16.5t-21.5 16.5t-25.5 7q-72 0 -100.5 -42t-28.5 -89q0 -41 48 -86t106.5 -90t106.5 -89t48 -85q0 -49 -32.5 -75.5t-74.5 -39t-84 -15.5t-61 -3q-29 0 -70.5 6t-81.5 19.5t-68 38t-28 61.5z" />
<glyph unicode="t" horiz-adv-x="475" d="M-100 883q0 27 53 31t158 4q8 0 11 24.5t4 62t2 80.5t3 81t7 62.5t14 24.5q10 0 36.5 -4t55 -11t50 -17.5t21.5 -22.5l-22 -266q0 -12 21.5 -17.5t55 -6.5t71.5 -1t72 -6t55.5 -19.5t21.5 -39.5q0 -4 -4 -13.5t-11 -9.5q-4 0 -11 6t-38 6q-8 0 -45 -2t-78 -6t-74.5 -9 t-37.5 -13q-2 -4 -5 -48t-6.5 -116t-5.5 -165t-2 -196q0 -39 4.5 -75.5t12.5 -66.5t21.5 -48t31.5 -18q27 0 49.5 22.5t41 61t32.5 88t24 100.5q6 31 14.5 44t24.5 13q14 0 25.5 -9t11.5 -42q0 -20 -2 -27q-6 -37 -23.5 -101t-47 -126.5t-72.5 -110t-101 -47.5q-55 0 -96 32 t-68.5 88.5t-42 133t-14.5 164.5v19q2 104 6.5 212.5t8.5 200.5q0 16 -33 22.5t-74 12.5t-73.5 19.5t-32.5 44.5z" />
<glyph unicode="u" d="M53 264v494q4 14 5 20t18 6q10 0 35.5 -4t52 -11t48 -19.5t21.5 -28.5v-363q0 -37 1.5 -82t6.5 -82.5t17 -63.5t35 -26q59 0 92 120t37 378q0 16 -8 32.5t-8 39.5q4 16 33.5 20t54.5 4q61 0 89.5 -12t28.5 -74q-4 -37 -7 -58.5t-4 -38.5t-2 -36.5t-1 -56.5q0 -47 4 -98.5 t14.5 -94.5t25.5 -70.5t40 -27.5q23 0 35 13.5t22.5 29.5t20.5 29.5t28 13.5q16 0 24.5 -11t8.5 -22q0 -39 -19.5 -65.5t-47 -43t-56 -23.5t-47.5 -7q-35 0 -59.5 8t-48.5 25l-19 16q-41 41 -67 125q-6 -12 -15.5 -53t-28 -85t-48 -80t-74.5 -36q-131 0 -180.5 76t-57.5 223 z" />
<glyph unicode="v" horiz-adv-x="647" d="M37 430q0 174 35 354q23 2 41 7.5t41 5.5h18t29.5 -2t28 -6.5t12.5 -10.5q0 -10 -2 -27.5t-5.5 -37t-6.5 -38t-5 -30.5q-10 -72 -16 -145.5t-6 -147.5q0 -29 4 -79t16 -99t36 -85t62 -36q37 0 59.5 38t35 88t16.5 100.5t4 76.5q0 10 -13 22.5t-30.5 33t-33 49t-19.5 69.5 v43q0 16 1 39t4 46.5t8 45t14 33.5q0 2 7 6.5t15 8.5t16.5 7t10.5 3q6 0 17 -2t24.5 -4t25 -5t15.5 -6q10 -6 12 -19t6 -21q10 -33 15.5 -61t6.5 -55.5t2 -57t3 -66.5q0 -6 19.5 -13.5t25.5 -7.5q29 0 47 16.5t24 16.5q10 0 13.5 -13.5t3.5 -19.5q0 -31 -11.5 -47t-30 -24 t-42 -11.5t-45.5 -5.5v-10q0 -43 -12.5 -108.5t-36 -127t-59.5 -106.5t-85 -49q-10 -2 -20 -2h-21q-98 0 -153.5 46t-82 116.5t-32.5 154.5t-6 160z" />
<glyph unicode="w" horiz-adv-x="1026" d="M25 295v100q0 25 4 86.5t9 128t10 121.5t7 70q4 10 19.5 13t23.5 3q10 0 35 -3t49.5 -8t44 -13.5t19.5 -18.5q2 -4 -7.5 -12t-13.5 -29q-4 -25 -10 -76t-12 -115.5t-10.5 -136t-4.5 -137.5q0 -92 11.5 -154.5t44.5 -62.5q16 0 33.5 36t34 84t27.5 95t15 68q4 27 14.5 89 t10.5 140v43.5t-1 22.5t-1 12v12q0 23 12 27t31 4q20 0 46 -4t48.5 -10t39.5 -12.5t19 -10.5v-164q0 -27 2.5 -89t10.5 -125.5t24.5 -111.5t42.5 -48q18 0 33.5 27.5t29 69.5t23 92t16.5 93t10 73t3 32q0 10 -12.5 18t-27.5 22.5t-27.5 39t-12.5 67.5q0 29 7 64.5t18.5 66.5 t27 52.5t33.5 21.5q25 0 47.5 -6t40 -24.5t26.5 -50.5t9 -81v-84q47 0 94 21.5t90 70.5q9 0 13 -10q6 -14 6 -35q0 -27 -18.5 -53.5t-48 -48t-66.5 -35.5t-76 -18q-2 -23 -7 -67t-16.5 -98.5t-29 -110.5t-43 -103t-59.5 -77t-79 -30q-35 0 -68.5 19.5t-63 50.5t-52 68.5 t-35.5 76.5q-8 -27 -22.5 -75t-38 -95t-57 -81.5t-80.5 -34.5q-37 0 -87.5 13t-74.5 42q-14 18 -24.5 61t-16.5 91.5t-9 91.5t-3 59z" />
<glyph unicode="x" horiz-adv-x="804" d="M-72 479q0 47 35 112.5t87 127t110.5 104.5t105.5 43q43 0 71 -31.5t46 -74.5t27.5 -88t15.5 -74q8 8 31.5 33.5t55.5 61.5t68.5 76t70.5 74t60.5 55.5t39.5 21.5q31 0 66.5 -23t35.5 -61q0 -12 -10 -13q-6 0 -11.5 5.5t-13.5 5.5q-12 0 -30.5 -10.5t-53.5 -47.5 q-25 -27 -71 -78t-91 -103t-77.5 -93t-32.5 -47q0 -4 7 -31t20.5 -64.5t32 -82t41 -82t47 -62t51.5 -24.5q41 0 68.5 22.5t47 58t30.5 77.5t17 81q4 18 10.5 30.5t16.5 12.5q14 0 22.5 -8t11.5 -20.5t4 -26.5t1 -27v-6q-2 -20 -14.5 -70.5t-42 -102.5t-82 -92t-131.5 -42h-5 q-106 0 -171.5 68.5t-118.5 224.5q-6 -2 -37 -51.5t-66 -113t-63.5 -125.5t-28.5 -91v-4q0 -8 10 -13q-2 -10 -15 -15t-26 -5q-2 0 -19.5 2t-35.5 8t-33.5 15.5t-15.5 23.5l278 506q0 12 -7 57t-20.5 94.5t-33.5 88.5t-47 39q-33 0 -54.5 -23t-36 -53.5t-21.5 -60t-11 -44.5 q-8 -18 -40 -41.5t-52 -23.5q-23 0 -23 20z" />
<glyph unicode="y" horiz-adv-x="663" d="M27 360q0 80 2 167t10 161t24.5 122t42.5 48q8 0 33 -4t51.5 -13.5t47 -24.5t20.5 -38q0 -6 -5 -9t-9 -7q-12 -8 -22.5 -31.5t-17.5 -68t-11.5 -115t-4.5 -172.5q0 -154 11.5 -219.5t46.5 -65.5q37 0 66.5 55.5t54 145.5t45 204.5t37.5 231.5q20 0 45.5 -2t49 -8 t40 -15.5t16.5 -25.5q0 -10 -12 -14v-607q23 -2 43 -9t20 -34q0 -16 -8 -22t-18.5 -8t-21.5 -3.5t-15 -7.5v-325q0 -39 -1 -85t-9.5 -91t-25.5 -84t-50 -64q-2 -2 -13.5 -9t-24.5 -16.5t-25.5 -17.5t-16.5 -10q-29 -18 -46.5 -43t-43.5 -25q-10 0 -15.5 1t-10.5 3t-14 5.5 t-26 7.5q-92 18 -128 54t-36 116q0 82 25 170t68 170t102 152.5t129 119.5v262q-10 -39 -24.5 -90t-36 -96t-50 -76t-67.5 -31q-35 0 -76 24.5t-74 49.5q-25 20 -39 64.5t-21 93.5t-9 94t-2 65zM215 -571q0 -10 1 -34t9 -46.5t23.5 -40t46.5 -17.5q45 0 70.5 48.5t39 113 t17.5 129t4 94.5v9v227q-49 -39 -88 -100.5t-66.5 -130t-42 -136t-14.5 -116.5z" />
<glyph unicode="z" horiz-adv-x="696" d="M10 203q80 57 156 127.5t134 133t94 107.5t36 52v2q0 8 -7 17t-48 9h-17l-270 -12q-20 16 -33.5 36.5t-21.5 41t-12.5 36t-4.5 19.5l2 16h250l244 7q29 0 47.5 -26t29.5 -61.5t16 -70.5t5 -53v-11.5t-2 -9.5q-70 -49 -129 -110.5t-102 -120t-67.5 -104.5t-24.5 -64 q0 -8 17 -13.5t45 -8.5t62.5 -4t69.5 -1h154q23 0 33 -31.5t10 -60.5v-31l-8 -8t-19 -6h-481q-31 0 -59.5 22.5t-50 54.5t-35 66.5t-13.5 59.5z" />
<glyph unicode="{" horiz-adv-x="485" d="M53 676q0 10 10.5 14t25.5 8t33.5 11.5t35.5 25.5q27 27 26 66q0 35 -14 77t-30.5 89t-31 98t-14.5 102q0 61 22.5 111.5t63.5 87.5t100.5 57.5t133.5 20.5q39 0 75.5 -8.5t67.5 -28.5q16 -14 19.5 -23.5t3.5 -19.5q0 -16 -22.5 -38.5t-57.5 -22.5q-23 0 -41.5 11 t-40.5 19q-55 0 -85 -18.5t-44.5 -47t-17.5 -60t-3 -60.5q0 -31 8.5 -64.5t17.5 -68.5t17 -69t8 -68q0 -31 -2 -62t-17 -58.5t-49 -50t-97 -38.5q51 -6 85.5 -28t56 -52.5t31 -68.5t9.5 -81q0 -37 -6 -76.5t-14.5 -76.5t-14.5 -69t-6 -54q0 -72 28.5 -111t63.5 -57 q20 -10 42 -17.5t48 -9.5v-2q0 -10 -8 -22.5t-23.5 -24.5t-36 -22.5t-44.5 -12.5h-31q-80 0 -125 35t-67.5 80t-27.5 89t-5 63q4 63 17 108t26.5 81t24.5 67.5t11 68.5q0 51 -23.5 93t-94.5 71q-10 4 -13.5 15.5t-3.5 21.5z" />
<glyph unicode="|" horiz-adv-x="636" d="M225 352q0 43 2 116t6.5 157t7.5 174t7 167.5t6 137t2 82.5q0 53 -6 93t-23 58v2q0 4 12.5 17.5t28 28t29.5 25.5t20 13q23 18 64 19q53 0 63.5 -32t10.5 -83q0 -115 -7.5 -259t-16.5 -299t-17 -307.5t-13 -283.5q0 -37 6.5 -84t6.5 -67q8 -14 14 -26.5t6 -25.5 q0 -25 -33.5 -41t-81.5 -16q-18 0 -33.5 3t-25.5 13q-10 8 -16 45t-10.5 94.5t-6.5 130t-2 148.5z" />
<glyph unicode="}" horiz-adv-x="569" d="M10 -37q0 16 22.5 39t57.5 23q23 0 41.5 -11.5t40.5 -19.5q55 0 85 18.5t44 47t17.5 61.5t3.5 59q0 31 -8.5 65t-17.5 68.5t-17.5 69.5t-8.5 68q0 31 2 61.5t17.5 58t49.5 51t97 37.5q-102 16 -142 80t-40 150q0 37 6 77t14.5 76.5t14.5 69.5t6 53q0 72 -27.5 111 t-62.5 57q-20 10 -43 17.5t-49 9.5q0 18 29.5 48t82.5 36h31q80 0 125 -35t67.5 -80t27.5 -89t5 -62q-2 -63 -15 -108.5t-27.5 -81.5t-26 -67.5t-11.5 -68.5q0 -51 24 -93t95 -71q10 -4 13.5 -15t3.5 -22q0 -10 -10.5 -14t-26 -8t-33.5 -11.5t-35 -25.5q-25 -23 -24 -66 q0 -33 13 -75.5t30.5 -90t31 -98.5t13.5 -102q0 -61 -22.5 -111.5t-63.5 -87.5t-100.5 -57.5t-133.5 -20.5q-39 0 -75.5 8.5t-67.5 28.5q-16 14 -19.5 23.5t-3.5 19.5z" />
<glyph unicode="~" horiz-adv-x="929" d="M45 514q0 18 5 39.5t20 40.5q31 41 66.5 58.5t76.5 17.5q53 0 109.5 -22.5t110.5 -50.5t104.5 -50.5t89.5 -22.5q33 0 56.5 19.5t35.5 66.5q10 35 26.5 49.5t38.5 14.5q29 0 51.5 -22.5t22.5 -57.5q0 -8 -4 -25q-10 -82 -69.5 -125t-141.5 -43q-80 0 -164 43 q-18 10 -40.5 25.5t-47 31t-51.5 26t-55 10.5q-47 0 -86 -31t-39 -84q-16 -16 -39 -16q-31 0 -53.5 31.5t-22.5 76.5z" />
<glyph unicode="&#xa1;" horiz-adv-x="563" d="M104 739q12 33 64.5 59.5t132.5 26.5q29 0 55.5 -8t47 -20.5t34 -26.5t13.5 -27q0 -2 -7.5 -6t-7.5 -10q0 -8 13 -12q-33 -49 -85.5 -71.5t-87.5 -22.5q-14 0 -34.5 6t-42 15t-41 20.5t-29.5 21.5q-6 6 -7 13.5t-1 14.5t-3.5 14t-13.5 13zM158 -416q0 33 9 68t21.5 87 t21.5 132t9 203q0 8 -1 35.5t-1 59.5t-1 59.5t-1 37.5l-18 248q0 27 10 34t24 7q8 0 35 -5t56.5 -15.5t52 -28t22.5 -39.5q0 -117 -2 -209t-2 -166q0 -92 1 -157.5t3 -113.5t6.5 -84t10.5 -67q4 -27 13 -59.5t9 -54.5q0 -31 -10 -46.5t-27 -19.5q-6 4 -16 10t-45 11 q-45 4 -79 7t-56.5 9t-33.5 19t-11 38z" />
<glyph unicode="&#xa2;" horiz-adv-x="946" d="M45 672v16q0 72 24.5 141.5t76 128t130 98.5t185.5 52l-6 104q-4 27 -13.5 45.5t-11.5 36.5q0 25 18.5 34t57.5 9q68 0 92.5 -11t26.5 -50q-4 -55 -6.5 -81t-3.5 -38t-3 -20.5t-4 -30.5q37 -4 74 -15.5t66.5 -31t47 -45t17.5 -58.5t-9 -57.5t-38 -28.5q-8 0 -16.5 4.5 t-23.5 10.5t-42 12t-72 10q0 -31 -1 -71.5t-3 -81.5t-3 -78t-1 -58v-225q57 14 87 35t43.5 44.5t17.5 46t8 41t15 29.5t38 11q39 0 73 -26.5t34 -69.5t-26 -80t-70 -66.5t-101 -48t-121 -22.5v-213q0 -27 7 -36t7 -18q0 -14 -20.5 -19t-40.5 -5h-49q-66 0 -74 47q-2 4 -2 12 v15q0 10 3 33.5t7 54t7.5 65.5t3.5 66q-76 10 -150 41.5t-130 82t-91 116t-35 143.5zM195 653q0 -25 5 -54t15 -52q14 -33 41 -61.5t60.5 -49t70.5 -34t74 -15.5q2 55 3 118.5t2 133.5t1 140.5v138.5l-29 -3q-57 -4 -102 -27.5t-77 -60t-48 -82t-16 -92.5z" />
<glyph unicode="&#xa3;" horiz-adv-x="1079" d="M0 29q0 55 37 86.5t85 48t95 20.5t68 4q43 0 66.5 -4t31.5 -4q6 0 8 13.5t4 32t2 36v25.5q0 14 -1 28.5t-1 30.5h-182q-51 0 -90 15.5t-39 56.5v2q0 20 10 36.5t49 16.5h7q41 -2 79.5 -2h79.5h80q-4 29 -5 57.5t-3 57.5h-168q-51 0 -90 15t-39 56v2q0 20 10 37t49 17h7 q41 -2 79.5 -2h79.5h68q4 145 30.5 257.5t69.5 190.5t98.5 119t116.5 41h43q37 0 59.5 -9.5t43 -22.5t44 -30.5t60.5 -33.5q61 -27 81.5 -77t20.5 -130q0 -29 -1 -57.5t-11 -52t-32.5 -40t-65.5 -20.5q-57 0 -71.5 34.5t-14.5 82.5q0 27 4 44t4 56q0 51 -28.5 87t-75.5 36 q-78 0 -130.5 -118t-56.5 -357l383 2q33 -2 44.5 -28t11.5 -48q0 -20 -11.5 -34.5t-48.5 -14.5h-375q2 -33 3 -61.5t1 -55.5l375 2q33 -2 44.5 -27.5t11.5 -48.5q0 -20 -11.5 -34.5t-48.5 -14.5h-369q0 -78 -4 -120t-14 -81q88 -27 157.5 -62.5t126 -68t100.5 -55t81 -22.5 q18 2 44 24.5t36 40.5q23 -10 22 -63q0 -18 -12 -35t-29.5 -29t-34 -19.5t-26.5 -7.5q-98 0 -183 26t-151.5 55.5t-113 55t-68.5 25.5q-4 0 -21.5 -25.5t-52.5 -47.5q-47 -29 -97 -38.5t-110 -9.5q-29 0 -67.5 7.5t-73.5 24t-59.5 43t-24.5 63.5zM78 41q0 -20 20.5 -34.5 t46 -24t48 -12.5t26.5 -3q18 0 41 4t43.5 14.5t37 27.5t24.5 42q-31 12 -78 25.5t-105 13.5h-20.5t-34.5 -5t-33.5 -15.5t-15.5 -32.5z" />
<glyph unicode="&#xa5;" horiz-adv-x="1230" d="M96 446v3q0 20 10.5 36.5t51.5 16.5h6q43 -2 92 -2h90h60q4 27 8 57.5t8 54.5h-184q-53 0 -94.5 15.5t-41.5 56.5v2q0 20 10.5 36.5t51.5 16.5h6q43 -2 92 -2h90h84q8 72 11.5 143.5t3.5 147.5q0 35 -3.5 74t-13.5 76q-4 12 -8 21t-4 18q0 29 33 28q18 0 30.5 -4 t22.5 -12q8 -6 13 -7t9 -1h9q4 0 15 -7.5t17 -17.5q49 -76 59.5 -141.5t10.5 -130.5q0 -41 -3 -87t-5 -100h248q8 57 12 129t4 142q0 25 -2 47t-2 41q0 12 20.5 16t36.5 4q10 0 35 -4t51.5 -12t47 -17.5t20.5 -19.5q0 -37 -10 -74q-8 -59 -15.5 -127.5t-11.5 -122.5h143 q35 0 46.5 -26.5t11.5 -48.5q0 -20 -11.5 -35t-50.5 -15h-147q-2 -27 -2 -39v-38v-35h147q35 -2 46.5 -27.5t11.5 -48.5q0 -20 -11.5 -34.5t-50.5 -14.5h-137q4 -63 8 -135t4 -144q0 -88 -8 -171t-30.5 -148.5t-61.5 -107.5t-103 -48q-41 -4 -91 -6t-91 -2q-35 0 -82 10 t-89 34t-70.5 58.5t-28.5 83.5q0 10 7 27.5t22 17.5q41 0 61 -26.5t40.5 -59t52.5 -59.5t95 -27q59 0 94 30t54.5 80t26 114.5t6.5 132.5q0 66 -3.5 128t-3.5 115q0 23 1 43.5t4 36.5q-16 -57 -35 -128.5t-47.5 -135t-70.5 -106.5t-103 -43q-57 0 -101.5 25.5t-73 68.5 t-43 97t-14.5 110q0 33 1 65.5t3 67.5h-162q-53 0 -94 15.5t-41 55.5zM578 223q0 -18 2 -50t9 -63.5t21.5 -54t40.5 -22.5q20 0 41 28.5t40.5 76.5t37.5 110.5t35 128.5l-221 -2q-6 -76 -6 -152zM598 500h236q4 23 13 58.5t13 53.5h-244z" />
<glyph unicode="&#xa8;" horiz-adv-x="704" d="M10 1020q0 59 44 89t87 30q12 0 32 -9.5t36 -24.5t28.5 -35t12.5 -38q0 -12 -16.5 -25.5t-38 -24.5t-42 -19.5t-28.5 -8.5q-12 0 -31.5 7.5t-38 17.5t-32 21.5t-13.5 19.5zM381 1036q0 25 14.5 43.5t35 31.5t43 20.5t38.5 7.5q12 0 30.5 -9.5t35 -24.5t28.5 -35t12 -38 q0 -12 -16 -25.5t-37.5 -24.5t-42 -19.5t-28.5 -8.5q-14 0 -34 6.5t-37 17.5t-29.5 25.5t-12.5 32.5z" />
<glyph unicode="&#xa9;" horiz-adv-x="1669" d="M82 610q0 156 59.5 293t160.5 239.5t239.5 162t294.5 59.5t293 -59.5t239 -162t161.5 -239.5t59.5 -293t-59.5 -294t-161.5 -239.5t-239.5 -160.5t-292.5 -59q-156 0 -294.5 59t-239.5 160.5t-160.5 239.5t-59.5 294zM166 580q0 -137 53 -255t144.5 -203t214 -133 t260.5 -48q139 0 261 57t212 153.5t142 223.5t52 264q0 139 -52 256t-142 203t-212 134t-261 48q-137 0 -260 -57.5t-214.5 -153.5t-144.5 -223t-53 -266zM399 567q0 121 37 216.5t102.5 162t156.5 102t200 35.5q37 0 97.5 -10t103.5 -26q4 -4 10 -26t6 -44q0 -12 -3 -31.5 t-12.5 -39t-22.5 -33t-36 -13.5h-24q-23 0 -39 10q-18 16 -22.5 30.5t-8.5 26t-15 18.5t-46 7q-74 0 -134.5 -27.5t-104.5 -77.5t-68.5 -121t-24.5 -157q0 -59 16.5 -116.5t51 -103.5t88 -73.5t124.5 -27.5q66 0 109 20.5t68.5 53t37 74.5t13.5 85q20 47 42.5 57.5 t45.5 10.5q29 0 49.5 -20.5t20.5 -61.5q0 -70 -32 -132.5t-84 -108.5t-119 -72.5t-138 -26.5q-94 0 -176 31.5t-141.5 90t-93.5 139.5t-34 179zM1126 1032l4 -2z" />
<glyph unicode="&#xab;" horiz-adv-x="1243" d="M96 418q0 35 33 62.5t64 47.5q37 25 68.5 57.5t64.5 65.5v-2q66 70 138.5 129.5t143.5 134.5v2q12 12 26.5 17.5t27.5 5.5q29 0 49 -20.5t20 -51.5q0 -10 -3 -17t-3 -15q-49 -55 -103.5 -102.5t-107.5 -96.5q-27 -25 -54.5 -55.5t-57 -61.5t-60.5 -58.5t-66 -47.5 q18 -20 29.5 -28.5t22.5 -14.5q41 -23 90 -72t90 -94q20 -23 50 -49.5t56.5 -54t46 -52t19.5 -43.5q0 -31 -19.5 -51.5t-48.5 -20.5q-10 0 -20 4.5t-21 4.5q-39 33 -71.5 66.5t-65.5 67.5t-69.5 70.5t-85.5 75.5q-78 66 -130.5 115t-52.5 82zM567 406q0 35 33 62.5t64 47.5 q37 25 68.5 57.5t64.5 65.5v-2q66 70 138.5 129t143.5 135v2q12 12 26.5 17.5t27.5 5.5q29 0 49 -20.5t20 -51.5q0 -10 -3 -17.5t-3 -15.5q-49 -55 -103.5 -102t-107.5 -96q-27 -25 -54.5 -55.5t-57 -61.5t-60.5 -58.5t-65 -48.5q18 -20 29 -28.5t22 -14.5q41 -23 90 -71.5 t90 -94.5q20 -23 50 -49t56.5 -54t46 -52.5t19.5 -42.5q0 -31 -19.5 -51.5t-48.5 -20.5q-10 0 -20 4t-21 4q-39 33 -71.5 67t-65.5 67.5t-69.5 70.5t-85.5 76q-78 66 -130.5 115t-52.5 82z" />
<glyph unicode="&#xad;" horiz-adv-x="741" d="M123 496q0 29 12 46t47 17h6q18 -2 24.5 -4t15 -3t25.5 -1h56q92 0 149.5 3t108.5 13l9 -10q8 -10 17 -25.5t17 -34t8 -36.5q0 -29 -16 -56.5t-72 -27.5h-12q-35 0 -88 5t-149 5h-33q-47 0 -86 31t-39 78z" />
<glyph unicode="&#xae;" horiz-adv-x="1673" d="M82 610q0 156 59.5 293t160.5 239.5t239.5 162t294.5 59.5t293 -59.5t239 -162t161.5 -239.5t59.5 -293t-59.5 -294t-161.5 -239.5t-239.5 -160.5t-292.5 -59q-156 0 -294.5 59t-239.5 160.5t-160.5 239.5t-59.5 294zM166 580q0 -137 53 -255t144.5 -203t214 -133 t260.5 -48q139 0 261 57t212 153.5t142 223.5t52 264q0 139 -52 256t-142 203t-212 134t-261 48q-137 0 -260 -57.5t-214.5 -153.5t-144.5 -223t-53 -266zM459 932v4q0 8 6 29.5t39 42.5q23 14 41 21t26 46q8 33 27.5 48.5t42.5 15.5t42 -16.5t24 -45.5q14 2 44.5 2h45.5 q115 0 191.5 -16t123.5 -44t66.5 -63.5t19.5 -74.5q0 -61 -32.5 -107.5t-86 -80.5t-121 -54.5t-139.5 -28.5q45 -31 82 -68.5t82 -86.5l16 -17q31 -33 56.5 -59.5t51.5 -45t55.5 -29.5t72.5 -15q18 -18 18 -58q0 -27 -22.5 -50t-56.5 -23h-21q-63 6 -116.5 47t-102.5 99 t-100.5 124t-112.5 121v-348q0 -37 -22.5 -56.5t-47.5 -19.5t-45 16.5t-24 51.5v378q-16 4 -30.5 14.5t-14.5 45.5t45 55v47q0 31 -2 70t-5 69q-4 0 -19 -1t-19 -1q-27 0 -52.5 13.5t-25.5 48.5zM713 940q2 -51 3 -107.5t3 -107.5v-12q49 0 105.5 11t104.5 31.5t79.5 47 t31.5 59.5q0 20 -16 36.5t-43 29t-60.5 18.5t-68.5 6q-39 0 -72.5 -2t-66.5 -10z" />
<glyph unicode="&#xaf;" horiz-adv-x="643" d="M31 1108v2q0 20 10 36.5t49 16.5h6q41 -2 80 -2h80l244 2q33 -2 44 -27.5t11 -48.5q0 -20 -11.5 -34.5t-47.5 -14.5h-13h-58t-84 -1t-93 -1h-88q-51 0 -90 14.5t-39 57.5z" />
<glyph unicode="&#xb0;" horiz-adv-x="557" d="M53 1167q0 35 12.5 69t36.5 58q0 18 17.5 31.5t44 22t55.5 11.5t51 3q29 0 64 -6t65.5 -23.5t51 -49.5t20.5 -85q0 -88 -60.5 -150.5t-164.5 -62.5q-41 0 -88.5 16t-67.5 43q-16 25 -26.5 53.5t-10.5 69.5zM127 1135q0 -27 11.5 -46.5t27.5 -32t35.5 -17.5t36.5 -5 q33 0 74 22.5t57 55.5q23 45 22 90q0 72 -69 84v-10q0 -39 -39 -39l-52 12q-8 0 -26.5 -6t-28.5 -6q0 -6 -18 -25q-12 -12 -19 -20q-12 -27 -12 -57z" />
<glyph unicode="&#xb4;" horiz-adv-x="641" d="M109 920v24q0 16 4 25.5t22 25.5q43 41 92 82t93.5 75t80 55.5t54.5 21.5q14 0 20 -12.5t6 -69.5q0 -33 -7 -46.5t-20.5 -19.5t-32 -10t-42.5 -18l-170 -119q-10 -16 -30.5 -39t-33.5 -23q-6 0 -10 5q-8 14 -13 19l-8 8t-4 5t-1 11z" />
<glyph unicode="&#xb6;" horiz-adv-x="1097" d="M12 774q0 35 14.5 92.5t49.5 121t97.5 121.5t156.5 93q10 4 21 13.5t26.5 19.5t39 18.5t56.5 8.5q41 -4 90 -20.5t90 -31.5q0 57 -7 123t-7 103t15.5 46t43.5 9q12 0 29.5 -10.5t34 -44t30 -97t17.5 -172.5q12 -2 24.5 -7t24.5 -11q115 -70 155 -153t40 -160 q0 -10 -1 -21.5t-3 -21.5q-2 -27 -12.5 -74t-36 -97.5t-73.5 -94.5t-126 -68v-48.5t1 -13.5t1 -12t1 -45t1 -111.5v-212.5q2 -33 7 -58.5t5 -33.5q0 -27 -51 -26q-41 0 -69.5 5t-53.5 23q0 61 1 119.5t1 119t1 127t1 144.5h-37q-20 0 -44.5 3t-53.5 7v-552q4 -14 12 -26.5 t8 -19.5q0 -16 -29.5 -19t-51.5 -3q-12 0 -30 4t-33 13.5t-26.5 23.5t-11.5 37q0 33 1 61.5t3 60t3 71.5t1 96q0 47 -1 105t-1 169l-26 4q-98 8 -159.5 41t-96.5 77t-48.5 93t-13.5 92zM203 784q0 -68 34.5 -127t120.5 -94q2 53 3 106.5t1 106.5q0 63 -1 128t-3 130 q-33 -8 -60.5 -18t-49 -35t-33.5 -71t-12 -126zM512 532h53q23 0 44.5 1.5t39.5 3.5q0 53 1 110.5t1 126t1 155.5t1 199q0 2 -2 2h-18q-47 0 -72.5 -8t-48.5 -22v-568zM803 586q49 35 83 93t38 144v25q0 55 -31 117.5t-84 107.5q0 -123 -2 -243.5t-4 -243.5z" />
<glyph unicode="&#xb7;" horiz-adv-x="526" d="M96 686v10q0 25 21.5 45.5t51.5 35t61.5 21.5t52.5 7q18 0 43.5 -10.5t50 -27.5t42 -38t17.5 -41q0 -12 -23.5 -27.5t-54 -29t-59.5 -21.5t-41 -8q-45 0 -81 19.5t-75 35.5q6 6 7 17q0 8 -13 12z" />
<glyph unicode="&#xb8;" horiz-adv-x="890" d="M270 -358q0 14 11.5 26.5t31.5 12.5q16 0 25.5 -8.5t19 -17.5t21.5 -16.5t35 -7.5q16 0 36.5 2t39 9.5t30.5 21.5t12 41q0 29 -31.5 36t-68.5 12t-68.5 18.5t-31.5 56.5q0 23 11 41t26.5 30.5t32 19.5t24.5 7l27 -16q-2 -4 -4.5 -12.5t-2.5 -18.5t7.5 -20.5t29.5 -14.5 q61 -12 96 -47t35 -82q0 -90 -61 -131t-141 -41q-59 0 -100.5 24.5t-41.5 74.5z" />
<glyph unicode="&#xbb;" horiz-adv-x="1130" d="M96 854q0 31 20.5 51.5t49.5 20.5q12 0 26.5 -5.5t26.5 -17.5v-2q72 -76 144.5 -135t138.5 -129v2q33 -33 64.5 -65.5t68.5 -57.5q31 -20 63.5 -48t32.5 -62q0 -33 -52 -82.5t-130 -114.5q-49 -39 -86 -76t-70 -70.5t-64.5 -67.5t-72.5 -67q-10 0 -20.5 -4t-20.5 -4 q-29 0 -48.5 20.5t-19.5 51.5q0 18 19.5 42.5t46.5 52.5t56.5 54.5t49.5 48.5q41 45 90.5 94.5t90.5 71.5q10 6 21 14.5t30 28.5q-66 43 -125 108.5t-113 115.5q-51 49 -106 95t-105 103q0 8 -3 15.5t-3 17.5zM567 866q0 31 20.5 51.5t49.5 20.5q12 0 26.5 -5t26.5 -18v-2 q72 -76 144.5 -135t138.5 -129v2q33 -33 64.5 -65.5t68.5 -57.5q31 -20 63.5 -47.5t32.5 -62.5q0 -33 -52 -82t-130 -115q-49 -39 -86 -75.5t-70 -70.5t-64.5 -68t-72.5 -66q-10 0 -20.5 -4.5t-20.5 -4.5q-29 0 -48.5 20.5t-19.5 51.5q0 18 19.5 43t46.5 52.5t56.5 54 t50.5 49.5q41 45 90 94t90 72q10 6 21.5 14t29.5 29q-66 43 -125 108.5t-113 114.5q-51 49 -106 95t-105 104q0 8 -3 15t-3 17z" />
<glyph unicode="&#xbf;" horiz-adv-x="1075" d="M76 -186q0 70 22.5 121t58.5 92t81 73.5t90 67.5t85 74t66 90q16 31 16.5 61.5t6.5 54t28.5 38t83.5 14.5q8 0 23.5 -1t31 -4t28 -9.5t14.5 -16.5q-10 -14 -15.5 -40t-8.5 -54.5t-7 -56t-12 -50.5q-20 -53 -60.5 -102t-87.5 -94t-96 -89t-90 -89.5t-66.5 -92.5t-25.5 -98 q0 -80 49 -121t121 -41q100 0 155.5 33t85 83t44 107.5t33 107.5t50 83t94.5 33q29 0 49.5 -14.5t33 -36t17.5 -47t5 -50.5q0 -88 -55.5 -168t-137 -141t-176 -97t-174.5 -36q-68 0 -131 39t-112.5 95t-80 120t-34.5 115q-2 12 -2 23v24zM416 715q0 14 13 33.5t32.5 36 t40 28.5t35.5 12q14 0 27.5 1t25.5 1q25 0 56.5 -8t59 -22.5t46 -34t18.5 -41.5q0 -12 -12.5 -28.5t-30.5 -31t-36.5 -24.5t-31.5 -10q-4 0 -6 2t-6 2q-18 0 -35.5 -8.5t-38.5 -8.5q-43 0 -89 28t-66 69z" />
<glyph unicode="&#xc0;" horiz-adv-x="1034" d="M-121 113q0 25 16.5 44t41.5 19q41 0 53 -27.5t23.5 -61.5t37 -61.5t92.5 -27.5q49 0 91.5 24.5t77 63.5t60 86t42.5 92q18 53 24 73.5t11 31.5q0 4 -7 4q-53 -6 -91 -9.5t-70 -3.5q-43 0 -72 5.5t-29 37.5q0 18 17.5 29.5t50.5 17t77 8.5t99 7q23 2 39 3t18 7 q18 57 35 116.5t33 119.5q27 104 47 228t20 243q0 20 -1 33.5t-1 19.5q10 4 26.5 4t33.5 4q16 4 39.5 13.5t54.5 9.5q10 0 33.5 -5.5t48.5 -14.5t44 -20.5t19 -23.5v-325q0 -162 16.5 -312.5t39 -268.5t48.5 -193t46 -85q-12 -12 -51 -30.5t-107 -18.5q-45 0 -74.5 20.5 t-29.5 96.5q-4 82 -10.5 154.5t-14.5 146.5q-53 -2 -116.5 -2t-110.5 -4q-25 -90 -59.5 -172t-87 -145.5t-125 -100.5t-173.5 -37q-39 0 -78.5 9.5t-72.5 31t-53.5 57t-20.5 89.5zM562 1504q4 6 4 18v8q0 49 13 78t28 29q8 0 35.5 -17.5t64.5 -45t78 -60.5t74.5 -62.5 t56 -53t22.5 -34.5l5 -45q0 -31 -23 -30q-12 0 -24 14.5t-35 24.5q-29 16 -74 53t-117 78q-14 8 -41.5 21t-42.5 17zM571 471h193q-4 45 -11 106.5t-17.5 125t-20.5 123t-21 98.5q-6 -16 -17 -55.5t-25.5 -88.5t-28 -102t-25.5 -98t-19.5 -75t-7.5 -34z" />
<glyph unicode="&#xc1;" horiz-adv-x="1034" d="M-121 113q0 25 16.5 44t41.5 19q41 0 53 -27.5t23.5 -61.5t37 -61.5t92.5 -27.5q49 0 91.5 24.5t77 63.5t60 86t42.5 92q18 53 24 73.5t11 31.5q0 4 -7 4q-53 -6 -91 -9.5t-70 -3.5q-43 0 -72 5.5t-29 37.5q0 18 17.5 29.5t50.5 17t77 8.5t99 7q23 2 39 3t18 7 q18 57 35 116.5t33 119.5q27 104 47 228t20 243q0 20 -1 33.5t-1 19.5q10 4 26.5 4t33.5 4q16 4 39.5 13.5t54.5 9.5q10 0 33.5 -5.5t48.5 -14.5t44 -20.5t19 -23.5v-325q0 -162 16.5 -312.5t39 -268.5t48.5 -193t46 -85q-12 -12 -51 -30.5t-107 -18.5q-45 0 -74.5 20.5 t-29.5 96.5q-4 82 -10.5 154.5t-14.5 146.5q-53 -2 -116.5 -2t-110.5 -4q-25 -90 -59.5 -172t-87 -145.5t-125 -100.5t-173.5 -37q-39 0 -78.5 9.5t-72.5 31t-53.5 57t-20.5 89.5zM539 1330v24q0 16 4 25.5t22 25.5q43 41 92 82t93.5 75t80 55.5t54.5 21.5q14 0 20 -12.5 t6 -69.5q0 -33 -7 -46.5t-20.5 -19.5t-32 -10t-42.5 -18l-170 -119q-10 -16 -30.5 -39t-33.5 -23q-6 0 -10 5q-8 14 -13 19l-8 8t-4 5t-1 11zM571 471h193q-4 45 -11 106.5t-17.5 125t-20.5 123t-21 98.5q-6 -16 -17 -55.5t-25.5 -88.5t-28 -102t-25.5 -98t-19.5 -75 t-7.5 -34z" />
<glyph unicode="&#xc2;" horiz-adv-x="1034" d="M-121 113q0 25 16.5 44t41.5 19q41 0 53 -27.5t23.5 -61.5t37 -61.5t92.5 -27.5q49 0 91.5 24.5t77 63.5t60 86t42.5 92q18 53 24 73.5t11 31.5q0 4 -7 4q-53 -6 -91 -9.5t-70 -3.5q-43 0 -72 5.5t-29 37.5q0 18 17.5 29.5t50.5 17t77 8.5t99 7q23 2 39 3t18 7 q18 57 35 116.5t33 119.5q27 104 47 228t20 243q0 20 -1 33.5t-1 19.5q10 4 26.5 4t33.5 4q16 4 39.5 13.5t54.5 9.5q10 0 33.5 -5.5t48.5 -14.5t44 -20.5t19 -23.5v-325q0 -162 16.5 -312.5t39 -268.5t48.5 -193t46 -85q-12 -12 -51 -30.5t-107 -18.5q-45 0 -74.5 20.5 t-29.5 96.5q-4 82 -10.5 154.5t-14.5 146.5q-53 -2 -116.5 -2t-110.5 -4q-25 -90 -59.5 -172t-87 -145.5t-125 -100.5t-173.5 -37q-39 0 -78.5 9.5t-72.5 31t-53.5 57t-20.5 89.5zM467 1450q0 59 44 89t87 30q12 0 32 -9.5t36 -24.5t28.5 -35t12.5 -38q0 -12 -16.5 -25.5 t-38 -24.5t-42 -19.5t-28.5 -8.5q-12 0 -31.5 7.5t-38 17.5t-32 21.5t-13.5 19.5zM571 471h193q-4 45 -11 106.5t-17.5 125t-20.5 123t-21 98.5q-6 -16 -17 -55.5t-25.5 -88.5t-28 -102t-25.5 -98t-19.5 -75t-7.5 -34zM838 1466q0 25 14.5 43.5t35 31.5t43 20.5t38.5 7.5 q12 0 30.5 -9.5t35 -24.5t28.5 -35t12 -38q0 -12 -16 -25.5t-37.5 -24.5t-42 -19.5t-28.5 -8.5q-14 0 -34 6.5t-37 17.5t-29.5 25.5t-12.5 32.5z" />
<glyph unicode="&#xc3;" horiz-adv-x="1034" d="M-121 113q0 25 16.5 44t41.5 19q41 0 53 -27.5t23.5 -61.5t37 -61.5t92.5 -27.5q49 0 91.5 24.5t77 63.5t60 86t42.5 92q18 53 24 73.5t11 31.5q0 4 -7 4q-53 -6 -91 -9.5t-70 -3.5q-43 0 -72 5.5t-29 37.5q0 18 17.5 29.5t50.5 17t77 8.5t99 7q23 2 39 3t18 7 q18 57 35 116.5t33 119.5q27 104 47 228t20 243q0 20 -1 33.5t-1 19.5q10 4 26.5 4t33.5 4q16 4 39.5 13.5t54.5 9.5q10 0 33.5 -5.5t48.5 -14.5t44 -20.5t19 -23.5v-325q0 -162 16.5 -312.5t39 -268.5t48.5 -193t46 -85q-12 -12 -51 -30.5t-107 -18.5q-45 0 -74.5 20.5 t-29.5 96.5q-4 82 -10.5 154.5t-14.5 146.5q-53 -2 -116.5 -2t-110.5 -4q-25 -90 -59.5 -172t-87 -145.5t-125 -100.5t-173.5 -37q-39 0 -78.5 9.5t-72.5 31t-53.5 57t-20.5 89.5zM467 1426q0 66 47 97.5t107 31.5q47 0 84 -17.5t67.5 -37t57 -37t53.5 -17.5q47 0 64.5 22.5 t17.5 53.5q0 16 12 22.5t21 6.5q20 0 33.5 -19.5t13.5 -54.5q0 -39 -17.5 -64.5t-43 -41t-53.5 -22.5t-50 -7q-41 0 -81 12t-81 49q-12 29 -37.5 39t-48.5 10q-47 0 -67.5 -22t-22.5 -55q-4 -4 -13.5 -6.5t-15.5 -2.5q-47 0 -47 60zM571 471h193q-4 45 -11 106.5t-17.5 125 t-20.5 123t-21 98.5q-6 -16 -17 -55.5t-25.5 -88.5t-28 -102t-25.5 -98t-19.5 -75t-7.5 -34z" />
<glyph unicode="&#xc4;" horiz-adv-x="1034" d="M-121 113q0 25 16.5 44t41.5 19q41 0 53 -27.5t23.5 -61.5t37 -61.5t92.5 -27.5q49 0 91.5 24.5t77 63.5t60 86t42.5 92q18 53 24 73.5t11 31.5q0 4 -7 4q-53 -6 -91 -9.5t-70 -3.5q-43 0 -72 5.5t-29 37.5q0 18 17.5 29.5t50.5 17t77 8.5t99 7q23 2 39 3t18 7 q18 57 35 116.5t33 119.5q27 104 47 228t20 243q0 20 -1 33.5t-1 19.5q10 4 26.5 4t33.5 4q16 4 39.5 13.5t54.5 9.5q10 0 33.5 -5.5t48.5 -14.5t44 -20.5t19 -23.5v-325q0 -162 16.5 -312.5t39 -268.5t48.5 -193t46 -85q-12 -12 -51 -30.5t-107 -18.5q-45 0 -74.5 20.5 t-29.5 96.5q-4 82 -10.5 154.5t-14.5 146.5q-53 -2 -116.5 -2t-110.5 -4q-25 -90 -59.5 -172t-87 -145.5t-125 -100.5t-173.5 -37q-39 0 -78.5 9.5t-72.5 31t-53.5 57t-20.5 89.5zM461 1430q0 59 44 89t87 30q12 0 32 -9.5t36 -24.5t28.5 -35t12.5 -38q0 -12 -16.5 -25.5 t-38 -24.5t-42 -19.5t-28.5 -8.5q-12 0 -31.5 7.5t-38 17.5t-32 21.5t-13.5 19.5zM571 471h193q-4 45 -11 106.5t-17.5 125t-20.5 123t-21 98.5q-6 -16 -17 -55.5t-25.5 -88.5t-28 -102t-25.5 -98t-19.5 -75t-7.5 -34zM832 1446q0 25 14.5 43.5t35 31.5t43 20.5t38.5 7.5 q12 0 30.5 -9.5t35 -24.5t28.5 -35t12 -38q0 -12 -16 -25.5t-37.5 -24.5t-42 -19.5t-28.5 -8.5q-14 0 -34 6.5t-37 17.5t-29.5 25.5t-12.5 32.5z" />
<glyph unicode="&#xc5;" horiz-adv-x="1034" d="M-121 113q0 25 16.5 44t41.5 19q41 0 53 -27.5t23.5 -61.5t37 -61.5t92.5 -27.5q49 0 91.5 24.5t77 63.5t60 86t42.5 92q18 53 24 73.5t11 31.5q0 4 -7 4q-53 -6 -91 -9.5t-70 -3.5q-43 0 -72 5.5t-29 37.5q0 18 17.5 29.5t50.5 17t77 8.5t99 7q23 2 39 3t18 7 q18 57 35 116.5t33 119.5q27 104 47 228t20 243q0 20 -1 33.5t-1 19.5q10 4 26.5 4t33.5 4q16 4 39.5 13.5t54.5 9.5q10 0 33.5 -5.5t48.5 -14.5t44 -20.5t19 -23.5v-325q0 -162 16.5 -312.5t39 -268.5t48.5 -193t46 -85q-12 -12 -51 -30.5t-107 -18.5q-45 0 -74.5 20.5 t-29.5 96.5q-4 82 -10.5 154.5t-14.5 146.5q-53 -2 -116.5 -2t-110.5 -4q-25 -90 -59.5 -172t-87 -145.5t-125 -100.5t-173.5 -37q-39 0 -78.5 9.5t-72.5 31t-53.5 57t-20.5 89.5zM571 471h193q-4 45 -11 106.5t-17.5 125t-20.5 123t-21 98.5q-6 -16 -17 -55.5t-25.5 -88.5 t-28 -102t-25.5 -98t-19.5 -75t-7.5 -34zM574 1473q0 51 45 84q0 12 15 22.5t38 18.5t47.5 12t44.5 4q25 0 55.5 -6t57 -20.5t45 -37t18.5 -57.5q0 -57 -50 -97t-142 -40q-37 0 -75 6t-67 33q-23 20 -27.5 35.5t-4.5 42.5zM647 1452q0 -29 34 -41t65 -12q29 0 58.5 9.5 t45.5 29.5q12 14 15.5 28.5t3.5 28.5q0 49 -60 54v-4q0 -25 -35 -25l-45 8q-6 0 -23.5 -4t-25.5 -4q0 -2 -14 -16l-14 -15q-4 -6 -5 -18v-19z" />
<glyph unicode="&#xc6;" horiz-adv-x="1976" d="M-10 113q0 25 16.5 44t40.5 19q41 0 53.5 -27.5t23.5 -61.5t36.5 -61.5t93.5 -27.5q49 0 89 24.5t73 63.5t56.5 86t39.5 92q18 53 24.5 73.5t10.5 31.5q0 4 -6 4l-17 -2q-29 -4 -61.5 -10.5t-83.5 -6.5q-43 0 -71.5 8.5t-28.5 40.5q0 18 17 29.5t50 17t77 8.5t99 7 q23 2 39.5 3t18.5 7q20 57 38.5 116.5t34.5 119.5q29 104 51.5 228t22.5 243q0 20 -1 33.5t-1 19.5q10 4 26.5 4t32.5 4t40 13.5t55 9.5q10 0 33.5 -5.5t48 -14.5t44 -20.5t19.5 -23.5v-135q39 51 107.5 90t146.5 64.5t155.5 38t137.5 12.5h84h10q10 0 30.5 -1t42 -2t39 -4 t19.5 -8q18 -18 40 -41.5t41 -51t32.5 -57.5t15.5 -58q0 -25 -7.5 -46.5t-25.5 -41.5q-8 33 -30.5 54t-52 33.5t-61.5 17.5t-56 5h-129q-37 0 -107 -6t-138.5 -25.5t-119.5 -56.5t-51 -98q0 -129 126 -190.5t337 -61.5q4 0 25.5 5t25.5 15q20 -12 38.5 -52t20.5 -77 q0 -16 -3 -39.5t-13 -33.5q-66 2 -101.5 3t-76.5 1q-45 0 -100.5 -3t-109.5 -17.5t-102.5 -45.5t-80.5 -84q-16 -29 -17 -59q4 -61 40 -96t86 -53.5t103.5 -22.5t90.5 -4q68 0 136 8t105 49q57 63 92 89t70 26q41 0 60.5 -15.5t19.5 -36.5q0 -27 -25 -57q-53 -57 -121.5 -92 t-140 -52.5t-141.5 -22.5t-127 -5q-45 0 -106.5 6t-120.5 39q-18 -10 -54 -23.5t-90 -13.5q-45 0 -74.5 20.5t-29.5 96.5q-4 82 -10.5 154.5t-14.5 146.5q-53 -2 -105 -2t-100 -4q-20 -88 -56 -170t-89 -145.5t-127 -101.5t-172 -38q-39 0 -79 9.5t-72.5 31t-53 57 t-20.5 89.5zM682 471h170q-4 45 -8 106.5t-9.5 125t-12.5 123t-17 98.5q-6 -16 -17.5 -55.5t-25.5 -88.5t-27.5 -102t-26 -98t-19.5 -75t-7 -34zM1024 815q2 -82 7 -164t13 -155q53 29 106.5 51t106.5 39q-86 35 -143 99t-90 130z" />
<glyph unicode="&#xc7;" horiz-adv-x="901" d="M53 543q0 154 28 287t75 232t111.5 156.5t138.5 57.5h43q37 0 62.5 -10.5t49 -25.5t48 -32.5t61.5 -33.5q61 -27 81.5 -97.5t20.5 -150.5q0 -29 -1 -59.5t-11 -56.5t-32.5 -44t-65.5 -23q-59 0 -82 41t-23 88q0 27 4 65t4 77q0 51 -15 90t-63 39q-76 0 -124 -54.5 t-75.5 -138.5t-38.5 -186t-11 -199q0 -98 5 -181t25.5 -148.5t59.5 -113.5t108 -79q29 -12 64 -12q51 0 97 23.5t81 62.5t55.5 89t20.5 103t19.5 94t64.5 41q33 0 43 -20.5t10 -46.5q0 -47 -10 -78q-14 -55 -46 -114.5t-79 -112.5q-70 -80 -154 -106.5t-151 -26.5 q-203 0 -300.5 155.5t-97.5 448.5zM305 -327q0 14 11.5 26.5t31.5 12.5q16 0 25.5 -8.5t19 -17.5t21.5 -16.5t35 -7.5q16 0 36.5 2t39 9.5t30.5 21.5t12 41q0 29 -31.5 36t-68.5 12t-68.5 18.5t-31.5 56.5q0 23 11 41t26.5 30.5t32 19.5t24.5 7l27 -16q-2 -4 -4.5 -12.5 t-2.5 -18.5t7.5 -20.5t29.5 -14.5q61 -12 96 -47t35 -82q0 -90 -61 -131t-141 -41q-59 0 -100.5 24.5t-41.5 74.5z" />
<glyph unicode="&#xc8;" horiz-adv-x="1046" d="M0 354q18 63 57 100.5t85 61t96.5 37.5t89.5 33q-66 29 -119 76t-90 100t-57.5 105.5t-20.5 90.5q0 80 60.5 138.5t147.5 97.5t184 58.5t171 19.5h84h10q10 0 31 -1t42.5 -2t38.5 -4t19 -8q18 -18 41 -41.5t43.5 -51t36 -57.5t17.5 -58q0 -25 -6.5 -46.5t-24.5 -41.5 q-10 33 -32.5 54t-52.5 33.5t-60.5 17.5t-57.5 5h-129q-37 0 -103.5 -6t-132 -25.5t-113.5 -55.5t-48 -95q0 -66 33.5 -114t96 -79.5t149.5 -47t192 -15.5q4 0 25.5 5t25.5 15q23 -14 43.5 -59t20.5 -84q0 -16 -2.5 -32.5t-12.5 -26.5q-66 2 -101.5 3t-76.5 1 q-45 0 -100.5 -3t-108.5 -17.5t-100 -45.5t-78 -84q-10 -16 -12 -29.5t-2 -29.5q6 -61 46 -96t92 -53.5t107.5 -22.5t92.5 -4q33 0 68.5 1t68.5 7t59.5 17t42.5 32q55 63 89 89t69 26q41 0 61.5 -15.5t20.5 -36.5q0 -16 -3 -28t-20 -29q-51 -57 -117.5 -91t-137 -52.5 t-140.5 -23.5t-129 -5q-33 0 -78 2t-92 16.5t-93 43t-83 81.5q-20 29 -42 64t-40 68.5t-29.5 65.5t-11.5 52zM355 1330v24q0 16 4 25.5t22 25.5q43 41 92 82t93.5 75t80 55.5t54.5 21.5q14 0 20 -12.5t6 -69.5q0 -33 -7 -46.5t-20.5 -19.5t-32 -10t-42.5 -18l-170 -119 q-10 -16 -30.5 -39t-33.5 -23q-6 0 -10 5q-8 14 -13 19l-8 8t-4 5t-1 11z" />
<glyph unicode="&#xc9;" horiz-adv-x="1046" d="M0 354q18 63 57 100.5t85 61t96.5 37.5t89.5 33q-66 29 -119 76t-90 100t-57.5 105.5t-20.5 90.5q0 80 60.5 138.5t147.5 97.5t184 58.5t171 19.5h84h10q10 0 31 -1t42.5 -2t38.5 -4t19 -8q18 -18 41 -41.5t43.5 -51t36 -57.5t17.5 -58q0 -25 -6.5 -46.5t-24.5 -41.5 q-10 33 -32.5 54t-52.5 33.5t-60.5 17.5t-57.5 5h-129q-37 0 -103.5 -6t-132 -25.5t-113.5 -55.5t-48 -95q0 -66 33.5 -114t96 -79.5t149.5 -47t192 -15.5q4 0 25.5 5t25.5 15q23 -14 43.5 -59t20.5 -84q0 -16 -2.5 -32.5t-12.5 -26.5q-66 2 -101.5 3t-76.5 1 q-45 0 -100.5 -3t-108.5 -17.5t-100 -45.5t-78 -84q-10 -16 -12 -29.5t-2 -29.5q6 -61 46 -96t92 -53.5t107.5 -22.5t92.5 -4q33 0 68.5 1t68.5 7t59.5 17t42.5 32q55 63 89 89t69 26q41 0 61.5 -15.5t20.5 -36.5q0 -16 -3 -28t-20 -29q-51 -57 -117.5 -91t-137 -52.5 t-140.5 -23.5t-129 -5q-33 0 -78 2t-92 16.5t-93 43t-83 81.5q-20 29 -42 64t-40 68.5t-29.5 65.5t-11.5 52zM355 1330v24q0 16 4 25.5t22 25.5q43 41 92 82t93.5 75t80 55.5t54.5 21.5q14 0 20 -12.5t6 -69.5q0 -33 -7 -46.5t-20.5 -19.5t-32 -10t-42.5 -18l-170 -119 q-10 -16 -30.5 -39t-33.5 -23q-6 0 -10 5q-8 14 -13 19l-8 8t-4 5t-1 11z" />
<glyph unicode="&#xca;" horiz-adv-x="1046" d="M0 354q18 63 57 100.5t85 61t96.5 37.5t89.5 33q-66 29 -119 76t-90 100t-57.5 105.5t-20.5 90.5q0 80 60.5 138.5t147.5 97.5t184 58.5t171 19.5h84h10q10 0 31 -1t42.5 -2t38.5 -4t19 -8q18 -18 41 -41.5t43.5 -51t36 -57.5t17.5 -58q0 -25 -6.5 -46.5t-24.5 -41.5 q-10 33 -32.5 54t-52.5 33.5t-60.5 17.5t-57.5 5h-129q-37 0 -103.5 -6t-132 -25.5t-113.5 -55.5t-48 -95q0 -66 33.5 -114t96 -79.5t149.5 -47t192 -15.5q4 0 25.5 5t25.5 15q23 -14 43.5 -59t20.5 -84q0 -16 -2.5 -32.5t-12.5 -26.5q-66 2 -101.5 3t-76.5 1 q-45 0 -100.5 -3t-108.5 -17.5t-100 -45.5t-78 -84q-10 -16 -12 -29.5t-2 -29.5q6 -61 46 -96t92 -53.5t107.5 -22.5t92.5 -4q33 0 68.5 1t68.5 7t59.5 17t42.5 32q55 63 89 89t69 26q41 0 61.5 -15.5t20.5 -36.5q0 -16 -3 -28t-20 -29q-51 -57 -117.5 -91t-137 -52.5 t-140.5 -23.5t-129 -5q-33 0 -78 2t-92 16.5t-93 43t-83 81.5q-20 29 -42 64t-40 68.5t-29.5 65.5t-11.5 52zM297 1341v4q0 8 2 14.5t13 16.5l34 39q16 16 60.5 52t115.5 112q10 10 23.5 25.5t38.5 15.5q23 0 29 -4t10 -14.5t13 -27t36 -40.5q61 -70 110.5 -120t49.5 -77 q0 -33 -25 -33q-18 0 -27.5 6.5t-16.5 15.5t-16 21.5t-26 22.5l-100 66q-25 16 -30 29.5t-11 13.5h-4q-10 0 -19.5 -8.5t-27.5 -20.5l-215 -150q-4 0 -10.5 15.5t-6.5 25.5z" />
<glyph unicode="&#xcb;" horiz-adv-x="1046" d="M0 354q18 63 57 100.5t85 61t96.5 37.5t89.5 33q-66 29 -119 76t-90 100t-57.5 105.5t-20.5 90.5q0 80 60.5 138.5t147.5 97.5t184 58.5t171 19.5h84h10q10 0 31 -1t42.5 -2t38.5 -4t19 -8q18 -18 41 -41.5t43.5 -51t36 -57.5t17.5 -58q0 -25 -6.5 -46.5t-24.5 -41.5 q-10 33 -32.5 54t-52.5 33.5t-60.5 17.5t-57.5 5h-129q-37 0 -103.5 -6t-132 -25.5t-113.5 -55.5t-48 -95q0 -66 33.5 -114t96 -79.5t149.5 -47t192 -15.5q4 0 25.5 5t25.5 15q23 -14 43.5 -59t20.5 -84q0 -16 -2.5 -32.5t-12.5 -26.5q-66 2 -101.5 3t-76.5 1 q-45 0 -100.5 -3t-108.5 -17.5t-100 -45.5t-78 -84q-10 -16 -12 -29.5t-2 -29.5q6 -61 46 -96t92 -53.5t107.5 -22.5t92.5 -4q33 0 68.5 1t68.5 7t59.5 17t42.5 32q55 63 89 89t69 26q41 0 61.5 -15.5t20.5 -36.5q0 -16 -3 -28t-20 -29q-51 -57 -117.5 -91t-137 -52.5 t-140.5 -23.5t-129 -5q-33 0 -78 2t-92 16.5t-93 43t-83 81.5q-20 29 -42 64t-40 68.5t-29.5 65.5t-11.5 52zM297 1450q0 59 44 89t87 30q12 0 32 -9.5t36 -24.5t28.5 -35t12.5 -38q0 -12 -16.5 -25.5t-38 -24.5t-42 -19.5t-28.5 -8.5q-12 0 -31.5 7.5t-38 17.5t-32 21.5 t-13.5 19.5zM668 1466q0 25 14.5 43.5t35 31.5t43 20.5t38.5 7.5q12 0 30.5 -9.5t35 -24.5t28.5 -35t12 -38q0 -12 -16 -25.5t-37.5 -24.5t-42 -19.5t-28.5 -8.5q-14 0 -34 6.5t-37 17.5t-29.5 25.5t-12.5 32.5z" />
<glyph unicode="&#xcc;" horiz-adv-x="804" d="M-72 250q0 45 11.5 87t33 73.5t52 51t69.5 19.5q37 0 47.5 -19.5t10.5 -39.5q0 -45 -18.5 -75t-40 -52.5t-40 -45t-18.5 -54.5q0 -98 65.5 -141.5t163.5 -43.5q86 0 149.5 35t105.5 88t62.5 115.5t20.5 118.5l-31 -2q-74 0 -128 33.5t-90 85t-53 110.5t-17 111v71 q0 39 10 91.5t28.5 108.5t45 110.5t57.5 97.5t65.5 69.5t71.5 26.5q14 0 33 -6l143 -10q14 -2 27.5 -10.5t13.5 -28.5q-2 -2 -5 -10.5t-3 -28.5q0 -29 8 -56v-677q0 -104 -20.5 -200.5t-70.5 -171.5t-137 -119t-222 -44h-27q-117 0 -189.5 32t-113.5 81t-55.5 107.5 t-14.5 111.5zM406 1504q4 6 4 18v8q0 49 13 78t28 29q8 0 35.5 -17.5t64.5 -45t78 -60.5t74.5 -62.5t56 -53t22.5 -34.5l5 -45q0 -31 -23 -30q-12 0 -24 14.5t-35 24.5q-29 16 -74 53t-117 78q-14 8 -41.5 21t-42.5 17zM408 791q0 -27 4 -77t19 -99.5t43 -86t75 -36.5 q4 0 23.5 2t29.5 6v479q4 16 8 30.5t4 32.5q0 27 -13 48.5t-48 21.5q-45 0 -73.5 -37t-44 -88t-21.5 -106.5t-6 -89.5z" />
<glyph unicode="&#xcd;" horiz-adv-x="804" d="M-72 250q0 45 11.5 87t33 73.5t52 51t69.5 19.5q37 0 47.5 -19.5t10.5 -39.5q0 -45 -18.5 -75t-40 -52.5t-40 -45t-18.5 -54.5q0 -98 65.5 -141.5t163.5 -43.5q86 0 149.5 35t105.5 88t62.5 115.5t20.5 118.5l-31 -2q-74 0 -128 33.5t-90 85t-53 110.5t-17 111v71 q0 39 10 91.5t28.5 108.5t45 110.5t57.5 97.5t65.5 69.5t71.5 26.5q14 0 33 -6l143 -10q14 -2 27.5 -10.5t13.5 -28.5q-2 -2 -5 -10.5t-3 -28.5q0 -29 8 -56v-677q0 -104 -20.5 -200.5t-70.5 -171.5t-137 -119t-222 -44h-27q-117 0 -189.5 32t-113.5 81t-55.5 107.5 t-14.5 111.5zM334 1330v24q0 16 4 25.5t22 25.5q43 41 92 82t93.5 75t80 55.5t54.5 21.5q14 0 20 -12.5t6 -69.5q0 -33 -7 -46.5t-20.5 -19.5t-32 -10t-42.5 -18l-170 -119q-10 -16 -30.5 -39t-33.5 -23q-6 0 -10 5q-8 14 -13 19l-8 8t-4 5t-1 11zM408 791q0 -27 4 -77 t19 -99.5t43 -86t75 -36.5q4 0 23.5 2t29.5 6v479q4 16 8 30.5t4 32.5q0 27 -13 48.5t-48 21.5q-45 0 -73.5 -37t-44 -88t-21.5 -106.5t-6 -89.5z" />
<glyph unicode="&#xce;" horiz-adv-x="804" d="M-72 250q0 45 11.5 87t33 73.5t52 51t69.5 19.5q37 0 47.5 -19.5t10.5 -39.5q0 -45 -18.5 -75t-40 -52.5t-40 -45t-18.5 -54.5q0 -98 65.5 -141.5t163.5 -43.5q86 0 149.5 35t105.5 88t62.5 115.5t20.5 118.5l-31 -2q-74 0 -128 33.5t-90 85t-53 110.5t-17 111v71 q0 39 10 91.5t28.5 108.5t45 110.5t57.5 97.5t65.5 69.5t71.5 26.5q14 0 33 -6l143 -10q14 -2 27.5 -10.5t13.5 -28.5q-2 -2 -5 -10.5t-3 -28.5q0 -29 8 -56v-677q0 -104 -20.5 -200.5t-70.5 -171.5t-137 -119t-222 -44h-27q-117 0 -189.5 32t-113.5 81t-55.5 107.5 t-14.5 111.5zM317 1321v4q0 8 2 14.5t13 16.5l34 39q16 16 60.5 52t115.5 112q10 10 23.5 25.5t38.5 15.5q23 0 29 -4t10 -14.5t13 -27t36 -40.5q61 -70 110.5 -120t49.5 -77q0 -33 -25 -33q-18 0 -27.5 6.5t-16.5 15.5t-16 21.5t-26 22.5l-100 66q-25 16 -30 29.5t-11 13.5 h-4q-10 0 -19.5 -8.5t-27.5 -20.5l-215 -150q-4 0 -10.5 15.5t-6.5 25.5zM408 791q0 -27 4 -77t19 -99.5t43 -86t75 -36.5q4 0 23.5 2t29.5 6v479q4 16 8 30.5t4 32.5q0 27 -13 48.5t-48 21.5q-45 0 -73.5 -37t-44 -88t-21.5 -106.5t-6 -89.5z" />
<glyph unicode="&#xcf;" horiz-adv-x="804" d="M-72 250q0 45 11.5 87t33 73.5t52 51t69.5 19.5q37 0 47.5 -19.5t10.5 -39.5q0 -45 -18.5 -75t-40 -52.5t-40 -45t-18.5 -54.5q0 -98 65.5 -141.5t163.5 -43.5q86 0 149.5 35t105.5 88t62.5 115.5t20.5 118.5l-31 -2q-74 0 -128 33.5t-90 85t-53 110.5t-17 111v71 q0 39 10 91.5t28.5 108.5t45 110.5t57.5 97.5t65.5 69.5t71.5 26.5q14 0 33 -6l143 -10q14 -2 27.5 -10.5t13.5 -28.5q-2 -2 -5 -10.5t-3 -28.5q0 -29 8 -56v-677q0 -104 -20.5 -200.5t-70.5 -171.5t-137 -119t-222 -44h-27q-117 0 -189.5 32t-113.5 81t-55.5 107.5 t-14.5 111.5zM264 1430q0 59 44 89t87 30q12 0 32 -9.5t36 -24.5t28.5 -35t12.5 -38q0 -12 -16.5 -25.5t-38 -24.5t-42 -19.5t-28.5 -8.5q-12 0 -31.5 7.5t-38 17.5t-32 21.5t-13.5 19.5zM408 791q0 -27 4 -77t19 -99.5t43 -86t75 -36.5q4 0 23.5 2t29.5 6v479q4 16 8 30.5 t4 32.5q0 27 -13 48.5t-48 21.5q-45 0 -73.5 -37t-44 -88t-21.5 -106.5t-6 -89.5zM635 1446q0 25 14.5 43.5t35 31.5t43 20.5t38.5 7.5q12 0 30.5 -9.5t35 -24.5t28.5 -35t12 -38q0 -12 -16 -25.5t-37.5 -24.5t-42 -19.5t-28.5 -8.5q-14 0 -34 6.5t-37 17.5t-29.5 25.5 t-12.5 32.5z" />
<glyph unicode="&#xd0;" horiz-adv-x="1024" d="M-90 872q0 98 71.5 179.5t187.5 139.5t258 90t284 32q123 0 235.5 -30t200.5 -99.5t140 -182t52 -278.5v-16q2 -59 -8 -118t-22 -114q-18 -90 -64.5 -184t-111 -170t-145.5 -124t-167 -48h-4q-53 0 -104 25.5t-121 54.5q-8 4 -31.5 10t-49.5 16.5t-47.5 27.5t-27.5 44 v362q-35 -14 -55.5 -22t-37.5 -15.5t-35.5 -14.5t-49.5 -19q-23 -8 -42 -13.5t-38 -5.5q-29 0 -55.5 17.5t-26.5 52.5q0 10 7.5 20.5t29.5 18.5l4 2q35 16 72 27.5t76 27.5l151 60v266q0 59 -6 110.5t-31 73.5h19q45 0 93 14.5t79 14.5q20 0 31.5 -9.5t11.5 -33.5v-361 l192 74q4 2 17 2q16 0 30.5 -9t25.5 -21.5t17.5 -25.5t6.5 -22q0 -25 -39 -39l-250 -94v-422q39 -12 58.5 -23t32.5 -19.5t25.5 -13.5t36.5 -5q96 0 165 53t114 143.5t66.5 208t21.5 244.5q0 100 -23.5 186.5t-80 151t-151.5 102t-241 39.5h-14q-289 0 -429 -79.5 t-140 -215.5q0 -27 9 -45t19.5 -36.5t20.5 -39t12 -51.5q-8 -16 -22.5 -32.5t-32.5 -16.5q-23 0 -52.5 13.5t-56 37t-44 56.5t-17.5 71z" />
<glyph unicode="&#xd1;" horiz-adv-x="1157" d="M-59 739q0 98 25.5 198.5t73.5 183.5t115.5 135.5t149.5 52.5q41 0 80 -21.5t73 -56.5t60.5 -77t44.5 -85q16 -35 26.5 -83t17 -100t9.5 -105.5t5 -96.5q2 -27 4 -70t3 -91t1 -96v-87q12 45 42 142.5t63.5 214t65.5 235.5t50 205q8 33 29.5 39t36.5 6q37 0 74.5 -27 t68.5 -62.5t50.5 -71.5t19.5 -54q-20 -10 -34.5 -64.5t-24 -140.5t-14.5 -197.5t-5 -234.5q0 -39 2 -92.5t13 -100.5t36 -79.5t70 -32.5q4 0 10 3t18 5q4 -13 4 -15q0 -18 -9 -30.5t-22.5 -19.5t-28.5 -11t-26 -4q-88 0 -136 49t-71.5 122t-28.5 157t-5 153q0 20 2 72.5 t3 109t3 101.5t2 53q0 27 -10 27q-12 -18 -31.5 -69.5t-42 -121t-46.5 -149.5t-42 -156t-29.5 -139.5t-11.5 -102.5q0 -20 9 -36.5t9 -20.5q2 -6 -9 -10t-25 -8q-16 -4 -35 -4h-15q-41 0 -64.5 8t-49.5 28q-35 29 -51.5 62t-16.5 86q0 35 3 98.5t8.5 135t8.5 141t3 116.5 q0 152 -8.5 256.5t-27 169t-46 94t-64.5 29.5q-74 0 -123 -50t-78.5 -121.5t-42 -152.5t-12.5 -143q0 -14 2 -55t11.5 -84t29 -76t52.5 -33l36 3q8 0 26.5 -3.5t37 -11.5t33 -21.5t14.5 -33.5q0 -12 -13.5 -19.5t-29.5 -11.5t-31.5 -6t-19.5 -2q-66 0 -114 28.5t-78.5 78 t-46 114t-15.5 135.5zM399 1426q0 66 47 97.5t107 31.5q47 0 84 -17.5t67.5 -37t57 -37t53.5 -17.5q47 0 64.5 22.5t17.5 53.5q0 16 12 22.5t21 6.5q20 0 33.5 -19.5t13.5 -54.5q0 -39 -17.5 -64.5t-43 -41t-53.5 -22.5t-50 -7q-41 0 -81 12t-81 49q-12 29 -37.5 39 t-48.5 10q-47 0 -67.5 -22t-22.5 -55q-4 -4 -13.5 -6.5t-15.5 -2.5q-47 0 -47 60z" />
<glyph unicode="&#xd2;" horiz-adv-x="1157" d="M53 545q0 57 7.5 125.5t29 143.5t58 151.5t98.5 146.5q35 74 91 111t126 37q23 0 42 -6.5t43.5 -14.5t56.5 -15t77 -12q92 -6 159.5 -69.5t112.5 -158.5t67.5 -209.5t22.5 -227.5q0 -129 -32.5 -234.5t-96 -181.5t-156.5 -117t-214 -41q-127 0 -220.5 50.5t-153.5 132.5 t-89 183t-29 206zM240 559q0 -76 11 -158t47 -151.5t102.5 -114.5t174.5 -45q102 0 163 53.5t94.5 129t44 162t10.5 149.5q0 35 -5 90t-18.5 116.5t-36 124t-57.5 112.5t-82 82t-110 32q-47 0 -79 -20.5t-51.5 -52.5t-27.5 -71t-8 -75q0 -51 18.5 -98.5t51 -82t77.5 -55 t96 -20.5q37 0 70 18t47 41q4 -23 11.5 -39t7.5 -27q0 -27 -26 -43t-58.5 -25t-64.5 -12.5t-46 -3.5q-43 0 -92 15.5t-95.5 45.5t-82 75t-52.5 104q-23 -66 -28.5 -132.5t-5.5 -123.5zM398 1504q4 6 4 18v8q0 49 13 78t28 29q8 0 35.5 -17.5t64.5 -45t78 -60.5t74.5 -62.5 t56 -53t22.5 -34.5l5 -45q0 -31 -23 -30q-12 0 -24 14.5t-35 24.5q-29 16 -74 53t-117 78q-14 8 -41.5 21t-42.5 17z" />
<glyph unicode="&#xd3;" horiz-adv-x="1157" d="M53 545q0 57 7.5 125.5t29 143.5t58 151.5t98.5 146.5q35 74 91 111t126 37q23 0 42 -6.5t43.5 -14.5t56.5 -15t77 -12q92 -6 159.5 -69.5t112.5 -158.5t67.5 -209.5t22.5 -227.5q0 -129 -32.5 -234.5t-96 -181.5t-156.5 -117t-214 -41q-127 0 -220.5 50.5t-153.5 132.5 t-89 183t-29 206zM240 559q0 -76 11 -158t47 -151.5t102.5 -114.5t174.5 -45q102 0 163 53.5t94.5 129t44 162t10.5 149.5q0 35 -5 90t-18.5 116.5t-36 124t-57.5 112.5t-82 82t-110 32q-47 0 -79 -20.5t-51.5 -52.5t-27.5 -71t-8 -75q0 -51 18.5 -98.5t51 -82t77.5 -55 t96 -20.5q37 0 70 18t47 41q4 -23 11.5 -39t7.5 -27q0 -27 -26 -43t-58.5 -25t-64.5 -12.5t-46 -3.5q-43 0 -92 15.5t-95.5 45.5t-82 75t-52.5 104q-23 -66 -28.5 -132.5t-5.5 -123.5zM367 1350v24q0 16 4 25.5t22 25.5q43 41 92 82t93.5 75t80 55.5t54.5 21.5 q14 0 20 -12.5t6 -69.5q0 -33 -7 -46.5t-20.5 -19.5t-32 -10t-42.5 -18l-170 -119q-10 -16 -30.5 -39t-33.5 -23q-6 0 -10 5q-8 14 -13 19l-8 8t-4 5t-1 11z" />
<glyph unicode="&#xd4;" horiz-adv-x="1157" d="M53 545q0 57 7.5 125.5t29 143.5t58 151.5t98.5 146.5q35 74 91 111t126 37q23 0 42 -6.5t43.5 -14.5t56.5 -15t77 -12q92 -6 159.5 -69.5t112.5 -158.5t67.5 -209.5t22.5 -227.5q0 -129 -32.5 -234.5t-96 -181.5t-156.5 -117t-214 -41q-127 0 -220.5 50.5t-153.5 132.5 t-89 183t-29 206zM240 559q0 -76 11 -158t47 -151.5t102.5 -114.5t174.5 -45q102 0 163 53.5t94.5 129t44 162t10.5 149.5q0 35 -5 90t-18.5 116.5t-36 124t-57.5 112.5t-82 82t-110 32q-47 0 -79 -20.5t-51.5 -52.5t-27.5 -71t-8 -75q0 -51 18.5 -98.5t51 -82t77.5 -55 t96 -20.5q37 0 70 18t47 41q4 -23 11.5 -39t7.5 -27q0 -27 -26 -43t-58.5 -25t-64.5 -12.5t-46 -3.5q-43 0 -92 15.5t-95.5 45.5t-82 75t-52.5 104q-23 -66 -28.5 -132.5t-5.5 -123.5zM284 1321v4q0 8 2 14.5t13 16.5l34 39q16 16 60.5 52t115.5 112q10 10 23.5 25.5 t38.5 15.5q23 0 29 -4t10 -14.5t13 -27t36 -40.5q61 -70 110.5 -120t49.5 -77q0 -33 -25 -33q-18 0 -27.5 6.5t-16.5 15.5t-16 21.5t-26 22.5l-100 66q-25 16 -30 29.5t-11 13.5h-4q-10 0 -19.5 -8.5t-27.5 -20.5l-215 -150q-4 0 -10.5 15.5t-6.5 25.5z" />
<glyph unicode="&#xd5;" horiz-adv-x="1157" d="M53 545q0 57 7.5 125.5t29 143.5t58 151.5t98.5 146.5q35 74 91 111t126 37q23 0 42 -6.5t43.5 -14.5t56.5 -15t77 -12q92 -6 159.5 -69.5t112.5 -158.5t67.5 -209.5t22.5 -227.5q0 -129 -32.5 -234.5t-96 -181.5t-156.5 -117t-214 -41q-127 0 -220.5 50.5t-153.5 132.5 t-89 183t-29 206zM240 559q0 -76 11 -158t47 -151.5t102.5 -114.5t174.5 -45q102 0 163 53.5t94.5 129t44 162t10.5 149.5q0 35 -5 90t-18.5 116.5t-36 124t-57.5 112.5t-82 82t-110 32q-47 0 -79 -20.5t-51.5 -52.5t-27.5 -71t-8 -75q0 -51 18.5 -98.5t51 -82t77.5 -55 t96 -20.5q37 0 70 18t47 41q4 -23 11.5 -39t7.5 -27q0 -27 -26 -43t-58.5 -25t-64.5 -12.5t-46 -3.5q-43 0 -92 15.5t-95.5 45.5t-82 75t-52.5 104q-23 -66 -28.5 -132.5t-5.5 -123.5zM297 1426q0 66 47 97.5t107 31.5q47 0 84 -17.5t67.5 -37t57 -37t53.5 -17.5 q47 0 64.5 22.5t17.5 53.5q0 16 12 22.5t21 6.5q20 0 33.5 -19.5t13.5 -54.5q0 -39 -17.5 -64.5t-43 -41t-53.5 -22.5t-50 -7q-41 0 -81 12t-81 49q-12 29 -37.5 39t-48.5 10q-47 0 -67.5 -22t-22.5 -55q-4 -4 -13.5 -6.5t-15.5 -2.5q-47 0 -47 60z" />
<glyph unicode="&#xd6;" horiz-adv-x="1157" d="M53 545q0 57 7.5 125.5t29 143.5t58 151.5t98.5 146.5q35 74 91 111t126 37q23 0 42 -6.5t43.5 -14.5t56.5 -15t77 -12q92 -6 159.5 -69.5t112.5 -158.5t67.5 -209.5t22.5 -227.5q0 -129 -32.5 -234.5t-96 -181.5t-156.5 -117t-214 -41q-127 0 -220.5 50.5t-153.5 132.5 t-89 183t-29 206zM240 559q0 -76 11 -158t47 -151.5t102.5 -114.5t174.5 -45q102 0 163 53.5t94.5 129t44 162t10.5 149.5q0 35 -5 90t-18.5 116.5t-36 124t-57.5 112.5t-82 82t-110 32q-47 0 -79 -20.5t-51.5 -52.5t-27.5 -71t-8 -75q0 -51 18.5 -98.5t51 -82t77.5 -55 t96 -20.5q37 0 70 18t47 41q4 -23 11.5 -39t7.5 -27q0 -27 -26 -43t-58.5 -25t-64.5 -12.5t-46 -3.5q-43 0 -92 15.5t-95.5 45.5t-82 75t-52.5 104q-23 -66 -28.5 -132.5t-5.5 -123.5zM276 1430q0 59 44 89t87 30q12 0 32 -9.5t36 -24.5t28.5 -35t12.5 -38 q0 -12 -16.5 -25.5t-38 -24.5t-42 -19.5t-28.5 -8.5q-12 0 -31.5 7.5t-38 17.5t-32 21.5t-13.5 19.5zM647 1446q0 25 14.5 43.5t35 31.5t43 20.5t38.5 7.5q12 0 30.5 -9.5t35 -24.5t28.5 -35t12 -38q0 -12 -16 -25.5t-37.5 -24.5t-42 -19.5t-28.5 -8.5q-14 0 -34 6.5 t-37 17.5t-29.5 25.5t-12.5 32.5z" />
<glyph unicode="&#xd8;" horiz-adv-x="1024" d="M-10 -59q0 6 4 18q68 121 141 240q-47 92 -63.5 197.5t-16.5 197.5q0 53 6.5 122.5t21.5 143.5t39.5 145.5t63.5 128t93.5 91.5t126.5 35q12 0 32.5 -4.5t43 -9.5l45 -10t36.5 -9q66 -12 114 -23.5t95 -46.5q4 10 10 19.5t13 19.5q29 51 61.5 111.5t77.5 107.5 q29 12 57 12q41 0 72 -20.5t31 -48.5q0 -16 -9 -31q-18 -16 -29.5 -33.5t-23.5 -29.5q-43 -53 -84 -106.5t-82 -106.5q27 -45 47.5 -102.5t35 -117t22.5 -116t8 -97.5v-135q0 -59 -14.5 -129.5t-42 -136t-70.5 -119t-100 -78.5q-18 -10 -51 -21t-54 -11h-112q-29 0 -68 8 t-68 16q-45 10 -84 23.5t-75 38.5q-18 -41 -37 -83t-35 -85q-10 -23 -29.5 -31t-42.5 -8q-39 0 -72.5 21.5t-33.5 52.5zM238 614q0 -45 5 -103t17 -120q10 14 19.5 28.5t19.5 29.5q72 100 148.5 198t144.5 209q29 47 57.5 95t57.5 98q-4 0 -5 4q-35 35 -86 46t-96 11 q-94 0 -150.5 -51t-85 -126t-37.5 -161t-9 -158zM315 233q31 -55 75 -91t110 -36h86q47 0 86 28t67.5 69t47 89t24.5 87q8 47 11 92t3 92q0 70 -10 170.5t-43 192.5v-2q-61 -86 -127.5 -167t-124.5 -167q-59 -92 -108.5 -178t-96.5 -179z" />
<glyph unicode="&#xd9;" horiz-adv-x="1187" d="M-55 651q0 33 9 95.5t28.5 138.5t49.5 154.5t68.5 143t89 105.5t111.5 41q43 0 77 -22.5t62 -44.5q49 -37 81 -88.5t48.5 -125t22.5 -172t6 -231.5q0 -37 -3 -86t-6 -101t-6 -107.5t-3 -104.5q0 -18 1 -56t8 -76t21.5 -67t40.5 -29q14 0 26.5 13.5t23 32t17.5 37t11 28.5 q82 199 103.5 402.5t21.5 418.5q0 27 -7 51.5t-7 49.5q0 10 12 19t29.5 16.5t34 11.5t24.5 4q12 0 33.5 -7.5t45.5 -18.5t45.5 -23.5t31.5 -22.5q-18 -10 -29 -29q-8 -18 -16 -86.5t-15.5 -171t-11.5 -230.5t-4 -263q0 -16 3 -55t10.5 -78t21.5 -69t35 -30q8 0 16 13.5 t17.5 29t20.5 27.5t23 12q-2 -4 -4 -18t-2 -27q0 -8 2 -21.5t2 -17.5q0 -16 -17 -38.5t-71 -22.5q-74 0 -115.5 31.5t-63 77t-28 91.5t-8.5 74q-12 -25 -33.5 -79t-49 -109t-58.5 -97t-61 -42q-80 0 -133.5 32.5t-85 84t-45 114t-13.5 121.5q0 10 2 54t5 112.5t9.5 160 t14.5 195.5q0 4 1 24.5t1 45t1 45t1 24.5q0 25 -2 74t-12.5 98.5t-30 86t-53.5 36.5q-49 0 -97.5 -59t-86.5 -145t-61.5 -182.5t-23.5 -170.5q0 -29 4.5 -65.5t16.5 -69.5t34.5 -55.5t61.5 -22.5q27 0 41 13.5t25.5 31t20.5 30.5t26 13q20 0 31.5 -22.5t11.5 -40.5 q0 -49 -37 -66.5t-78 -17.5q-129 0 -196.5 75.5t-67.5 194.5zM508 1483q4 6 4 18v8q0 49 13 78t28 29q8 0 35.5 -17.5t64.5 -45t78 -60.5t74.5 -62.5t56 -53t22.5 -34.5l5 -45q0 -31 -23 -30q-12 0 -24 14.5t-35 24.5q-29 16 -74 53t-117 78q-14 8 -41.5 21t-42.5 17z" />
<glyph unicode="&#xda;" horiz-adv-x="1187" d="M-55 651q0 33 9 95.5t28.5 138.5t49.5 154.5t68.5 143t89 105.5t111.5 41q43 0 77 -22.5t62 -44.5q49 -37 81 -88.5t48.5 -125t22.5 -172t6 -231.5q0 -37 -3 -86t-6 -101t-6 -107.5t-3 -104.5q0 -18 1 -56t8 -76t21.5 -67t40.5 -29q14 0 26.5 13.5t23 32t17.5 37t11 28.5 q82 199 103.5 402.5t21.5 418.5q0 27 -7 51.5t-7 49.5q0 10 12 19t29.5 16.5t34 11.5t24.5 4q12 0 33.5 -7.5t45.5 -18.5t45.5 -23.5t31.5 -22.5q-18 -10 -29 -29q-8 -18 -16 -86.5t-15.5 -171t-11.5 -230.5t-4 -263q0 -16 3 -55t10.5 -78t21.5 -69t35 -30q8 0 16 13.5 t17.5 29t20.5 27.5t23 12q-2 -4 -4 -18t-2 -27q0 -8 2 -21.5t2 -17.5q0 -16 -17 -38.5t-71 -22.5q-74 0 -115.5 31.5t-63 77t-28 91.5t-8.5 74q-12 -25 -33.5 -79t-49 -109t-58.5 -97t-61 -42q-80 0 -133.5 32.5t-85 84t-45 114t-13.5 121.5q0 10 2 54t5 112.5t9.5 160 t14.5 195.5q0 4 1 24.5t1 45t1 45t1 24.5q0 25 -2 74t-12.5 98.5t-30 86t-53.5 36.5q-49 0 -97.5 -59t-86.5 -145t-61.5 -182.5t-23.5 -170.5q0 -29 4.5 -65.5t16.5 -69.5t34.5 -55.5t61.5 -22.5q27 0 41 13.5t25.5 31t20.5 30.5t26 13q20 0 31.5 -22.5t11.5 -40.5 q0 -49 -37 -66.5t-78 -17.5q-129 0 -196.5 75.5t-67.5 194.5zM539 1350v24q0 16 4 25.5t22 25.5q43 41 92 82t93.5 75t80 55.5t54.5 21.5q14 0 20 -12.5t6 -69.5q0 -33 -7 -46.5t-20.5 -19.5t-32 -10t-42.5 -18l-170 -119q-10 -16 -30.5 -39t-33.5 -23q-6 0 -10 5 q-8 14 -13 19l-8 8t-4 5t-1 11z" />
<glyph unicode="&#xdb;" horiz-adv-x="1187" d="M-55 651q0 33 9 95.5t28.5 138.5t49.5 154.5t68.5 143t89 105.5t111.5 41q43 0 77 -22.5t62 -44.5q49 -37 81 -88.5t48.5 -125t22.5 -172t6 -231.5q0 -37 -3 -86t-6 -101t-6 -107.5t-3 -104.5q0 -18 1 -56t8 -76t21.5 -67t40.5 -29q14 0 26.5 13.5t23 32t17.5 37t11 28.5 q82 199 103.5 402.5t21.5 418.5q0 27 -7 51.5t-7 49.5q0 10 12 19t29.5 16.5t34 11.5t24.5 4q12 0 33.5 -7.5t45.5 -18.5t45.5 -23.5t31.5 -22.5q-18 -10 -29 -29q-8 -18 -16 -86.5t-15.5 -171t-11.5 -230.5t-4 -263q0 -16 3 -55t10.5 -78t21.5 -69t35 -30q8 0 16 13.5 t17.5 29t20.5 27.5t23 12q-2 -4 -4 -18t-2 -27q0 -8 2 -21.5t2 -17.5q0 -16 -17 -38.5t-71 -22.5q-74 0 -115.5 31.5t-63 77t-28 91.5t-8.5 74q-12 -25 -33.5 -79t-49 -109t-58.5 -97t-61 -42q-80 0 -133.5 32.5t-85 84t-45 114t-13.5 121.5q0 10 2 54t5 112.5t9.5 160 t14.5 195.5q0 4 1 24.5t1 45t1 45t1 24.5q0 25 -2 74t-12.5 98.5t-30 86t-53.5 36.5q-49 0 -97.5 -59t-86.5 -145t-61.5 -182.5t-23.5 -170.5q0 -29 4.5 -65.5t16.5 -69.5t34.5 -55.5t61.5 -22.5q27 0 41 13.5t25.5 31t20.5 30.5t26 13q20 0 31.5 -22.5t11.5 -40.5 q0 -49 -37 -66.5t-78 -17.5q-129 0 -196.5 75.5t-67.5 194.5zM487 1321v4q0 8 2 14.5t13 16.5l34 39q16 16 60.5 52t115.5 112q10 10 23.5 25.5t38.5 15.5q23 0 29 -4t10 -14.5t13 -27t36 -40.5q61 -70 110.5 -120t49.5 -77q0 -33 -25 -33q-18 0 -27.5 6.5t-16.5 15.5 t-16 21.5t-26 22.5l-100 66q-25 16 -30 29.5t-11 13.5h-4q-10 0 -19.5 -8.5t-27.5 -20.5l-215 -150q-4 0 -10.5 15.5t-6.5 25.5z" />
<glyph unicode="&#xdc;" horiz-adv-x="1187" d="M-55 651q0 33 9 95.5t28.5 138.5t49.5 154.5t68.5 143t89 105.5t111.5 41q43 0 77 -22.5t62 -44.5q49 -37 81 -88.5t48.5 -125t22.5 -172t6 -231.5q0 -37 -3 -86t-6 -101t-6 -107.5t-3 -104.5q0 -18 1 -56t8 -76t21.5 -67t40.5 -29q14 0 26.5 13.5t23 32t17.5 37t11 28.5 q82 199 103.5 402.5t21.5 418.5q0 27 -7 51.5t-7 49.5q0 10 12 19t29.5 16.5t34 11.5t24.5 4q12 0 33.5 -7.5t45.5 -18.5t45.5 -23.5t31.5 -22.5q-18 -10 -29 -29q-8 -18 -16 -86.5t-15.5 -171t-11.5 -230.5t-4 -263q0 -16 3 -55t10.5 -78t21.5 -69t35 -30q8 0 16 13.5 t17.5 29t20.5 27.5t23 12q-2 -4 -4 -18t-2 -27q0 -8 2 -21.5t2 -17.5q0 -16 -17 -38.5t-71 -22.5q-74 0 -115.5 31.5t-63 77t-28 91.5t-8.5 74q-12 -25 -33.5 -79t-49 -109t-58.5 -97t-61 -42q-80 0 -133.5 32.5t-85 84t-45 114t-13.5 121.5q0 10 2 54t5 112.5t9.5 160 t14.5 195.5q0 4 1 24.5t1 45t1 45t1 24.5q0 25 -2 74t-12.5 98.5t-30 86t-53.5 36.5q-49 0 -97.5 -59t-86.5 -145t-61.5 -182.5t-23.5 -170.5q0 -29 4.5 -65.5t16.5 -69.5t34.5 -55.5t61.5 -22.5q27 0 41 13.5t25.5 31t20.5 30.5t26 13q20 0 31.5 -22.5t11.5 -40.5 q0 -49 -37 -66.5t-78 -17.5q-129 0 -196.5 75.5t-67.5 194.5zM420 1430q0 59 44 89t87 30q12 0 32 -9.5t36 -24.5t28.5 -35t12.5 -38q0 -12 -16.5 -25.5t-38 -24.5t-42 -19.5t-28.5 -8.5q-12 0 -31.5 7.5t-38 17.5t-32 21.5t-13.5 19.5zM791 1446q0 25 14.5 43.5t35 31.5 t43 20.5t38.5 7.5q12 0 30.5 -9.5t35 -24.5t28.5 -35t12 -38q0 -12 -16 -25.5t-37.5 -24.5t-42 -19.5t-28.5 -8.5q-14 0 -34 6.5t-37 17.5t-29.5 25.5t-12.5 32.5z" />
<glyph unicode="&#xdd;" horiz-adv-x="1155" d="M-43 664q0 63 13 141t39 157.5t62.5 156.5t85 136.5t107.5 95t127 35.5q53 0 82 -27.5t59 -62.5q12 -10 34 -27.5t32 -27.5q14 -14 23.5 -52t14.5 -81t7 -84t2 -63q0 -90 -10.5 -182.5t-23.5 -184.5t-23.5 -185.5t-10.5 -185.5q0 -18 2 -50t9.5 -63.5t21.5 -54t41 -22.5 q25 0 49.5 40t47 104.5t44 143t38 156.5t28.5 145.5t18 108.5q10 66 15.5 132.5t5.5 144.5q0 25 -2 47t-2 41q0 12 20.5 16t36.5 4q10 0 35 -4t51.5 -12t47 -17.5t20.5 -19.5q0 -37 -11 -74q-16 -123 -26 -232.5t-10 -219.5q0 -76 9 -193t9 -246q0 -88 -8 -171t-30.5 -148.5 t-61.5 -107.5t-103 -48q-41 -4 -91 -6t-91 -2q-35 0 -82 10t-89 34t-70.5 58.5t-28.5 83.5q0 10 7 27.5t21 17.5q41 0 61.5 -26.5t41 -59t52.5 -59.5t95 -27q59 0 94 30t54.5 80t25.5 114.5t6 132.5q0 66 -3 128t-3 115q0 23 1 43.5t3 36.5q-16 -57 -34.5 -128.5t-47 -135 t-70.5 -106.5t-104 -43q-57 0 -101 25.5t-72.5 68.5t-43 97t-14.5 110q0 98 10 198.5t22.5 202.5t23 205.5t10.5 210.5q0 25 -2.5 58.5t-11.5 65t-27.5 54.5t-51.5 23t-60.5 -20.5t-49.5 -43.5q-92 -94 -144.5 -226t-52.5 -280q0 -25 3 -56.5t14.5 -60t32 -49t53.5 -20.5 q18 0 30.5 11t22.5 24.5t21.5 24.5t25.5 11q23 0 39 -30.5t16 -48.5q0 -29 -14 -44.5t-34.5 -22.5t-44.5 -8t-44 -1q-18 0 -50 11t-48 22q-66 35 -93.5 87t-27.5 124zM641 1330v24q0 16 4 25.5t22 25.5q43 41 92 82t93.5 75t80 55.5t54.5 21.5q14 0 20 -12.5t6 -69.5 q0 -33 -7 -46.5t-20.5 -19.5t-32 -10t-42.5 -18l-170 -119q-10 -16 -30.5 -39t-33.5 -23q-6 0 -10 5q-8 14 -13 19l-8 8t-4 5t-1 11z" />
<glyph unicode="&#xde;" horiz-adv-x="1024" d="M-88 868q0 68 51 127.5t132 107.5t180.5 84t197.5 58q4 51 5 89t1 55q0 53 -6 93t-22 58v2q0 4 12 17.5t27.5 28t30 25.5t20.5 13q23 18 63 19q53 0 63.5 -32t10.5 -83q0 -113 -6 -252q16 2 32.5 3t32.5 1q72 0 142.5 -9t140.5 -44q74 -37 114 -102.5t58 -131t21.5 -117 t3.5 -61.5q0 -43 -18.5 -104.5t-52.5 -127t-79 -129t-98.5 -113.5t-111.5 -82t-120 -32q-25 0 -49 13.5t-51 29.5l-10 7q-4 -49 -9.5 -120t-5.5 -157q0 -31 1 -43t1 -39q0 -23 11.5 -45t11.5 -27q0 -18 -24.5 -21t-30.5 -3q-53 0 -83 16.5t-44.5 69.5t-17.5 154.5t-3 269.5 q0 131 6 247.5t11 227.5q0 10 3 60.5t5 107.5t5 107.5t3 60.5q-43 -12 -110.5 -38t-132 -59.5t-111.5 -72.5t-47 -78l34 -115q0 -16 -6 -33.5t-35 -17.5t-55.5 13.5t-46.5 33t-32.5 44t-12.5 46.5zM637 483q0 -72 12.5 -106.5t69.5 -34.5q47 0 107.5 62.5t115.5 151.5 t93 185.5t38 163.5q0 94 -42 147.5t-103.5 80t-132 34t-127.5 7.5q-4 -92 -9.5 -185.5t-9.5 -187.5z" />
<glyph unicode="&#xdf;" horiz-adv-x="817" d="M31 86q0 117 16 229.5t16 239.5q0 43 -4 83t-9 83t-9 92t-4 107q0 66 20.5 113.5t52 79.5t69.5 47.5t73 15.5q43 0 66.5 -6.5t41 -15.5t36 -19.5t48.5 -16.5q37 -8 69 -21.5t55.5 -38t35.5 -60t12 -89.5q0 -18 -6 -46.5t-21.5 -58.5t-41 -58.5t-66.5 -47.5 q47 -14 93.5 -35.5t85 -61.5t62 -101.5t23.5 -157.5v-18q0 -104 -25.5 -172t-69.5 -106t-101 -53.5t-119 -15.5q-55 0 -94 12.5t-39 63.5q0 10 7 28.5t18.5 35t21.5 29t16 12.5q16 0 20.5 -15.5t7.5 -33t9 -33t27 -15.5q31 0 60.5 12.5t54 41t40 80t15.5 127.5v24 q0 131 -48 210t-147 79q-23 0 -51 -6h-14q-23 0 -32 12t-9 29q0 25 12 45q12 -2 22.5 -3t20.5 -1q37 0 63.5 13t44 35.5t24.5 50.5t7 56v15q-6 92 -50 135t-105 43q-59 0 -100.5 -34t-41.5 -126q0 -39 3.5 -86t7.5 -95t7 -95.5t3 -85.5q0 -94 -6 -200t-6 -185v-50 q4 -92 22.5 -165.5t59.5 -145.5q4 -6 16 -11t12 -20q0 -16 -11 -25t-28.5 -14.5t-38 -6.5t-36.5 -1h-29q-25 0 -44.5 8.5t-29.5 36.5q-35 92 -48 171t-13 157z" />
<glyph unicode="&#xe0;" d="M21 276q0 123 13 234t44 196t80 135t119 50q41 0 62.5 -7t39.5 -16.5t39.5 -19.5t60.5 -17q43 -25 60.5 -58.5t22.5 -72t3 -80.5t4 -83q0 -2 9.5 -6.5t21.5 -9.5t21.5 -14t9.5 -24v-8q-20 -53 -24.5 -94t-4.5 -98q0 -29 3 -63t10.5 -63.5t21.5 -49t37 -19.5q25 0 44 24.5 t32.5 56.5t22.5 64.5t12 49.5q4 25 20 24q10 0 19.5 -11t9.5 -40v-15.5t-2 -17.5q-4 -29 -20.5 -67.5t-42 -74.5t-59.5 -60.5t-75 -24.5q-61 0 -107.5 47t-56.5 133q-12 -33 -28.5 -76t-41 -79.5t-56.5 -62.5t-75 -26q-12 0 -18 2.5t-13 5.5t-16.5 5t-25.5 2q-49 0 -83 31.5 t-54.5 81t-29.5 107.5t-9 109zM152 1135q4 6 4 18v8q0 49 13 78t28 29q8 0 35.5 -17.5t64.5 -45t78 -60.5t74.5 -62.5t56 -53t22.5 -34.5l5 -45q0 -31 -23 -30q-12 0 -24 14.5t-35 24.5q-29 16 -74 53t-117 78q-14 8 -41.5 21t-42.5 17zM166 291q0 -33 3 -79t11.5 -87 t23.5 -69.5t40 -28.5q59 0 91 46t48.5 114.5t23.5 147.5t13 144q4 35 18.5 44t14.5 14v18q0 23 -4 53.5t-14.5 57t-31 45t-55.5 18.5q-57 0 -93 -52t-56.5 -123t-26.5 -145.5t-6 -117.5z" />
<glyph unicode="&#xe1;" d="M21 276q0 123 13 234t44 196t80 135t119 50q41 0 62.5 -7t39.5 -16.5t39.5 -19.5t60.5 -17q43 -25 60.5 -58.5t22.5 -72t3 -80.5t4 -83q0 -2 9.5 -6.5t21.5 -9.5t21.5 -14t9.5 -24v-8q-20 -53 -24.5 -94t-4.5 -98q0 -29 3 -63t10.5 -63.5t21.5 -49t37 -19.5q25 0 44 24.5 t32.5 56.5t22.5 64.5t12 49.5q4 25 20 24q10 0 19.5 -11t9.5 -40v-15.5t-2 -17.5q-4 -29 -20.5 -67.5t-42 -74.5t-59.5 -60.5t-75 -24.5q-61 0 -107.5 47t-56.5 133q-12 -33 -28.5 -76t-41 -79.5t-56.5 -62.5t-75 -26q-12 0 -18 2.5t-13 5.5t-16.5 5t-25.5 2q-49 0 -83 31.5 t-54.5 81t-29.5 107.5t-9 109zM150 961v24q0 16 4 25.5t22 25.5q43 41 92 82t93.5 75t80 55.5t54.5 21.5q14 0 20 -12.5t6 -69.5q0 -33 -7 -46.5t-20.5 -19.5t-32 -10t-42.5 -18l-170 -119q-10 -16 -30.5 -39t-33.5 -23q-6 0 -10 5q-8 14 -13 19l-8 8t-4 5t-1 11zM166 291 q0 -33 3 -79t11.5 -87t23.5 -69.5t40 -28.5q59 0 91 46t48.5 114.5t23.5 147.5t13 144q4 35 18.5 44t14.5 14v18q0 23 -4 53.5t-14.5 57t-31 45t-55.5 18.5q-57 0 -93 -52t-56.5 -123t-26.5 -145.5t-6 -117.5z" />
<glyph unicode="&#xe2;" d="M21 276q0 123 13 234t44 196t80 135t119 50q41 0 62.5 -7t39.5 -16.5t39.5 -19.5t60.5 -17q43 -25 60.5 -58.5t22.5 -72t3 -80.5t4 -83q0 -2 9.5 -6.5t21.5 -9.5t21.5 -14t9.5 -24v-8q-20 -53 -24.5 -94t-4.5 -98q0 -29 3 -63t10.5 -63.5t21.5 -49t37 -19.5q25 0 44 24.5 t32.5 56.5t22.5 64.5t12 49.5q4 25 20 24q10 0 19.5 -11t9.5 -40v-15.5t-2 -17.5q-4 -29 -20.5 -67.5t-42 -74.5t-59.5 -60.5t-75 -24.5q-61 0 -107.5 47t-56.5 133q-12 -33 -28.5 -76t-41 -79.5t-56.5 -62.5t-75 -26q-12 0 -18 2.5t-13 5.5t-16.5 5t-25.5 2q-49 0 -83 31.5 t-54.5 81t-29.5 107.5t-9 109zM71 958v4q0 8 2 14.5t13 16.5l34 39q16 16 60.5 52t115.5 112q10 10 23.5 25.5t38.5 15.5q23 0 29 -4t10 -14.5t13 -27t36 -40.5q61 -70 110.5 -120t49.5 -77q0 -33 -25 -33q-18 0 -27.5 6.5t-16.5 15.5t-16 21.5t-26 22.5l-100 66 q-25 16 -30 29.5t-11 13.5h-4q-10 0 -19.5 -8.5t-27.5 -20.5l-215 -150q-4 0 -10.5 15.5t-6.5 25.5zM166 291q0 -33 3 -79t11.5 -87t23.5 -69.5t40 -28.5q59 0 91 46t48.5 114.5t23.5 147.5t13 144q4 35 18.5 44t14.5 14v18q0 23 -4 53.5t-14.5 57t-31 45t-55.5 18.5 q-57 0 -93 -52t-56.5 -123t-26.5 -145.5t-6 -117.5z" />
<glyph unicode="&#xe3;" d="M21 276q0 123 13 234t44 196t80 135t119 50q41 0 62.5 -7t39.5 -16.5t39.5 -19.5t60.5 -17q43 -25 60.5 -58.5t22.5 -72t3 -80.5t4 -83q0 -2 9.5 -6.5t21.5 -9.5t21.5 -14t9.5 -24v-8q-20 -53 -24.5 -94t-4.5 -98q0 -29 3 -63t10.5 -63.5t21.5 -49t37 -19.5q25 0 44 24.5 t32.5 56.5t22.5 64.5t12 49.5q4 25 20 24q10 0 19.5 -11t9.5 -40v-15.5t-2 -17.5q-4 -29 -20.5 -67.5t-42 -74.5t-59.5 -60.5t-75 -24.5q-61 0 -107.5 47t-56.5 133q-12 -33 -28.5 -76t-41 -79.5t-56.5 -62.5t-75 -26q-12 0 -18 2.5t-13 5.5t-16.5 5t-25.5 2q-49 0 -83 31.5 t-54.5 81t-29.5 107.5t-9 109zM71 1057q0 66 47 97.5t107 31.5q47 0 84 -17.5t67.5 -37t57 -37t53.5 -17.5q47 0 64.5 22.5t17.5 53.5q0 16 12 22.5t21 6.5q20 0 33.5 -19.5t13.5 -54.5q0 -39 -17.5 -64.5t-43 -41t-53.5 -22.5t-50 -7q-41 0 -81 12t-81 49q-12 29 -37.5 39 t-48.5 10q-47 0 -67.5 -22t-22.5 -55q-4 -4 -13.5 -6.5t-15.5 -2.5q-47 0 -47 60zM166 291q0 -33 3 -79t11.5 -87t23.5 -69.5t40 -28.5q59 0 91 46t48.5 114.5t23.5 147.5t13 144q4 35 18.5 44t14.5 14v18q0 23 -4 53.5t-14.5 57t-31 45t-55.5 18.5q-57 0 -93 -52 t-56.5 -123t-26.5 -145.5t-6 -117.5z" />
<glyph unicode="&#xe4;" d="M21 276q0 123 13 234t44 196t80 135t119 50q41 0 62.5 -7t39.5 -16.5t39.5 -19.5t60.5 -17q43 -25 60.5 -58.5t22.5 -72t3 -80.5t4 -83q0 -2 9.5 -6.5t21.5 -9.5t21.5 -14t9.5 -24v-8q-20 -53 -24.5 -94t-4.5 -98q0 -29 3 -63t10.5 -63.5t21.5 -49t37 -19.5q25 0 44 24.5 t32.5 56.5t22.5 64.5t12 49.5q4 25 20 24q10 0 19.5 -11t9.5 -40v-15.5t-2 -17.5q-4 -29 -20.5 -67.5t-42 -74.5t-59.5 -60.5t-75 -24.5q-61 0 -107.5 47t-56.5 133q-12 -33 -28.5 -76t-41 -79.5t-56.5 -62.5t-75 -26q-12 0 -18 2.5t-13 5.5t-16.5 5t-25.5 2q-49 0 -83 31.5 t-54.5 81t-29.5 107.5t-9 109zM30 1061q0 59 44 89t87 30q12 0 32 -9.5t36 -24.5t28.5 -35t12.5 -38q0 -12 -16.5 -25.5t-38 -24.5t-42 -19.5t-28.5 -8.5q-12 0 -31.5 7.5t-38 17.5t-32 21.5t-13.5 19.5zM166 291q0 -33 3 -79t11.5 -87t23.5 -69.5t40 -28.5q59 0 91 46 t48.5 114.5t23.5 147.5t13 144q4 35 18.5 44t14.5 14v18q0 23 -4 53.5t-14.5 57t-31 45t-55.5 18.5q-57 0 -93 -52t-56.5 -123t-26.5 -145.5t-6 -117.5zM401 1077q0 25 14.5 43.5t35 31.5t43 20.5t38.5 7.5q12 0 30.5 -9.5t35 -24.5t28.5 -35t12 -38q0 -12 -16 -25.5 t-37.5 -24.5t-42 -19.5t-28.5 -8.5q-14 0 -34 6.5t-37 17.5t-29.5 25.5t-12.5 32.5z" />
<glyph unicode="&#xe5;" d="M21 276q0 123 13 234t44 196t80 135t119 50q41 0 62.5 -7t39.5 -16.5t39.5 -19.5t60.5 -17q43 -25 60.5 -58.5t22.5 -72t3 -80.5t4 -83q0 -2 9.5 -6.5t21.5 -9.5t21.5 -14t9.5 -24v-8q-20 -53 -24.5 -94t-4.5 -98q0 -29 3 -63t10.5 -63.5t21.5 -49t37 -19.5q25 0 44 24.5 t32.5 56.5t22.5 64.5t12 49.5q4 25 20 24q10 0 19.5 -11t9.5 -40v-15.5t-2 -17.5q-4 -29 -20.5 -67.5t-42 -74.5t-59.5 -60.5t-75 -24.5q-61 0 -107.5 47t-56.5 133q-12 -33 -28.5 -76t-41 -79.5t-56.5 -62.5t-75 -26q-12 0 -18 2.5t-13 5.5t-16.5 5t-25.5 2q-49 0 -83 31.5 t-54.5 81t-29.5 107.5t-9 109zM166 291q0 -33 3 -79t11.5 -87t23.5 -69.5t40 -28.5q59 0 91 46t48.5 114.5t23.5 147.5t13 144q4 35 18.5 44t14.5 14v18q0 23 -4 53.5t-14.5 57t-31 45t-55.5 18.5q-57 0 -93 -52t-56.5 -123t-26.5 -145.5t-6 -117.5zM185 1145q0 51 45 84 q0 12 15 22.5t38 18.5t47.5 12t44.5 4q25 0 55.5 -6t57 -20.5t45 -37t18.5 -57.5q0 -57 -50 -97t-142 -40q-37 0 -75 6t-67 33q-23 20 -27.5 35.5t-4.5 42.5zM258 1124q0 -29 34 -41t65 -12q29 0 58.5 9.5t45.5 29.5q12 14 15.5 28.5t3.5 28.5q0 49 -60 54v-4q0 -25 -35 -25 l-45 8q-6 0 -23.5 -4t-25.5 -4q0 -2 -14 -16l-14 -15q-4 -6 -5 -18v-19z" />
<glyph unicode="&#xe6;" horiz-adv-x="997" d="M23 289q0 45 5 108.5t17 134t31.5 140t49.5 125t68.5 90.5t88.5 35q43 0 65.5 -6.5t41 -15.5t40 -20.5t62.5 -19.5q47 -27 64 -64.5t22 -80.5q33 43 75.5 69.5t96.5 26.5q37 0 69.5 -15.5t57 -40t39 -57t16.5 -67.5l2 -29q0 -49 -16.5 -107.5t-47 -108.5t-75.5 -84 t-103 -34q-10 0 -25.5 2t-29.5 6v-36v-23q2 -14 10 -40.5t26.5 -52.5t48.5 -45.5t73 -19.5q59 0 97 23.5t62.5 60.5t38 83t21.5 89q6 29 12 39.5t21 10.5q31 0 30 -35v-15q0 -51 -18.5 -114.5t-57 -117.5t-99 -91t-144.5 -37q-123 0 -188.5 60.5t-90.5 158.5 q-12 -37 -28.5 -79t-41 -77.5t-57.5 -60.5t-76 -25q-12 0 -18 2.5t-13 5.5t-17.5 5t-26.5 2q-51 0 -86 33.5t-55.5 84t-28.5 111t-8 113.5zM156 315q0 -20 2 -68t11 -95.5t28.5 -84t52.5 -36.5q41 0 72.5 43t54.5 123q20 72 31.5 143.5t21.5 157.5q4 35 19.5 45t15.5 14v18 q0 25 -4 62t-15.5 72.5t-33 61.5t-56.5 26q-55 0 -93 -53.5t-62.5 -128t-34.5 -157.5t-10 -143zM651 395q0 -18 3 -29.5t22 -11.5h10q41 0 69.5 31t46 74t26 88t8.5 74v12q0 16 -9.5 34.5t-33.5 18.5q-37 0 -64 -39t-44 -89t-25.5 -96t-8.5 -61v-6z" />
<glyph unicode="&#xe7;" horiz-adv-x="618" d="M39 334q0 82 21.5 172t86.5 164q57 66 134 104.5t157 38.5q39 0 71 -11t36 -28q4 -23 5 -56.5t1 -88.5q0 -47 -7 -69.5t-30 -22.5q-25 2 -35 25.5t-20 51t-26.5 51t-53.5 25.5q-53 0 -88 -41t-54.5 -96t-26.5 -110.5t-7 -86.5q0 -119 35.5 -203.5t128.5 -93.5l22 -2 q63 0 102 32t63 70t37 69.5t27 31.5h7q27 -2 26 -35q0 -14 -10 -41q-49 -117 -126 -169t-181 -52h-19.5t-19.5 2q-51 6 -98 32t-82 72t-55.5 112.5t-20.5 152.5zM192 -305q0 14 11.5 26.5t31.5 12.5q16 0 25.5 -8.5t19 -17.5t21.5 -16.5t35 -7.5q16 0 36.5 2t39 9.5 t30.5 21.5t12 41q0 29 -31.5 36t-68.5 12t-68.5 18.5t-31.5 56.5q0 23 11 41t26.5 30.5t32 19.5t24.5 7l27 -16q-2 -4 -4.5 -12.5t-2.5 -18.5t7.5 -20.5t29.5 -14.5q61 -12 96 -47t35 -82q0 -90 -61 -131t-141 -41q-59 0 -100.5 24.5t-41.5 74.5z" />
<glyph unicode="&#xe8;" horiz-adv-x="555" d="M23 317q0 72 16 158t51 161t88 125t129 50q37 0 70 -15.5t57.5 -40t38.5 -57t16 -67.5l3 -29q0 -49 -16.5 -107.5t-47.5 -108.5t-76 -84t-102 -34q-10 0 -25.5 2t-29.5 6v-59q0 -14 9 -40.5t27.5 -52.5t48 -45.5t72.5 -19.5q59 0 97 23.5t63 60.5t38 83t21 89 q6 29 12.5 39.5t20.5 10.5q31 0 31 -35v-15q0 -51 -18.5 -114.5t-57.5 -117.5t-99.5 -91t-144.5 -37q-80 0 -135 28.5t-91 78t-51 116t-15 139.5zM111 1094q4 6 4 18v8q0 49 13 78t28 29q8 0 35.5 -17.5t64.5 -45t78 -60.5t74.5 -62.5t56 -53t22.5 -34.5l5 -45 q0 -31 -23 -30q-12 0 -24 14.5t-35 24.5q-29 16 -74 53t-117 78q-14 8 -41.5 21t-42.5 17zM209 395q0 -18 3 -29.5t21 -11.5h11q41 0 69.5 31t46 74t25.5 88t8 74v12q0 16 -9 34.5t-34 18.5q-37 0 -63.5 -39t-44 -89t-25.5 -96t-8 -61v-6z" />
<glyph unicode="&#xe9;" horiz-adv-x="555" d="M23 317q0 72 16 158t51 161t88 125t129 50q37 0 70 -15.5t57.5 -40t38.5 -57t16 -67.5l3 -29q0 -49 -16.5 -107.5t-47.5 -108.5t-76 -84t-102 -34q-10 0 -25.5 2t-29.5 6v-59q0 -14 9 -40.5t27.5 -52.5t48 -45.5t72.5 -19.5q59 0 97 23.5t63 60.5t38 83t21 89 q6 29 12.5 39.5t20.5 10.5q31 0 31 -35v-15q0 -51 -18.5 -114.5t-57.5 -117.5t-99.5 -91t-144.5 -37q-80 0 -135 28.5t-91 78t-51 116t-15 139.5zM109 920v24q0 16 4 25.5t22 25.5q43 41 92 82t93.5 75t80 55.5t54.5 21.5q14 0 20 -12.5t6 -69.5q0 -33 -7 -46.5t-20.5 -19.5 t-32 -10t-42.5 -18l-170 -119q-10 -16 -30.5 -39t-33.5 -23q-6 0 -10 5q-8 14 -13 19l-8 8t-4 5t-1 11zM209 395q0 -18 3 -29.5t21 -11.5h11q41 0 69.5 31t46 74t25.5 88t8 74v12q0 16 -9 34.5t-34 18.5q-37 0 -63.5 -39t-44 -89t-25.5 -96t-8 -61v-6z" />
<glyph unicode="&#xea;" horiz-adv-x="555" d="M23 317q0 72 16 158t51 161t88 125t129 50q37 0 70 -15.5t57.5 -40t38.5 -57t16 -67.5l3 -29q0 -49 -16.5 -107.5t-47.5 -108.5t-76 -84t-102 -34q-10 0 -25.5 2t-29.5 6v-59q0 -14 9 -40.5t27.5 -52.5t48 -45.5t72.5 -19.5q59 0 97 23.5t63 60.5t38 83t21 89 q6 29 12.5 39.5t20.5 10.5q31 0 31 -35v-15q0 -51 -18.5 -114.5t-57.5 -117.5t-99.5 -91t-144.5 -37q-80 0 -135 28.5t-91 78t-51 116t-15 139.5zM51 911v4q0 8 2 14.5t13 16.5l34 39q16 16 60.5 52t115.5 112q10 10 23.5 25.5t38.5 15.5q23 0 29 -4t10 -14.5t13 -27 t36 -40.5q61 -70 110.5 -120t49.5 -77q0 -33 -25 -33q-18 0 -27.5 6.5t-16.5 15.5t-16 21.5t-26 22.5l-100 66q-25 16 -30 29.5t-11 13.5h-4q-10 0 -19.5 -8.5t-27.5 -20.5l-215 -150q-4 0 -10.5 15.5t-6.5 25.5zM209 395q0 -18 3 -29.5t21 -11.5h11q41 0 69.5 31t46 74 t25.5 88t8 74v12q0 16 -9 34.5t-34 18.5q-37 0 -63.5 -39t-44 -89t-25.5 -96t-8 -61v-6z" />
<glyph unicode="&#xeb;" horiz-adv-x="555" d="M10 1020q0 59 44 89t87 30q12 0 32 -9.5t36 -24.5t28.5 -35t12.5 -38q0 -12 -16.5 -25.5t-38 -24.5t-42 -19.5t-28.5 -8.5q-12 0 -31.5 7.5t-38 17.5t-32 21.5t-13.5 19.5zM23 317q0 72 16 158t51 161t88 125t129 50q37 0 70 -15.5t57.5 -40t38.5 -57t16 -67.5l3 -29 q0 -49 -16.5 -107.5t-47.5 -108.5t-76 -84t-102 -34q-10 0 -25.5 2t-29.5 6v-59q0 -14 9 -40.5t27.5 -52.5t48 -45.5t72.5 -19.5q59 0 97 23.5t63 60.5t38 83t21 89q6 29 12.5 39.5t20.5 10.5q31 0 31 -35v-15q0 -51 -18.5 -114.5t-57.5 -117.5t-99.5 -91t-144.5 -37 q-80 0 -135 28.5t-91 78t-51 116t-15 139.5zM209 395q0 -18 3 -29.5t21 -11.5h11q41 0 69.5 31t46 74t25.5 88t8 74v12q0 16 -9 34.5t-34 18.5q-37 0 -63.5 -39t-44 -89t-25.5 -96t-8 -61v-6zM381 1036q0 25 14.5 43.5t35 31.5t43 20.5t38.5 7.5q12 0 30.5 -9.5t35 -24.5 t28.5 -35t12 -38q0 -12 -16 -25.5t-37.5 -24.5t-42 -19.5t-28.5 -8.5q-14 0 -34 6.5t-37 17.5t-29.5 25.5t-12.5 32.5z" />
<glyph unicode="&#xec;" horiz-adv-x="417" d="M-20 1094q4 6 4 18v8q0 49 13 78t28 29q8 0 35.5 -17.5t64.5 -45t78 -60.5t74.5 -62.5t56 -53t22.5 -34.5l5 -45q0 -31 -23 -30q-12 0 -24 14.5t-35 24.5q-29 16 -74 53t-117 78q-14 8 -41.5 21t-42.5 17zM45 723q0 8 10.5 13t22.5 7t24 2h11q6 0 28.5 -1t47 -7t44 -19 t19.5 -38q2 -6 -7 -22.5t-18 -57.5q-2 -16 -4 -29.5t-4 -30t-4 -40t-4 -60.5v-123q0 -33 2 -66.5t9 -61t23.5 -45t43.5 -17.5q39 0 61.5 22.5t34.5 38.5q23 31 35 77t22 95l4 21q6 31 37 31t31 -43v-11l-4 -30q-6 -49 -22.5 -102.5t-46 -99.5t-74.5 -76t-111 -30 q-51 0 -104 35q-53 37 -73 96.5t-20 114.5q0 16 2 49t2 80v226q0 16 -1 34.5t-5 34.5q-2 8 -7 18.5t-5 14.5z" />
<glyph unicode="&#xed;" horiz-adv-x="417" d="M-18 920v24q0 16 4 25.5t22 25.5q43 41 92 82t93.5 75t80 55.5t54.5 21.5q14 0 20 -12.5t6 -69.5q0 -33 -7 -46.5t-20.5 -19.5t-32 -10t-42.5 -18l-170 -119q-10 -16 -30.5 -39t-33.5 -23q-6 0 -10 5q-8 14 -13 19l-8 8t-4 5t-1 11zM45 723q0 8 10.5 13t22.5 7t24 2h11 q6 0 28.5 -1t47 -7t44 -19t19.5 -38q2 -6 -7 -22.5t-18 -57.5q-2 -16 -4 -29.5t-4 -30t-4 -40t-4 -60.5v-123q0 -33 2 -66.5t9 -61t23.5 -45t43.5 -17.5q39 0 61.5 22.5t34.5 38.5q23 31 35 77t22 95l4 21q6 31 37 31t31 -43v-11l-4 -30q-6 -49 -22.5 -102.5t-46 -99.5 t-74.5 -76t-111 -30q-51 0 -104 35q-53 37 -73 96.5t-20 114.5q0 16 2 49t2 80v226q0 16 -1 34.5t-5 34.5q-2 8 -7 18.5t-5 14.5z" />
<glyph unicode="&#xee;" horiz-adv-x="417" d="M-109 911v4q0 8 2 14.5t13 16.5l34 39q16 16 60.5 52t115.5 112q10 10 23.5 25.5t38.5 15.5q23 0 29 -4t10 -14.5t13 -27t36 -40.5q61 -70 110.5 -120t49.5 -77q0 -33 -25 -33q-18 0 -27.5 6.5t-16.5 15.5t-16 21.5t-26 22.5l-100 66q-25 16 -30 29.5t-11 13.5h-4 q-10 0 -19.5 -8.5t-27.5 -20.5l-215 -150q-4 0 -10.5 15.5t-6.5 25.5zM45 723q0 8 10.5 13t22.5 7t24 2h11q6 0 28.5 -1t47 -7t44 -19t19.5 -38q2 -6 -7 -22.5t-18 -57.5q-2 -16 -4 -29.5t-4 -30t-4 -40t-4 -60.5v-123q0 -33 2 -66.5t9 -61t23.5 -45t43.5 -17.5 q39 0 61.5 22.5t34.5 38.5q23 31 35 77t22 95l4 21q6 31 37 31t31 -43v-11l-4 -30q-6 -49 -22.5 -102.5t-46 -99.5t-74.5 -76t-111 -30q-51 0 -104 35q-53 37 -73 96.5t-20 114.5q0 16 2 49t2 80v226q0 16 -1 34.5t-5 34.5q-2 8 -7 18.5t-5 14.5z" />
<glyph unicode="&#xef;" horiz-adv-x="417" d="M-140 1020q0 59 44 89t87 30q12 0 32 -9.5t36 -24.5t28.5 -35t12.5 -38q0 -12 -16.5 -25.5t-38 -24.5t-42 -19.5t-28.5 -8.5q-12 0 -31.5 7.5t-38 17.5t-32 21.5t-13.5 19.5zM45 723q0 8 10.5 13t22.5 7t24 2h11q6 0 28.5 -1t47 -7t44 -19t19.5 -38q2 -6 -7 -22.5 t-18 -57.5q-2 -16 -4 -29.5t-4 -30t-4 -40t-4 -60.5v-123q0 -33 2 -66.5t9 -61t23.5 -45t43.5 -17.5q39 0 61.5 22.5t34.5 38.5q23 31 35 77t22 95l4 21q6 31 37 31t31 -43v-11l-4 -30q-6 -49 -22.5 -102.5t-46 -99.5t-74.5 -76t-111 -30q-51 0 -104 35q-53 37 -73 96.5 t-20 114.5q0 16 2 49t2 80v226q0 16 -1 34.5t-5 34.5q-2 8 -7 18.5t-5 14.5zM231 1036q0 25 14.5 43.5t35 31.5t43 20.5t38.5 7.5q12 0 30.5 -9.5t35 -24.5t28.5 -35t12 -38q0 -12 -16 -25.5t-37.5 -24.5t-42 -19.5t-28.5 -8.5q-14 0 -34 6.5t-37 17.5t-29.5 25.5 t-12.5 32.5z" />
<glyph unicode="&#xf0;" horiz-adv-x="862" d="M33 328q0 39 4 85t18.5 94t43 94t75.5 85q6 6 12.5 14.5t15.5 16.5t22.5 16t37.5 10q25 0 46.5 -5t39 -18t28.5 -37t13 -62q-70 -45 -108.5 -90.5t-56 -88.5t-20.5 -85t-3 -83q0 -33 11 -68.5t34.5 -65t60.5 -49t86 -19.5q59 0 103.5 56t73 144t43 194.5t14.5 205.5 q0 72 -6.5 160t-28.5 174q-43 -14 -94.5 -35t-101.5 -40.5t-94 -32.5t-75 -13q-20 0 -35.5 10t-25.5 45q0 12 8 23.5t31 21.5l356 127q-16 47 -42.5 94t-65.5 86t-89.5 63.5t-113.5 24.5q-45 -4 -63.5 -25.5t-27.5 -46t-18.5 -44t-38.5 -19.5t-40 19.5t-11 44.5 q0 68 71 111.5t181 43.5q74 0 137.5 -23.5t115.5 -63.5t92 -94t67 -116l180 68q4 2 16 2q23 0 39.5 -20.5t16.5 -42.5q0 -23 -37 -39l-180 -68q10 -41 18 -94t14 -108.5t9.5 -109t3.5 -96.5q0 -139 -22.5 -265t-68 -222t-112 -152.5t-156.5 -56.5q-96 0 -171 28.5t-127 78 t-78.5 116t-26.5 142.5z" />
<glyph unicode="&#xf1;" horiz-adv-x="624" d="M12 1016q0 66 47 97.5t107 31.5q47 0 84 -17.5t67.5 -37t57 -37t53.5 -17.5q47 0 64.5 22.5t17.5 53.5q0 16 12 22.5t21 6.5q20 0 33.5 -19.5t13.5 -54.5q0 -39 -17.5 -64.5t-43 -41t-53.5 -22.5t-50 -7q-41 0 -81 12t-81 49q-12 29 -37.5 39t-48.5 10q-47 0 -67.5 -22 t-22.5 -55q-4 -4 -13.5 -6.5t-15.5 -2.5q-47 0 -47 60zM23 158l26 608q0 27 29 27q10 0 28.5 -3.5t39 -9.5t35 -15t14.5 -22v-415q2 2 6 16q14 37 34.5 91t45 103.5t52 84t56.5 34.5q37 0 56.5 -17t29.5 -44t12 -57.5t2 -59.5q0 -20 -4 -67t-4 -142q0 -53 10.5 -96t40.5 -43 q23 0 41.5 20.5t34 51t25.5 65.5t12 66q2 39 31 39q18 0 24.5 -12.5t6.5 -28.5v-4q-2 -41 -15.5 -92.5t-39 -96.5t-66.5 -75.5t-101 -30.5q-92 0 -117.5 66.5t-25.5 197.5l4 149q-31 -43 -50.5 -95t-33.5 -108.5t-23.5 -112.5t-19.5 -107q-4 -12 -31.5 -16.5t-40.5 -4.5 q-37 0 -60.5 4t-35.5 19.5t-18 47t-10 85.5z" />
<glyph unicode="&#xf2;" horiz-adv-x="669" d="M18 324q0 74 15.5 149.5t38 145t51.5 125t55 85.5q27 29 59.5 40.5t59.5 11.5q33 0 65.5 -16.5t63.5 -41t60.5 -56.5t56.5 -62q20 -23 30.5 -73t16.5 -102q4 -29 6 -61.5t2 -67.5q31 25 49.5 52.5t29.5 52t18.5 46.5t15.5 34q8 14 28 14q10 0 14.5 -12.5t4.5 -20.5 q-2 -63 -27.5 -113.5t-54.5 -86.5q-16 -23 -35.5 -41.5t-40.5 -34.5q-2 -35 -3 -48.5t-3 -21.5q-4 -31 -20.5 -78t-46 -92t-71.5 -76.5t-98 -31.5q-18 0 -41.5 4t-48 11t-47 16.5t-39.5 19.5q-51 29 -83.5 67.5t-50 82.5t-24 90.5t-6.5 89.5zM154 1094q4 6 4 18v8 q0 49 13 78t28 29q8 0 35.5 -17.5t64.5 -45t78 -60.5t74.5 -62.5t56 -53t22.5 -34.5l5 -45q0 -31 -23 -30q-12 0 -24 14.5t-35 24.5q-29 16 -74 53t-117 78q-14 8 -41.5 21t-42.5 17zM178 207q0 -23 6 -47.5t19.5 -45t38 -33.5t61.5 -13q45 0 77 17t51.5 44t28.5 57.5 t9 55.5q-25 -16 -68 -24.5t-71 -8.5q-55 0 -85 8t-65 33zM199 481q0 -82 32.5 -119.5t112.5 -37.5q59 0 97 18t38 29v39q0 8 -1 36.5t-4 67.5t-10 81t-20.5 77t-34 58.5t-51.5 23.5t-59.5 -24.5t-51 -63.5t-35.5 -88.5t-13 -96.5z" />
<glyph unicode="&#xf3;" horiz-adv-x="669" d="M18 324q0 74 15.5 149.5t38 145t51.5 125t55 85.5q27 29 59.5 40.5t59.5 11.5q33 0 65.5 -16.5t63.5 -41t60.5 -56.5t56.5 -62q20 -23 30.5 -73t16.5 -102q4 -29 6 -61.5t2 -67.5q31 25 49.5 52.5t29.5 52t18.5 46.5t15.5 34q8 14 28 14q10 0 14.5 -12.5t4.5 -20.5 q-2 -63 -27.5 -113.5t-54.5 -86.5q-16 -23 -35.5 -41.5t-40.5 -34.5q-2 -35 -3 -48.5t-3 -21.5q-4 -31 -20.5 -78t-46 -92t-71.5 -76.5t-98 -31.5q-18 0 -41.5 4t-48 11t-47 16.5t-39.5 19.5q-51 29 -83.5 67.5t-50 82.5t-24 90.5t-6.5 89.5zM136 920v24q0 16 4 25.5 t22 25.5q43 41 92 82t93.5 75t80 55.5t54.5 21.5q14 0 20 -12.5t6 -69.5q0 -33 -7 -46.5t-20.5 -19.5t-32 -10t-42.5 -18l-170 -119q-10 -16 -30.5 -39t-33.5 -23q-6 0 -10 5q-8 14 -13 19l-8 8t-4 5t-1 11zM178 207q0 -23 6 -47.5t19.5 -45t38 -33.5t61.5 -13q45 0 77 17 t51.5 44t28.5 57.5t9 55.5q-25 -16 -68 -24.5t-71 -8.5q-55 0 -85 8t-65 33zM199 481q0 -82 32.5 -119.5t112.5 -37.5q59 0 97 18t38 29v39q0 8 -1 36.5t-4 67.5t-10 81t-20.5 77t-34 58.5t-51.5 23.5t-59.5 -24.5t-51 -63.5t-35.5 -88.5t-13 -96.5z" />
<glyph unicode="&#xf4;" horiz-adv-x="669" d="M18 324q0 74 15.5 149.5t38 145t51.5 125t55 85.5q27 29 59.5 40.5t59.5 11.5q33 0 65.5 -16.5t63.5 -41t60.5 -56.5t56.5 -62q20 -23 30.5 -73t16.5 -102q4 -29 6 -61.5t2 -67.5q31 25 49.5 52.5t29.5 52t18.5 46.5t15.5 34q8 14 28 14q10 0 14.5 -12.5t4.5 -20.5 q-2 -63 -27.5 -113.5t-54.5 -86.5q-16 -23 -35.5 -41.5t-40.5 -34.5q-2 -35 -3 -48.5t-3 -21.5q-4 -31 -20.5 -78t-46 -92t-71.5 -76.5t-98 -31.5q-18 0 -41.5 4t-48 11t-47 16.5t-39.5 19.5q-51 29 -83.5 67.5t-50 82.5t-24 90.5t-6.5 89.5zM51 911v4q0 8 2 14.5t13 16.5 l34 39q16 16 60.5 52t115.5 112q10 10 23.5 25.5t38.5 15.5q23 0 29 -4t10 -14.5t13 -27t36 -40.5q61 -70 110.5 -120t49.5 -77q0 -33 -25 -33q-18 0 -27.5 6.5t-16.5 15.5t-16 21.5t-26 22.5l-100 66q-25 16 -30 29.5t-11 13.5h-4q-10 0 -19.5 -8.5t-27.5 -20.5l-215 -150 q-4 0 -10.5 15.5t-6.5 25.5zM178 207q0 -23 6 -47.5t19.5 -45t38 -33.5t61.5 -13q45 0 77 17t51.5 44t28.5 57.5t9 55.5q-25 -16 -68 -24.5t-71 -8.5q-55 0 -85 8t-65 33zM199 481q0 -82 32.5 -119.5t112.5 -37.5q59 0 97 18t38 29v39q0 8 -1 36.5t-4 67.5t-10 81t-20.5 77 t-34 58.5t-51.5 23.5t-59.5 -24.5t-51 -63.5t-35.5 -88.5t-13 -96.5z" />
<glyph unicode="&#xf5;" horiz-adv-x="669" d="M18 324q0 74 15.5 149.5t38 145t51.5 125t55 85.5q27 29 59.5 40.5t59.5 11.5q33 0 65.5 -16.5t63.5 -41t60.5 -56.5t56.5 -62q20 -23 30.5 -73t16.5 -102q4 -29 6 -61.5t2 -67.5q31 25 49.5 52.5t29.5 52t18.5 46.5t15.5 34q8 14 28 14q10 0 14.5 -12.5t4.5 -20.5 q-2 -63 -27.5 -113.5t-54.5 -86.5q-16 -23 -35.5 -41.5t-40.5 -34.5q-2 -35 -3 -48.5t-3 -21.5q-4 -31 -20.5 -78t-46 -92t-71.5 -76.5t-98 -31.5q-18 0 -41.5 4t-48 11t-47 16.5t-39.5 19.5q-51 29 -83.5 67.5t-50 82.5t-24 90.5t-6.5 89.5zM51 1016q0 66 47 97.5t107 31.5 q47 0 84 -17.5t67.5 -37t57 -37t53.5 -17.5q47 0 64.5 22.5t17.5 53.5q0 16 12 22.5t21 6.5q20 0 33.5 -19.5t13.5 -54.5q0 -39 -17.5 -64.5t-43 -41t-53.5 -22.5t-50 -7q-41 0 -81 12t-81 49q-12 29 -37.5 39t-48.5 10q-47 0 -67.5 -22t-22.5 -55q-4 -4 -13.5 -6.5 t-15.5 -2.5q-47 0 -47 60zM178 207q0 -23 6 -47.5t19.5 -45t38 -33.5t61.5 -13q45 0 77 17t51.5 44t28.5 57.5t9 55.5q-25 -16 -68 -24.5t-71 -8.5q-55 0 -85 8t-65 33zM199 481q0 -82 32.5 -119.5t112.5 -37.5q59 0 97 18t38 29v39q0 8 -1 36.5t-4 67.5t-10 81t-20.5 77 t-34 58.5t-51.5 23.5t-59.5 -24.5t-51 -63.5t-35.5 -88.5t-13 -96.5z" />
<glyph unicode="&#xf6;" horiz-adv-x="669" d="M10 1020q0 59 44 89t87 30q12 0 32 -9.5t36 -24.5t28.5 -35t12.5 -38q0 -12 -16.5 -25.5t-38 -24.5t-42 -19.5t-28.5 -8.5q-12 0 -31.5 7.5t-38 17.5t-32 21.5t-13.5 19.5zM18 324q0 74 15.5 149.5t38 145t51.5 125t55 85.5q27 29 59.5 40.5t59.5 11.5q33 0 65.5 -16.5 t63.5 -41t60.5 -56.5t56.5 -62q20 -23 30.5 -73t16.5 -102q4 -29 6 -61.5t2 -67.5q31 25 49.5 52.5t29.5 52t18.5 46.5t15.5 34q8 14 28 14q10 0 14.5 -12.5t4.5 -20.5q-2 -63 -27.5 -113.5t-54.5 -86.5q-16 -23 -35.5 -41.5t-40.5 -34.5q-2 -35 -3 -48.5t-3 -21.5 q-4 -31 -20.5 -78t-46 -92t-71.5 -76.5t-98 -31.5q-18 0 -41.5 4t-48 11t-47 16.5t-39.5 19.5q-51 29 -83.5 67.5t-50 82.5t-24 90.5t-6.5 89.5zM178 207q0 -23 6 -47.5t19.5 -45t38 -33.5t61.5 -13q45 0 77 17t51.5 44t28.5 57.5t9 55.5q-25 -16 -68 -24.5t-71 -8.5 q-55 0 -85 8t-65 33zM199 481q0 -82 32.5 -119.5t112.5 -37.5q59 0 97 18t38 29v39q0 8 -1 36.5t-4 67.5t-10 81t-20.5 77t-34 58.5t-51.5 23.5t-59.5 -24.5t-51 -63.5t-35.5 -88.5t-13 -96.5zM381 1036q0 25 14.5 43.5t35 31.5t43 20.5t38.5 7.5q12 0 30.5 -9.5t35 -24.5 t28.5 -35t12 -38q0 -12 -16 -25.5t-37.5 -24.5t-42 -19.5t-28.5 -8.5q-14 0 -34 6.5t-37 17.5t-29.5 25.5t-12.5 32.5z" />
<glyph unicode="&#xf8;" horiz-adv-x="761" d="M-31 -190q0 10 2 16q35 66 72 129t78 127q-29 53 -40 119.5t-11 126.5q0 39 7 108.5t27.5 145t56.5 146.5t91 112q6 4 19.5 23.5t31.5 25.5q8 0 20.5 2t16.5 2q35 -4 72 -25.5t65 -44.5q20 -16 37.5 -19t36.5 -26l12 -16q16 29 33.5 58.5t36.5 60.5q25 43 52.5 94 t64.5 92q20 10 49 10q33 0 57.5 -15t24.5 -42q0 -12 -9 -27q-16 -14 -24 -28.5t-19 -26.5q-55 -70 -106 -138.5t-100 -137.5q29 -61 40 -126t11 -128v-23.5t-2 -24.5q-2 -41 -13.5 -110.5t-39 -137t-74.5 -117.5t-125 -50h-10q-14 2 -35 8t-43.5 13t-44 13.5t-35.5 8.5 q-12 4 -22.5 6t-20.5 6q-27 -53 -49.5 -108.5t-44.5 -112.5q-8 -18 -25.5 -25.5t-34.5 -7.5q-31 0 -58.5 18.5t-27.5 45.5zM233 315q0 -10 1.5 -24.5t1.5 -30.5q57 82 116.5 163t112.5 167q12 23 25.5 43t25.5 43q-29 84 -100 84q-16 0 -23.5 -5t-13.5 -13.5t-12.5 -20.5 t-22.5 -29q-33 -31 -54.5 -84t-33.5 -110.5t-17.5 -107.5t-5.5 -75zM268 125q18 -31 42 -49.5t63 -18.5q51 0 82.5 39t48 94.5t24 114.5t9.5 98q0 16 1 38t1 48v27.5t-2 28.5q-35 -47 -67 -91t-62 -92q-39 -59 -75 -118.5t-65 -118.5z" />
<glyph unicode="&#xf9;" d="M53 264v494q4 14 5 20t18 6q10 0 35.5 -4t52 -11t48 -19.5t21.5 -28.5v-363q0 -37 1.5 -82t6.5 -82.5t17 -63.5t35 -26q59 0 92 120t37 378q0 16 -8 32.5t-8 39.5q4 16 33.5 20t54.5 4q61 0 89.5 -12t28.5 -74q-4 -37 -7 -58.5t-4 -38.5t-2 -36.5t-1 -56.5q0 -47 4 -98.5 t14.5 -94.5t25.5 -70.5t40 -27.5q23 0 35 13.5t22.5 29.5t20.5 29.5t28 13.5q16 0 24.5 -11t8.5 -22q0 -39 -19.5 -65.5t-47 -43t-56 -23.5t-47.5 -7q-35 0 -59.5 8t-48.5 25l-19 16q-41 41 -67 125q-6 -12 -15.5 -53t-28 -85t-48 -80t-74.5 -36q-131 0 -180.5 76t-57.5 223 zM129 1094q4 6 4 18v8q0 49 13 78t28 29q8 0 35.5 -17.5t64.5 -45t78 -60.5t74.5 -62.5t56 -53t22.5 -34.5l5 -45q0 -31 -23 -30q-12 0 -24 14.5t-35 24.5q-29 16 -74 53t-117 78q-14 8 -41.5 21t-42.5 17z" />
<glyph unicode="&#xfa;" d="M53 264v494q4 14 5 20t18 6q10 0 35.5 -4t52 -11t48 -19.5t21.5 -28.5v-363q0 -37 1.5 -82t6.5 -82.5t17 -63.5t35 -26q59 0 92 120t37 378q0 16 -8 32.5t-8 39.5q4 16 33.5 20t54.5 4q61 0 89.5 -12t28.5 -74q-4 -37 -7 -58.5t-4 -38.5t-2 -36.5t-1 -56.5q0 -47 4 -98.5 t14.5 -94.5t25.5 -70.5t40 -27.5q23 0 35 13.5t22.5 29.5t20.5 29.5t28 13.5q16 0 24.5 -11t8.5 -22q0 -39 -19.5 -65.5t-47 -43t-56 -23.5t-47.5 -7q-35 0 -59.5 8t-48.5 25l-19 16q-41 41 -67 125q-6 -12 -15.5 -53t-28 -85t-48 -80t-74.5 -36q-131 0 -180.5 76t-57.5 223 zM127 920v24q0 16 4 25.5t22 25.5q43 41 92 82t93.5 75t80 55.5t54.5 21.5q14 0 20 -12.5t6 -69.5q0 -33 -7 -46.5t-20.5 -19.5t-32 -10t-42.5 -18l-170 -119q-10 -16 -30.5 -39t-33.5 -23q-6 0 -10 5q-8 14 -13 19l-8 8t-4 5t-1 11z" />
<glyph unicode="&#xfb;" horiz-adv-x="747" d="M53 911v4q0 8 2 14.5t13 16.5l34 39q16 16 60.5 52t115.5 112q10 10 23.5 25.5t38.5 15.5q23 0 29 -4t10 -14.5t13 -27t36 -40.5q61 -70 110.5 -120t49.5 -77q0 -33 -25 -33q-18 0 -27.5 6.5t-16.5 15.5t-16 21.5t-26 22.5l-100 66q-25 16 -30 29.5t-11 13.5h-4 q-10 0 -19.5 -8.5t-27.5 -20.5l-215 -150q-4 0 -10.5 15.5t-6.5 25.5zM61 264v494q4 14 5 20t18 6q10 0 35.5 -4t52 -11t48 -19.5t21.5 -28.5v-363q0 -37 1.5 -82t6.5 -82.5t17 -63.5t35 -26q59 0 92 120t37 378q0 16 -8 32.5t-8 39.5q4 16 33.5 20t54.5 4q61 0 89.5 -12 t28.5 -74q-4 -37 -7 -58.5t-4 -38.5t-2 -36.5t-1 -56.5q0 -47 4 -98.5t14.5 -94.5t25.5 -70.5t40 -27.5q23 0 35 13.5t22.5 29.5t20.5 29.5t28 13.5q16 0 24.5 -11t8.5 -22q0 -39 -19.5 -65.5t-47 -43t-56 -23.5t-47.5 -7q-35 0 -59.5 8t-48.5 25l-19 16q-41 41 -67 125 q-6 -12 -15.5 -53t-28 -85t-48 -80t-74.5 -36q-131 0 -180.5 76t-57.5 223z" />
<glyph unicode="&#xfc;" horiz-adv-x="763" d="M53 1020q0 59 44 89t87 30q12 0 32 -9.5t36 -24.5t28.5 -35t12.5 -38q0 -12 -16.5 -25.5t-38 -24.5t-42 -19.5t-28.5 -8.5q-12 0 -31.5 7.5t-38 17.5t-32 21.5t-13.5 19.5zM78 264v494q4 14 5 20t18 6q10 0 35.5 -4t52 -11t48 -19.5t21.5 -28.5v-363q0 -37 1.5 -82 t6.5 -82.5t17 -63.5t35 -26q59 0 92 120t37 378q0 16 -8 32.5t-8 39.5q4 16 33.5 20t54.5 4q61 0 89.5 -12t28.5 -74q-4 -37 -7 -58.5t-4 -38.5t-2 -36.5t-1 -56.5q0 -47 4 -98.5t14.5 -94.5t25.5 -70.5t40 -27.5q23 0 35 13.5t22.5 29.5t20.5 29.5t28 13.5q16 0 24.5 -11 t8.5 -22q0 -39 -19.5 -65.5t-47 -43t-56 -23.5t-47.5 -7q-35 0 -59.5 8t-48.5 25l-19 16q-41 41 -67 125q-6 -12 -15.5 -53t-28 -85t-48 -80t-74.5 -36q-131 0 -180.5 76t-57.5 223zM424 1036q0 25 14.5 43.5t35 31.5t43 20.5t38.5 7.5q12 0 30.5 -9.5t35 -24.5t28.5 -35 t12 -38q0 -12 -16 -25.5t-37.5 -24.5t-42 -19.5t-28.5 -8.5q-14 0 -34 6.5t-37 17.5t-29.5 25.5t-12.5 32.5z" />
<glyph unicode="&#xfd;" horiz-adv-x="663" d="M27 360q0 80 2 167t10 161t24.5 122t42.5 48q8 0 33 -4t51.5 -13.5t47 -24.5t20.5 -38q0 -6 -5 -9t-9 -7q-12 -8 -22.5 -31.5t-17.5 -68t-11.5 -115t-4.5 -172.5q0 -154 11.5 -219.5t46.5 -65.5q37 0 66.5 55.5t54 145.5t45 204.5t37.5 231.5q20 0 45.5 -2t49 -8 t40 -15.5t16.5 -25.5q0 -10 -12 -14v-607q23 -2 43 -9t20 -34q0 -16 -8 -22t-18.5 -8t-21.5 -3.5t-15 -7.5v-325q0 -39 -1 -85t-9.5 -91t-25.5 -84t-50 -64q-2 -2 -13.5 -9t-24.5 -16.5t-25.5 -17.5t-16.5 -10q-29 -18 -46.5 -43t-43.5 -25q-10 0 -15.5 1t-10.5 3t-14 5.5 t-26 7.5q-92 18 -128 54t-36 116q0 82 25 170t68 170t102 152.5t129 119.5v262q-10 -39 -24.5 -90t-36 -96t-50 -76t-67.5 -31q-35 0 -76 24.5t-74 49.5q-25 20 -39 64.5t-21 93.5t-9 94t-2 65zM215 -571q0 -10 1 -34t9 -46.5t23.5 -40t46.5 -17.5q45 0 70.5 48.5t39 113 t17.5 129t4 94.5v9v227q-49 -39 -88 -100.5t-66.5 -130t-42 -136t-14.5 -116.5zM215 940v24q0 16 4 25.5t22 25.5q43 41 92 82t93.5 75t80 55.5t54.5 21.5q14 0 20 -12.5t6 -69.5q0 -33 -7 -46.5t-20.5 -19.5t-32 -10t-42.5 -18l-170 -119q-10 -16 -30.5 -39t-33.5 -23 q-6 0 -10 5q-8 14 -13 19l-8 8t-4 5t-1 11z" />
<glyph unicode="&#xfe;" horiz-adv-x="638" d="M35 1192q0 4 11 10t25.5 12.5t28 10.5t15.5 4q35 0 54 -22.5t19 -88.5v-612q12 29 23.5 76t33 93t56.5 79.5t90 33.5q66 0 106 -44t62.5 -106.5t30.5 -133t8 -125.5v-19q0 -86 -13.5 -162.5t-41 -133t-72.5 -90t-106 -33.5q-55 0 -94.5 21.5t-39.5 74.5q0 23 15.5 35 t27.5 12q16 0 23.5 -9t14.5 -20.5t16.5 -20.5t29.5 -9q35 0 54.5 32.5t30 81.5t13.5 106.5t3 106.5v94q0 29 -2 71t-10.5 80t-26 64.5t-45.5 26.5q-43 0 -75 -63.5t-52.5 -161.5t-29.5 -215t-9 -223v-183q2 -41 4 -71.5t5 -57t8 -52.5t14 -58q2 -6 15 -11.5t13 -19.5 q0 -16 -11 -25.5t-28.5 -14.5t-38 -6t-36.5 -1h-29q-25 0 -49.5 7t-24.5 38v1528q0 41 -8 65q-2 8 -4 15.5t-4 13.5z" />
<glyph unicode="&#xff;" horiz-adv-x="663" d="M27 360q0 80 2 167t10 161t24.5 122t42.5 48q8 0 33 -4t51.5 -13.5t47 -24.5t20.5 -38q0 -6 -5 -9t-9 -7q-12 -8 -22.5 -31.5t-17.5 -68t-11.5 -115t-4.5 -172.5q0 -154 11.5 -219.5t46.5 -65.5q37 0 66.5 55.5t54 145.5t45 204.5t37.5 231.5q20 0 45.5 -2t49 -8 t40 -15.5t16.5 -25.5q0 -10 -12 -14v-607q23 -2 43 -9t20 -34q0 -16 -8 -22t-18.5 -8t-21.5 -3.5t-15 -7.5v-325q0 -39 -1 -85t-9.5 -91t-25.5 -84t-50 -64q-2 -2 -13.5 -9t-24.5 -16.5t-25.5 -17.5t-16.5 -10q-29 -18 -46.5 -43t-43.5 -25q-10 0 -15.5 1t-10.5 3t-14 5.5 t-26 7.5q-92 18 -128 54t-36 116q0 82 25 170t68 170t102 152.5t129 119.5v262q-10 -39 -24.5 -90t-36 -96t-50 -76t-67.5 -31q-35 0 -76 24.5t-74 49.5q-25 20 -39 64.5t-21 93.5t-9 94t-2 65zM45 1020q0 59 44 89t87 30q12 0 32 -9.5t36 -24.5t28.5 -35t12.5 -38 q0 -12 -16.5 -25.5t-38 -24.5t-42 -19.5t-28.5 -8.5q-12 0 -31.5 7.5t-38 17.5t-32 21.5t-13.5 19.5zM215 -571q0 -10 1 -34t9 -46.5t23.5 -40t46.5 -17.5q45 0 70.5 48.5t39 113t17.5 129t4 94.5v9v227q-49 -39 -88 -100.5t-66.5 -130t-42 -136t-14.5 -116.5zM416 1036 q0 25 14.5 43.5t35 31.5t43 20.5t38.5 7.5q12 0 30.5 -9.5t35 -24.5t28.5 -35t12 -38q0 -12 -16 -25.5t-37.5 -24.5t-42 -19.5t-28.5 -8.5q-14 0 -34 6.5t-37 17.5t-29.5 25.5t-12.5 32.5z" />
<glyph unicode="&#x152;" horiz-adv-x="1861" d="M53 594q0 53 6.5 122.5t21.5 143.5t39.5 145.5t63.5 128t93.5 91.5t125.5 35q29 0 79 -12.5t79 -20.5l37 -8q43 -8 81 -17.5t72.5 -30t66.5 -56.5t63 -97q25 66 93 113t153 78.5t174.5 47t154.5 15.5h84h10q10 0 31 -1t42.5 -2t38.5 -4t19 -8q18 -18 40 -41.5t41.5 -51 t32.5 -57.5t15 -58q0 -25 -7 -46.5t-25 -41.5q-8 33 -31 54t-52.5 33.5t-61 17.5t-56.5 5h-129q-37 0 -106.5 -6t-138 -25.5t-120 -56.5t-51.5 -98q0 -129 126 -190.5t337 -61.5q4 0 25.5 5t25.5 15q20 -12 39 -52t21 -77q0 -16 -3.5 -39.5t-13.5 -33.5q-63 0 -100 2t-78 2 q-45 0 -100.5 -3t-109.5 -17.5t-102 -45.5t-81 -84q-16 -29 -17 -59q4 -59 40 -95t86.5 -54.5t103.5 -23.5t90 -5q16 0 26.5 1t16.5 1h6q53 0 105.5 9t87.5 48q57 63 92 89t69 26q41 0 60.5 -15.5t19.5 -36.5q0 -29 -24 -57q-53 -57 -122 -92t-140.5 -52.5t-141 -22.5 t-127.5 -5q-39 0 -86 4t-95 22.5t-94 57.5t-85 109q-43 -72 -109.5 -119t-134.5 -47h-113q-37 0 -79.5 7t-85.5 21.5t-84 34t-72 45.5q-47 43 -78 103.5t-48 128t-24.5 136t-7.5 130.5zM236 614q0 -61 10 -148t38.5 -167t80 -136.5t133.5 -56.5h86q47 0 86 28t67.5 69t47 89 t24.5 87q8 47 11 92t3 92q0 49 -5 119t-19.5 140.5t-38 133t-60.5 97.5t-86 46t-96 11q-94 0 -150.5 -51t-85 -126t-37.5 -161t-9 -158zM967 725q4 -29 7 -56.5t3 -50.5v-92q41 16 85 29.5t81 30.5q-55 23 -98.5 59.5t-77.5 79.5z" />
<glyph unicode="&#x153;" horiz-adv-x="1007" d="M8 328q0 41 7.5 108.5t27.5 143t56 146.5t91 114q12 12 30 32.5t59 20.5q33 0 71.5 -23.5t65.5 -46.5q20 -14 37.5 -18t35.5 -27q43 -51 68 -110q35 61 85 102t118 41q37 0 69.5 -15.5t57 -40t39 -57t16.5 -67.5q0 -76 -15.5 -142.5t-46 -115.5t-74.5 -77t-104 -28 q-10 0 -25 2t-30 6q0 -33 8.5 -71.5t26.5 -70.5t49 -53.5t74 -21.5q59 0 97 23.5t62.5 60.5t38 83t21.5 89q6 29 12 39.5t21 10.5q31 0 30 -35v-15q0 -51 -18 -114.5t-57 -117.5t-99.5 -91t-144.5 -37q-82 0 -138.5 29.5t-90.5 81.5q-29 -53 -73 -87t-108 -34q-12 0 -33.5 5 t-46 12t-48 14.5t-40.5 11.5q-55 10 -91 45t-55 83t-27.5 104t-8.5 108zM172 313q0 -33 5 -76.5t19.5 -83.5t42 -68t72.5 -28q53 0 84 39t48.5 94.5t23.5 114.5t8 98q2 16 2 38v46q0 45 -4 93.5t-16.5 87.5t-36 64.5t-62.5 25.5q-18 0 -26 -4t-14.5 -13.5t-12.5 -20.5 t-22 -28q-33 -33 -54.5 -86t-34 -108.5t-17.5 -105.5t-5 -79zM662 395q0 -18 9 -29.5t21 -11.5h4q41 0 70 31t46 74t25.5 88t8.5 74v12q0 16 -9.5 34.5t-33.5 18.5q-37 0 -63.5 -39t-44 -89t-25.5 -96t-8 -61v-6z" />
<glyph unicode="&#x178;" horiz-adv-x="1155" d="M-43 664q0 63 13 141t39 157.5t62.5 156.5t85 136.5t107.5 95t127 35.5q53 0 82 -27.5t59 -62.5q12 -10 34 -27.5t32 -27.5q14 -14 23.5 -52t14.5 -81t7 -84t2 -63q0 -90 -10.5 -182.5t-23.5 -184.5t-23.5 -185.5t-10.5 -185.5q0 -18 2 -50t9.5 -63.5t21.5 -54t41 -22.5 q25 0 49.5 40t47 104.5t44 143t38 156.5t28.5 145.5t18 108.5q10 66 15.5 132.5t5.5 144.5q0 25 -2 47t-2 41q0 12 20.5 16t36.5 4q10 0 35 -4t51.5 -12t47 -17.5t20.5 -19.5q0 -37 -11 -74q-16 -123 -26 -232.5t-10 -219.5q0 -76 9 -193t9 -246q0 -88 -8 -171t-30.5 -148.5 t-61.5 -107.5t-103 -48q-41 -4 -91 -6t-91 -2q-35 0 -82 10t-89 34t-70.5 58.5t-28.5 83.5q0 10 7 27.5t21 17.5q41 0 61.5 -26.5t41 -59t52.5 -59.5t95 -27q59 0 94 30t54.5 80t25.5 114.5t6 132.5q0 66 -3 128t-3 115q0 23 1 43.5t3 36.5q-16 -57 -34.5 -128.5t-47 -135 t-70.5 -106.5t-104 -43q-57 0 -101 25.5t-72.5 68.5t-43 97t-14.5 110q0 98 10 198.5t22.5 202.5t23 205.5t10.5 210.5q0 25 -2.5 58.5t-11.5 65t-27.5 54.5t-51.5 23t-60.5 -20.5t-49.5 -43.5q-92 -94 -144.5 -226t-52.5 -280q0 -25 3 -56.5t14.5 -60t32 -49t53.5 -20.5 q18 0 30.5 11t22.5 24.5t21.5 24.5t25.5 11q23 0 39 -30.5t16 -48.5q0 -29 -14 -44.5t-34.5 -22.5t-44.5 -8t-44 -1q-18 0 -50 11t-48 22q-66 35 -93.5 87t-27.5 124zM512 1430q0 59 44 89t87 30q12 0 32 -9.5t36 -24.5t28.5 -35t12.5 -38q0 -12 -16.5 -25.5t-38 -24.5 t-42 -19.5t-28.5 -8.5q-12 0 -31.5 7.5t-38 17.5t-32 21.5t-13.5 19.5zM883 1446q0 25 14.5 43.5t35 31.5t43 20.5t38.5 7.5q12 0 30.5 -9.5t35 -24.5t28.5 -35t12 -38q0 -12 -16 -25.5t-37.5 -24.5t-42 -19.5t-28.5 -8.5q-14 0 -34 6.5t-37 17.5t-29.5 25.5t-12.5 32.5z " />
<glyph unicode="&#x2c6;" horiz-adv-x="628" d="M51 911v4q0 8 2 14.5t13 16.5l34 39q16 16 60.5 52t115.5 112q10 10 23.5 25.5t38.5 15.5q23 0 29 -4t10 -14.5t13 -27t36 -40.5q61 -70 110.5 -120t49.5 -77q0 -33 -25 -33q-18 0 -27.5 6.5t-16.5 15.5t-16 21.5t-26 22.5l-100 66q-25 16 -30 29.5t-11 13.5h-4 q-10 0 -19.5 -8.5t-27.5 -20.5l-215 -150q-4 0 -10.5 15.5t-6.5 25.5z" />
<glyph unicode="&#x2dc;" horiz-adv-x="700" d="M51 1016q0 66 47 97.5t107 31.5q47 0 84 -17.5t67.5 -37t57 -37t53.5 -17.5q47 0 64.5 22.5t17.5 53.5q0 16 12 22.5t21 6.5q20 0 33.5 -19.5t13.5 -54.5q0 -39 -17.5 -64.5t-43 -41t-53.5 -22.5t-50 -7q-41 0 -81 12t-81 49q-12 29 -37.5 39t-48.5 10q-47 0 -67.5 -22 t-22.5 -55q-4 -4 -13.5 -6.5t-15.5 -2.5q-47 0 -47 60z" />
<glyph unicode="&#x2000;" horiz-adv-x="829" />
<glyph unicode="&#x2001;" horiz-adv-x="1659" />
<glyph unicode="&#x2002;" horiz-adv-x="829" />
<glyph unicode="&#x2003;" horiz-adv-x="1659" />
<glyph unicode="&#x2004;" horiz-adv-x="553" />
<glyph unicode="&#x2005;" horiz-adv-x="414" />
<glyph unicode="&#x2006;" horiz-adv-x="276" />
<glyph unicode="&#x2007;" horiz-adv-x="276" />
<glyph unicode="&#x2008;" horiz-adv-x="207" />
<glyph unicode="&#x2009;" horiz-adv-x="331" />
<glyph unicode="&#x200a;" horiz-adv-x="92" />
<glyph unicode="&#x2010;" horiz-adv-x="741" d="M123 496q0 29 12 46t47 17h6q18 -2 24.5 -4t15 -3t25.5 -1h56q92 0 149.5 3t108.5 13l9 -10q8 -10 17 -25.5t17 -34t8 -36.5q0 -29 -16 -56.5t-72 -27.5h-12q-35 0 -88 5t-149 5h-33q-47 0 -86 31t-39 78z" />
<glyph unicode="&#x2011;" horiz-adv-x="741" d="M123 496q0 29 12 46t47 17h6q18 -2 24.5 -4t15 -3t25.5 -1h56q92 0 149.5 3t108.5 13l9 -10q8 -10 17 -25.5t17 -34t8 -36.5q0 -29 -16 -56.5t-72 -27.5h-12q-35 0 -88 5t-149 5h-33q-47 0 -86 31t-39 78z" />
<glyph unicode="&#x2012;" horiz-adv-x="741" d="M123 496q0 29 12 46t47 17h6q18 -2 24.5 -4t15 -3t25.5 -1h56q92 0 149.5 3t108.5 13l9 -10q8 -10 17 -25.5t17 -34t8 -36.5q0 -29 -16 -56.5t-72 -27.5h-12q-35 0 -88 5t-149 5h-33q-47 0 -86 31t-39 78z" />
<glyph unicode="&#x2013;" horiz-adv-x="1077" d="M80 494q0 27 19.5 44t74.5 17h10q31 0 61.5 -2t68.5 -3t86.5 -2t109.5 -1q147 0 248.5 3t183.5 13l10 -9q9 -9 20 -23.5t21.5 -33t10.5 -36.5q0 -12 -2.5 -26.5t-12.5 -28t-34.5 -21.5t-69.5 -8h-19q-29 0 -86 2t-133 4t-166 4t-182 2q-100 0 -159.5 21.5t-59.5 83.5z " />
<glyph unicode="&#x2014;" horiz-adv-x="1380" d="M94 479q0 12 2 26.5t11.5 25t28 17.5t48.5 7q31 0 81 -1t110.5 -3t127.5 -3t130 -1q74 0 161 1t170 3t153.5 5t111.5 7l13 -9t28.5 -23.5t28 -33t12.5 -36.5q0 -12 -5.5 -26.5t-21.5 -28t-48 -21.5t-85 -8q-57 0 -258 5t-508 5h-18q-51 0 -99.5 2t-87.5 10.5t-62.5 27.5 t-23.5 52z" />
<glyph unicode="&#x2018;" horiz-adv-x="440" d="M70 1124q0 41 23.5 72t56 52.5t69.5 32.5t62 11q8 0 17 -3t13 -13q-12 0 -28.5 -4t-31.5 -11.5t-26.5 -19.5t-11.5 -31q0 -12 25.5 -19t55.5 -15.5t55.5 -21.5t25.5 -38q0 -8 -3 -12t-7 -17q-6 -27 -23.5 -46t-39 -30.5t-44 -16.5t-39.5 -5q-25 0 -50.5 9.5t-48 26.5 t-36.5 42.5t-14 56.5z" />
<glyph unicode="&#x2019;" horiz-adv-x="411" d="M72 1165q0 8 3 12.5t7 16.5q6 29 23.5 47.5t39 29.5t44 16t38.5 5q25 0 50.5 -9t48 -26.5t37 -43t14.5 -56.5q0 -39 -23.5 -70.5t-56.5 -53t-70 -33t-61 -11.5q-8 0 -17.5 3t-13.5 14q12 0 29.5 4t33 11t25.5 19.5t10 30.5q0 12 -25.5 19.5t-55 15.5t-55 21.5t-25.5 37.5 z" />
<glyph unicode="&#x201a;" horiz-adv-x="462" d="M72 80q0 8 3 12t7 17q6 29 23.5 47t39 29.5t44 16.5t38.5 5q25 0 50.5 -9.5t48 -26.5t37 -42.5t14.5 -56.5q0 -39 -23.5 -71t-56.5 -53.5t-70 -32.5t-61 -11q-8 0 -17.5 3t-13.5 13q12 0 29.5 4t33 11.5t25.5 19.5t10 31q0 12 -25.5 19t-55 15.5t-55 21.5t-25.5 38z" />
<glyph unicode="&#x201c;" horiz-adv-x="835" d="M70 1124q0 41 23.5 72t56 52.5t69.5 32.5t62 11q8 0 17 -3t13 -13q-12 0 -28.5 -4t-31.5 -11.5t-26.5 -19.5t-11.5 -31q0 -12 25.5 -19t55.5 -15.5t55.5 -21.5t25.5 -38q0 -8 -3 -12t-7 -17q-6 -27 -23.5 -46t-39 -30.5t-44 -16.5t-39.5 -5q-25 0 -50.5 9.5t-48 26.5 t-36.5 42.5t-14 56.5zM459 1124q0 41 23.5 72t56 52.5t69.5 32.5t62 11q8 0 17 -3t13 -13q-12 0 -28.5 -4t-31.5 -11.5t-26.5 -19.5t-11.5 -31q0 -12 25.5 -19t55.5 -15.5t55.5 -21.5t25.5 -38q0 -8 -3 -12t-7 -17q-6 -27 -23.5 -46t-39 -30.5t-44 -16.5t-39.5 -5 q-25 0 -50.5 9.5t-48 26.5t-36.5 42.5t-14 56.5z" />
<glyph unicode="&#x201d;" horiz-adv-x="835" d="M72 1165q0 8 3 12.5t7 16.5q6 29 23.5 47.5t39 29.5t44 16t38.5 5q25 0 50.5 -9t48 -26.5t37 -43t14.5 -56.5q0 -39 -23.5 -70.5t-56.5 -53t-70 -33t-61 -11.5q-8 0 -17.5 3t-13.5 14q12 0 29.5 4t33 11t25.5 19.5t10 30.5q0 12 -25.5 19.5t-55 15.5t-55 21.5t-25.5 37.5 zM461 1165q0 8 3 12.5t7 16.5q6 29 23.5 47.5t39 29.5t44 16t38.5 5q25 0 50.5 -9t48 -26.5t37 -43t14.5 -56.5q0 -39 -23.5 -70.5t-56.5 -53t-69.5 -33t-61.5 -11.5q-8 0 -17.5 3t-13.5 14q12 0 29.5 4t33 11t26 19.5t10.5 30.5q0 12 -26 19.5t-55.5 15.5t-55 21.5 t-25.5 37.5z" />
<glyph unicode="&#x201e;" horiz-adv-x="835" d="M72 80q0 8 3 12t7 17q6 29 23.5 47t39 29.5t44 16.5t38.5 5q25 0 50.5 -9.5t48 -26.5t37 -42.5t14.5 -56.5q0 -39 -23.5 -71t-56.5 -53.5t-70 -32.5t-61 -11q-8 0 -17.5 3t-13.5 13q12 0 29.5 4t33 11.5t25.5 19.5t10 31q0 12 -25.5 19t-55 15.5t-55 21.5t-25.5 38z M459 80q0 8 3 12t7 17q6 29 23.5 47t39 29.5t44 16.5t38.5 5q25 0 50.5 -9.5t48 -26.5t37 -42.5t14.5 -56.5q0 -39 -23.5 -71t-56.5 -53.5t-69.5 -32.5t-61.5 -11q-8 0 -17.5 3t-13.5 13q12 0 29.5 4t33 11.5t26 19.5t10.5 31q0 12 -26 19t-55.5 15.5t-55 21.5t-25.5 38z " />
<glyph unicode="&#x2022;" horiz-adv-x="1034" d="M156 567q0 61 21.5 118.5t63.5 104t103.5 74t140.5 27.5q37 0 68 -10q33 -10 66.5 -21.5t62.5 -36.5q61 -16 106.5 -64t45.5 -124t-34 -137.5t-91.5 -105.5t-130 -67.5t-152.5 -23.5q-121 0 -195.5 63.5t-74.5 202.5z" />
<glyph unicode="&#x2026;" horiz-adv-x="1671" d="M143 70v10q0 25 21.5 45t51.5 34.5t61.5 21.5t52.5 7q18 0 43.5 -10t50.5 -27.5t42 -38t17 -40.5q0 -12 -23.5 -27.5t-54 -29t-59.5 -21.5t-41 -8q-45 0 -81 19.5t-74 35.5q6 6 6 16q0 8 -13 13zM655 70v10q0 25 21.5 45t51.5 34.5t61.5 21.5t52.5 7q18 0 43.5 -10 t50.5 -27.5t42 -38t17 -40.5q0 -12 -23.5 -27.5t-54 -29t-59.5 -21.5t-41 -8q-45 0 -81 19.5t-74 35.5q6 6 6 16q0 8 -13 13zM1188 70v10q0 25 21.5 45t51 34.5t61.5 21.5t52 7q18 0 44 -10t50.5 -27.5t42 -38t17.5 -40.5q0 -12 -23.5 -27.5t-54.5 -29t-59.5 -21.5t-40.5 -8 q-45 0 -81 19.5t-75 35.5q6 6 6 16q0 8 -12 13z" />
<glyph unicode="&#x202f;" horiz-adv-x="331" />
<glyph unicode="&#x2039;" horiz-adv-x="786" d="M96 418q0 35 33 62.5t64 47.5q37 25 68.5 57.5t64.5 65.5v-2q66 70 138.5 129.5t143.5 134.5v2q12 12 26.5 17.5t27.5 5.5q29 0 49 -20.5t20 -51.5q0 -10 -3 -17t-3 -15q-49 -55 -103.5 -102.5t-107.5 -96.5q-27 -25 -54.5 -55.5t-57 -61.5t-60.5 -58.5t-66 -47.5 q18 -20 29.5 -28.5t22.5 -14.5q41 -23 90 -72t90 -94q20 -23 50 -49.5t56.5 -54t46 -52t19.5 -43.5q0 -31 -19.5 -51.5t-48.5 -20.5q-10 0 -20 4.5t-21 4.5q-39 33 -71.5 66.5t-65.5 67.5t-69.5 70.5t-85.5 75.5q-78 66 -130.5 115t-52.5 82z" />
<glyph unicode="&#x203a;" horiz-adv-x="802" d="M96 866q0 31 20.5 51.5t49.5 20.5q12 0 26.5 -5t26.5 -18v-2q72 -76 144.5 -135t138.5 -129v2q33 -33 64.5 -65.5t68.5 -57.5q31 -20 63.5 -47.5t32.5 -62.5q0 -33 -52 -82t-130 -115q-49 -39 -86 -75.5t-70 -70.5t-64.5 -68t-72.5 -66q-10 0 -20.5 -4.5t-20.5 -4.5 q-29 0 -48.5 20.5t-19.5 51.5q0 18 19.5 43t46.5 52.5t56.5 54t49.5 49.5q41 45 90.5 94t90.5 72q10 6 21 14t30 29q-66 43 -125 108.5t-113 114.5q-51 49 -106 95t-105 104q0 8 -3 15t-3 17z" />
<glyph unicode="&#x205f;" horiz-adv-x="414" />
<glyph unicode="&#x20ac;" horiz-adv-x="1191" d="M14 694q0 20 17.5 38t38.5 20h190q16 117 52 214t86.5 167.5t113.5 109.5t133 39h49q43 0 71 -9t51.5 -24.5t50 -33t67.5 -33.5q37 -10 59.5 -33t36.5 -48.5t19.5 -50t5.5 -38.5v-4q0 -16 -3 -38t-14.5 -40.5t-36 -31.5t-67.5 -15q-66 0 -91.5 26.5t-25.5 71.5 q0 12 2 19.5t3 13.5t3 15t2 28q0 49 -17 73.5t-71 24.5q-63 0 -112 -32.5t-84 -88t-54.5 -127t-23.5 -151.5h428q41 0 41 -37q0 -23 -17.5 -52.5t-54.5 -29.5h-407v-92h444q43 0 43 -39q0 -23 -19.5 -52.5t-54.5 -29.5h-409q4 -59 19.5 -121.5t49 -114t88 -84t136.5 -32.5 q59 0 104 15t78 40t49 53.5t16 52.5q0 53 24 91t73 38q37 0 49 -19t12 -44q0 -20 -3 -42t-9 -34q-29 -80 -76 -127t-107.5 -71.5t-128 -32.5t-137.5 -8q-401 0 -446 438h-170q-33 4 -46.5 20.5t-13.5 32.5q0 18 17.5 41t40.5 25h168v20v37t2 37h-174q-33 4 -46.5 23.5 t-13.5 35.5z" />
<glyph unicode="&#x2122;" horiz-adv-x="1024" d="M-37 1067q0 20 14.5 31.5t34 16.5t38 6t26.5 1q14 0 29.5 -1t46.5 -5v10q4 23 19 34t32 11q16 0 30.5 -9t20.5 -32l-2 -20q35 -4 58.5 -5t58.5 -1h8q12 6 22 6q20 0 35 -13.5t15 -35.5q0 -33 -27 -44t-49 -11q-31 0 -61.5 3t-59.5 7q-2 -117 -3 -215.5t-1 -212.5 q0 -27 -17.5 -40t-33.5 -13q-41 0 -52 49v85t2 83q2 70 2.5 144.5t0.5 127.5q-23 2 -34.5 2h-21.5q-14 0 -28.5 -2t-49.5 -6q-53 10 -53 49zM510 614v476q4 23 21.5 34t33.5 11q25 0 41 -23q27 -8 47.5 -38t38 -68.5t30.5 -79.5t26 -74q4 4 5 8t5 8q33 53 62.5 112.5 t53.5 131.5v2q4 23 19.5 34t32.5 11q39 0 51 -41v-540q0 -27 -16.5 -40.5t-32.5 -13.5t-33.5 11.5t-17.5 33.5v308q-23 -41 -47.5 -83t-45.5 -85q2 -2 2 -15q0 -23 -14 -37t-33 -14q-16 0 -32.5 16.5t-20.5 55.5q-10 47 -31.5 104.5t-40.5 102.5v-304q0 -27 -17 -40t-36 -13 q-16 0 -31.5 12.5t-19.5 36.5z" />
<glyph unicode="&#xe000;" horiz-adv-x="921" d="M0 0v922h922v-922h-922z" />
<glyph unicode="&#xfb01;" horiz-adv-x="897" d="M-18 397q0 25 11 41.5t29.5 26.5t42 17t46.5 14q6 29 17 79t24.5 110t28 126t25.5 127t18 114.5t7 88.5q0 37 -5 65.5t-25 59.5q18 10 48 17t68 7q14 0 34 -5t37.5 -16.5t29.5 -26.5t12 -36q0 -39 -20.5 -127t-49 -192.5t-57.5 -208t-47 -168.5q25 4 78 19.5t106.5 38 t94 51t43.5 59.5q-2 8 -3.5 12t-1.5 8q0 6 14.5 10.5t30.5 8.5q20 4 46 4q6 0 24.5 -2t36.5 -10.5t32.5 -22.5t14.5 -39q0 -6 -10 -41t-19 -76v2q-2 -31 -6 -67q-4 -31 -6 -69t-2 -79t3 -80.5t12.5 -71.5t24.5 -51.5t40 -19.5q66 0 109 69.5t57 217.5q4 23 24 22 q16 0 30.5 -15t14.5 -50l-2 -14q-8 -53 -26.5 -112.5t-50 -109t-77.5 -82t-112 -32.5q-53 0 -91 24.5t-61.5 61.5t-33.5 80t-10 79q0 16 5 104.5t5 219.5q-27 -45 -80 -74.5t-86 -46.5l-8 -4q23 -25 36 -60.5t19 -76.5t8 -84t2 -84q0 -10 -3 -62.5t-12 -123t-24.5 -149.5 t-39 -145.5t-55.5 -110.5t-77 -44q-18 0 -42.5 9.5t-48 22.5t-44 31.5t-31.5 36.5q-18 35 -28 120t-10 233q0 80 6 168t14 198l-16 6q-29 10 -58.5 25.5t-29.5 54.5zM201 -188q0 -4 1 -34t4 -65t12 -63.5t24 -28.5q25 0 45 32t34.5 80t25.5 105.5t17.5 106.5t9.5 83.5 t3 39.5v129q0 4 -2 32.5t-8.5 61.5t-16.5 59.5t-26 26.5q-4 0 -18.5 -5t-31.5 -14l-41 -20q-12 -80 -19 -203t-13 -323zM539 991q0 10 15 18.5t34.5 16.5t37 12t23.5 4q41 0 81 -20.5t65 -75.5q4 -6 15 -21.5t11 -21.5q0 -14 -14 -23.5t-31.5 -13.5t-34 -6t-20.5 -2 q-43 0 -85 24.5t-77 78.5q-4 6 -12 16t-8 14z" />
<glyph unicode="&#xfb02;" horiz-adv-x="962" d="M-18 397q0 25 11 41.5t29.5 26.5t42 17t46.5 14q8 45 20 123.5t24.5 171t20.5 185.5t8 165q0 37 -5 65.5t-25 59.5q18 10 47.5 17t68.5 7q14 0 34 -5t37 -16.5t29.5 -26.5t12.5 -36q0 -53 -12.5 -112.5t-24.5 -126.5q-14 -78 -35.5 -191.5t-54.5 -267.5h53 q66 0 134.5 14.5t123.5 38.5q2 88 9.5 204t19.5 220q6 39 14 85t19.5 88t24 76t26.5 48q16 16 44 21.5t50 5.5q47 0 76 -24.5t44 -63.5t20.5 -85t5.5 -87q0 -115 -21.5 -202t-52.5 -150.5t-67 -106.5t-66 -72q0 -141 7 -236.5t23.5 -152.5t42 -81.5t60.5 -24.5q25 0 39 11 t25.5 25.5t22.5 25.5t30 11q20 0 27 -12.5t7 -28.5q0 -25 -17 -43t-43 -32.5t-53.5 -21.5t-45.5 -7q-35 0 -77 7t-71 30q-66 47 -94.5 154.5t-28.5 308.5q-59 -29 -135 -52q31 -59 36 -131.5t5 -152.5q0 -10 -3 -61.5t-10 -120t-21.5 -146.5t-37 -143.5t-54.5 -108.5 t-77 -43q-18 0 -42.5 9.5t-48 22.5t-44 31.5t-31.5 36.5q-18 35 -28 120t-10 233q0 72 6 170l12 196l2 23q-49 0 -76.5 12t-27.5 51zM201 -188q0 -4 1 -34t4 -65t12 -63.5t24 -28.5q25 0 44 32t33.5 80t23.5 105.5t15.5 106.5t8.5 83.5t2 39.5v129q0 4 -1 32.5t-4.5 61.5 t-7.5 59.5t-12 28.5l-41 -6q-29 -4 -48 -8.5t-22 -12.5q-12 -80 -19 -209t-13 -331zM713 637q14 16 33.5 48t38 76t30.5 100t12 124q0 20 -1 45t-6 46.5t-13 36.5t-23 15q-18 0 -31.5 -32.5t-22.5 -87t-13 -122t-4 -136.5v-113z" />
</font>
</defs>
</svg>
