<svg enable-background="new 0 0 1000 1000" viewBox="0 0 1000 1000" xmlns="http://www.w3.org/2000/svg"><path d="m885.8 234.7h-20.9-104.2l-63.3-89.1c-14.9-20.6-31.8-36-54.4-36h-285.9c-22.6 0-39.3 15.6-53.5 36l-64.3 89.1h-125c-67.7 0-104.3 48.9-104.3 123.9v396.1c0 75 54.9 135.8 122.5 135.8h735c67.7 0 122.5-60.8 122.5-135.8v-396.1c0-75-36.6-123.9-104.2-123.9zm62.5 519.9c0 51.9-36.2 94.1-80.8 94.1h-735c-44.5 0-80.8-42.2-80.8-94.1v-396c0-54.6 21-82.2 62.6-82.2h125.1c13.4 0 26-6.4 33.8-17.3l64.7-89.7c7.9-11.4 15.1-18.1 19.2-18.1h285.8c4.5 0 12 6.8 20.4 18.5l63.3 89.1c7.8 11 20.5 17.5 34 17.5h104.3 20.9c20.3 0 35 6 45.2 18.5 11.4 14 17.4 36 17.4 63.7z"/><path d="m489.6 303.5c-137.4 0-249.3 111.8-249.3 249.3 0 137.4 111.8 249.3 249.3 249.3 137.4 0 249.3-111.8 249.3-249.3s-111.9-249.3-249.3-249.3zm0 458c-115.1 0-208.7-93.6-208.7-208.7s93.6-208.7 208.7-208.7 208.7 93.6 208.7 208.7-93.6 208.7-208.7 208.7z"/><path d="m294.5 171.9h-163.5c-5 0-9.1 4.1-9.1 9.1v22.3c0 5 4.1 9.1 9.1 9.1h163.4c5 0 9.1-4.1 9.1-9.1v-22.3c.1-5.1-4-9.1-9-9.1z"/><path d="m162 256.8v-74.7c0-5-4.1-9.1-9.1-9.1h-22.3c-5 0-9.1 4.1-9.1 9.1v74.7c0 5 4.1 9.1 9.1 9.1h22.3c5 .1 9.1-4 9.1-9.1z"/><path d="m492.8 389.3c-88.4 0-160.3 71.9-160.3 160.3s71.9 160.3 160.3 160.3 160.3-71.9 160.3-160.3-71.9-160.3-160.3-160.3zm0 294.5c-74 0-134.2-60.2-134.2-134.2s60.2-134.2 134.2-134.2 134.2 60.2 134.2 134.2-60.2 134.2-134.2 134.2z"/><path d="m826 326.7c20.6 0 37.1 16.9 37.1 38 0 20.6-16.5 37.1-37.1 37.1-21.1 0-38-16.6-38-37.1.1-21.1 16.9-38 38-38z"/></svg>